<svg id="Layer_1" data-name="Layer 1" xmlns="http://www.w3.org/2000/svg" viewBox="0 0 195 179"><polygon points="58.97 19.78 140.34 21.39 134.12 141.94 44.48 132.41 58.97 19.78" style="fill:none;stroke:#bcba40;stroke-miterlimit:10;stroke-width:0.942163050174713px"/><path d="M137.81,70.4l1.43-.08.55-6,8.13-.38c2.32-.08,2.05-1.08,2.05-1.08l.55-30.24a1.81,1.81,0,0,0-2.05-1.46l-7.18.77.34-7.08-1.16.08Z" style="fill:none;stroke:#bcba40;stroke-miterlimit:10;stroke-width:0.942163050174713px"/><path d="M135.62,109.48l1.44-.08.54-6,8.13-.38c2.33-.08,2.05-1.08,2.05-1.08l.55-30.23a1.83,1.83,0,0,0-2.05-1.47l-7.17.7.34-7.08-1.16.08Z" style="fill:none;stroke:#bcba40;stroke-miterlimit:10;stroke-width:0.942163050174713px"/><path d="M134.32,142l1.44-.08.48-5,8.33-.62c2.39-.15,2.05-1,2.05-1l.14-25.16a1.89,1.89,0,0,0-2.12-1.15l-7.31.85.21-5.85-1.17.08Z" style="fill:none;stroke:#bcba40;stroke-miterlimit:10;stroke-width:0.942163050174713px"/></svg>