<svg id="Layer_1" data-name="Layer 1" xmlns="http://www.w3.org/2000/svg" viewBox="0 0 195 179"><path d="M69.35,66.47c.47-.58,34.6-10.74,34.6-10.74L139.5,67.52" style="fill:none;stroke:#fff;stroke-linecap:round;stroke-linejoin:round;stroke-width:2.05071614317624px"/><line x1="103.7" y1="28.57" x2="68.93" y2="66.14" style="fill:none;stroke:#fff;stroke-linecap:round;stroke-linejoin:round;stroke-width:2.05071614317624px"/><line x1="104.02" y1="28.84" x2="102.12" y2="10.01" style="fill:none;stroke:#fff;stroke-linecap:round;stroke-linejoin:round;stroke-width:2.05071614317624px"/><path d="M68.61,19.15C70.9,17.63,102.12,10,102.12,10l37.31,9.14L104,29.05Z" style="fill:none;stroke:#fff;stroke-linecap:round;stroke-linejoin:round;stroke-width:2.05071614317624px"/><polyline points="139.43 19.15 139.43 67.38 104.02 77.78 104.02 29.05" style="fill:none;stroke:#fff;stroke-linecap:round;stroke-linejoin:round;stroke-width:2.05071614317624px"/><polyline points="68.61 19.15 68.61 66.36 104.02 77.78" style="fill:none;stroke:#fff;stroke-linecap:round;stroke-linejoin:round;stroke-width:2.05071614317624px"/><path d="M99.68,119.55c.48-.58,34.61-10.73,34.61-10.73l35.54,11.78" style="fill:none;stroke:#fff;stroke-linecap:round;stroke-linejoin:round;stroke-width:2.05071614317624px"/><line x1="134.04" y1="81.65" x2="99.26" y2="119.22" style="fill:none;stroke:#fff;stroke-linecap:round;stroke-linejoin:round;stroke-width:2.05071614317624px"/><line x1="134.35" y1="81.92" x2="132.45" y2="63.09" style="fill:none;stroke:#fff;stroke-linecap:round;stroke-linejoin:round;stroke-width:2.05071614317624px"/><path d="M99,72.23c2.28-1.52,33.5-9.14,33.5-9.14l37.31,9.14-35.41,9.9Z" style="fill:none;stroke:#fff;stroke-linecap:round;stroke-linejoin:round;stroke-width:2.05071614317624px"/><polyline points="169.76 72.23 169.76 120.46 134.35 130.86 134.35 82.13" style="fill:none;stroke:#fff;stroke-linecap:round;stroke-linejoin:round;stroke-width:2.05071614317624px"/><polyline points="98.94 72.23 98.94 119.44 134.35 130.86" style="fill:none;stroke:#fff;stroke-linecap:round;stroke-linejoin:round;stroke-width:2.05071614317624px"/><path d="M33.91,112.19c.47-.58,34.6-10.73,34.6-10.73l35.54,11.78" style="fill:none;stroke:#fff;stroke-linecap:round;stroke-linejoin:round;stroke-width:2.05071614317624px"/><line x1="68.26" y1="74.3" x2="33.49" y2="111.86" style="fill:none;stroke:#fff;stroke-linecap:round;stroke-linejoin:round;stroke-width:2.05071614317624px"/><line x1="68.58" y1="74.56" x2="66.68" y2="55.73" style="fill:none;stroke:#fff;stroke-linecap:round;stroke-linejoin:round;stroke-width:2.05071614317624px"/><path d="M33.17,64.87c2.29-1.52,33.51-9.14,33.51-9.14L104,64.87l-35.41,9.9Z" style="fill:none;stroke:#fff;stroke-linecap:round;stroke-linejoin:round;stroke-width:2.05071614317624px"/><polyline points="103.99 64.87 103.99 113.1 68.58 123.51 68.58 74.77" style="fill:none;stroke:#fff;stroke-linecap:round;stroke-linejoin:round;stroke-width:2.05071614317624px"/><polyline points="33.17 64.87 33.17 112.08 68.58 123.51" style="fill:none;stroke:#fff;stroke-linecap:round;stroke-linejoin:round;stroke-width:2.05071614317624px"/></svg>