<svg id="Layer_1" data-name="Layer 1" xmlns="http://www.w3.org/2000/svg" viewBox="0 0 195 179"><g id="Layer_2" data-name="Layer 2"><ellipse cx="96.67" cy="24.14" rx="37.74" ry="1.59" style="fill:none;stroke:#beb93c;stroke-miterlimit:10;stroke-width:1.44874167442322px"/><path d="M134.33,24.51c5.65,2.39,0,4.63,0,4.63-31.65,2.9-70.84,1.23-70.84,1.23-6.45,0-6.23-3.11-6.23-3.11s-.29-2.75,1.67-2.75C59,24.51,97.46,27.19,134.33,24.51Z" style="fill:none;stroke:#beb93c;stroke-miterlimit:10;stroke-width:1.44874167442322px"/><path d="M127.6,30.16c-2,2.75,5.65,4.13,4.85,5.21S89,37,72.18,36.39c-10.94-1.24-8.55-2.32-8.55-2.32,3.48-.51,2.32-3,2.54-3.26Z" style="fill:none;stroke:#beb93c;stroke-linecap:round;stroke-linejoin:round;stroke-width:1.44874167442322px"/><path d="M63.34,34.5S58.93,37,58.93,39.65l2.17,77.14s-2.75,2-3.48,3.7c0,0-2.24.94-4,5.65-3.7,5.86,3.11,11,5.21,11.44,43.9,8.91,75.41.22,75.41.22,9.85-5.65,7.9-10.94,7.9-10.94-.87-3-4-5.65-4-5.65-.72-1.74-3.48-3.69-3.48-3.69l2.18-77.15c0-2.61-4.42-5.14-4.42-5.14" style="fill:none;stroke:#beb93c;stroke-linecap:round;stroke-linejoin:round;stroke-width:1.44874167442322px"/><path d="M57.84,120.41c-5,7.75,85.76,7.68,80.33.73" style="fill:none;stroke:#beb93c;stroke-linecap:round;stroke-linejoin:round;stroke-width:1.44874167442322px"/><path d="M61.32,116.79c2.75-2.1,43.6-10.5,73.37-.43" style="fill:none;stroke:#beb93c;stroke-linecap:round;stroke-linejoin:round;stroke-width:1.44874167442322px"/><path d="M61.32,116.79c-4.57,7.75,78.3,7.68,73.37.73" style="fill:none;stroke:#beb93c;stroke-linecap:round;stroke-linejoin:round;stroke-width:1.44874167442322px"/><path d="M59.29,52.47s47.66,4.85,76.64,0" style="fill:none;stroke:#beb93c;stroke-linecap:round;stroke-linejoin:round;stroke-width:1.44874167442322px"/><polygon points="95.51 116.07 94.06 115.99 92.68 115.78 91.38 115.49 90.07 115.05 88.84 114.4 87.68 113.75 86.6 112.95 85.66 112.08 84.71 111.07 83.92 110.05 83.19 108.89 82.61 107.66 82.18 106.43 81.82 105.13 81.6 103.75 81.53 102.38 81.6 100.93 81.82 99.55 82.18 98.25 82.61 97.02 83.19 95.78 83.92 94.63 84.71 93.61 85.66 92.6 86.6 91.73 87.68 90.93 88.84 90.28 90.07 89.7 91.38 89.19 92.68 88.9 94.06 88.69 95.51 88.61 96.88 88.69 98.26 88.9 99.64 89.19 100.94 89.7 102.1 90.28 103.26 90.93 104.34 91.73 105.36 92.6 106.23 93.61 107.02 94.63 107.75 95.78 108.33 97.02 108.76 98.25 109.13 99.55 109.34 100.93 109.41 102.38 109.34 103.75 109.13 105.13 108.76 106.43 108.33 107.66 107.75 108.89 107.02 110.05 106.23 111.07 105.36 112.08 104.34 112.95 103.26 113.75 102.1 114.4 100.94 115.05 99.64 115.49 98.26 115.78 96.88 115.99 95.51 116.07" style="fill:#3a3a39;stroke:#beb93c;stroke-width:0.724370837211609px"/><polygon points="91.02 112.01 92.46 112.01 93.84 111.86 95.22 111.58 96.45 111.14 97.68 110.63 98.91 109.98 100 109.26 101.01 108.39 101.95 107.45 102.75 106.36 103.47 105.27 104.13 104.11 104.63 102.88 105.07 101.58 105.28 100.2 105.43 98.83 105.43 97.81 105.36 96.8 105.21 95.78 105 94.84 104.78 93.9 104.42 92.96 103.98 92.09 103.47 91.29 104.2 91.73 104.85 92.31 105.43 92.89 106.01 93.54 106.59 94.19 107.02 94.84 107.53 95.57 107.89 96.29 108.25 97.09 108.62 97.89 108.83 98.68 109.13 99.55 109.27 100.42 109.34 101.29 109.41 102.16 109.41 103.03 109.27 104.4 108.98 105.78 108.62 107.08 108.11 108.39 107.46 109.55 106.73 110.63 105.86 111.65 104.92 112.59 103.91 113.46 102.82 114.18 101.66 114.83 100.43 115.42 99.13 115.78 97.75 116.07 96.38 116.21 95 116.21 94.06 116.14 93.19 116.07 92.32 115.85 91.45 115.63 90.65 115.34 89.86 115.05 89.06 114.69 88.33 114.26 87.61 113.75 86.89 113.31 86.23 112.73 85.66 112.16 85.08 111.5 84.5 110.85 83.99 110.2 83.55 109.47 83.99 109.76 84.35 110.05 84.79 110.27 85.22 110.49 85.66 110.71 86.09 110.92 86.6 111.07 87.03 111.29 87.54 111.43 87.97 111.58 88.48 111.65 88.99 111.79 89.49 111.86 90 111.94 90.51 112.01 91.02 112.01" style="fill:#beb93c;stroke:#beb93c;stroke-width:0.724370837211609px"/><polygon points="94.49 116.21 94.64 116.21 95.14 116.21 95.8 116.21 96.74 116.14 97.75 115.99 98.98 115.7 100.29 115.34 101.59 114.83 102.97 114.11 104.34 113.17 105.58 112.08 106.73 110.71 107.68 108.97 108.47 107.01 109.05 104.77 109.41 102.09 109.34 102.23 109.2 102.59 108.98 103.17 108.62 103.97 108.18 104.91 107.6 105.92 106.95 107.08 106.16 108.32 105.21 109.47 104.13 110.71 102.89 111.86 101.52 113.02 100 114.04 98.33 114.91 96.52 115.7 94.49 116.21" style="fill:#434343;stroke:#beb93c;stroke-linecap:round;stroke-width:0.724370837211609px"/><polygon points="96.59 102.45 95.94 102.81 95.22 103.03 94.49 103.25 93.84 103.32 93.12 103.39 92.46 103.39 91.81 103.39 91.16 103.32 90.58 103.1 90 102.95 89.42 102.67 88.99 102.38 88.48 102.01 88.12 101.65 87.76 101.14 87.47 100.64 87.25 100.13 87.1 99.55 87.03 98.97 87.03 98.39 87.03 97.81 87.18 97.23 87.39 96.65 87.61 96.07 87.9 95.49 88.33 94.99 88.7 94.48 89.2 93.97 89.71 93.47 90.29 93.03 90.94 92.67 91.59 92.31 92.25 91.94 92.97 91.73 93.62 91.51 94.35 91.36 95.07 91.29 95.72 91.29 96.38 91.36 97.03 91.44 97.61 91.58 98.19 91.8 98.77 92.09 99.2 92.38 99.64 92.74 100.07 93.18 100.43 93.61 100.72 94.12 100.94 94.63 101.08 95.2 101.16 95.78 101.16 96.36 101.08 96.94 100.94 97.52 100.79 98.1 100.5 98.68 100.22 99.26 99.85 99.77 99.42 100.35 98.98 100.78 98.48 101.29 97.9 101.72 97.25 102.09 96.59 102.45" style="fill:#3a3a39"/><polygon points="96.01 101.43 95.51 101.72 94.93 101.87 94.35 102.01 93.84 102.16 93.26 102.23 92.68 102.23 92.17 102.23 91.67 102.09 91.23 102.01 90.73 101.8 90.29 101.65 89.93 101.36 89.57 101.07 89.2 100.78 88.92 100.42 88.7 99.98 88.55 99.55 88.41 99.12 88.33 98.68 88.33 98.17 88.41 97.74 88.48 97.23 88.63 96.8 88.84 96.29 89.06 95.86 89.35 95.42 89.71 94.99 90.07 94.63 90.51 94.26 90.94 93.9 91.45 93.54 92.03 93.25 92.54 93.03 93.12 92.81 93.69 92.67 94.2 92.6 94.78 92.52 95.29 92.52 95.87 92.52 96.38 92.6 96.81 92.74 97.25 92.89 97.75 93.1 98.11 93.32 98.48 93.61 98.77 93.97 99.06 94.33 99.27 94.77 99.49 95.2 99.64 95.64 99.64 96.07 99.64 96.51 99.64 97.02 99.49 97.45 99.35 97.96 99.13 98.39 98.91 98.83 98.62 99.26 98.33 99.7 97.9 100.13 97.53 100.49 97.03 100.86 96.52 101.14 96.01 101.43" style="fill:#3a3a39;stroke:#beb93c;stroke-width:0.724370837211609px"/><polygon points="92.9 95.13 93.48 94.84 93.98 94.63 94.56 94.55 95.07 94.63 95.58 94.7 96.01 94.92 96.38 95.13 96.59 95.49 96.81 95.93 96.81 96.36 96.74 96.87 96.59 97.31 96.3 97.74 95.94 98.17 95.51 98.61 94.93 98.97 94.42 99.19 93.84 99.33 93.26 99.41 92.68 99.41 92.25 99.33 91.81 99.12 91.45 98.83 91.16 98.46 91.02 98.1 91.02 97.67 91.09 97.16 91.23 96.73 91.52 96.22 91.89 95.86 92.32 95.42 92.9 95.13" style="fill:#1d1d1c"/><path d="M94.06,104.84l.21.43.08.44.07.43.22.44.07.14.07.07.15.08.14.07.15.07h.65l-.07.51.07.43.22.37.29.29.36.29.43.21.44.22.43.14m-2.32-2.17v.36l-.07.37-.14.36-.08.36v.36l.08.44.07.43v.36m-.15-.72h-.21l-.15.07-.14.07-.15.15-.07.14-.07.22-.08.22-.07.22m-4-6.16v.72l-.08.37-.14.36-.07.29.07.36v.65l-.07.07-.08.08-.07.07-.07.07v.73L90,109l.15.65.21.65m-.29-2.46-.36.14-.22.22-.14.29-.07.36v.73l-.08.36-.14.29m.29-.87H88.19V110m2.1-3.91.07.15.08.14.14.14.15.15.14.14.22.15.22.07.21.07.36.29.08.51v.65l.07.58m-4.42-5-.14.29-.22.29L87,105l-.22.37-.21.36-.15.36-.14.36v.44l-.08.14-.07.15-.14.14-.22.07-.07.15v.58m.87-2.25h-.8l-.22.08-.21.07-.15.14-.07.22v.29m.22-.8h-.73m2.46-.79h.08l.07.07.07.07h.07v.87m-1.81-3.84h-.21l-.22.07-.22.08-.22.07-.14.14-.07.22-.08.22v.22m.29-.73H84v-.29h-.22m1.81-2.39H84.35v.29h-.22m.87-.29h-.07l-.07-.07-.07-.07h-.08v-.22H84.5m-.15,2.9-.07-.08v-.21h-.07m1.16-4.35h-.29m13.11,6.08.43.22.44.29.36.29.36.29.43.22.44.22.51.07.5-.07v.43l.08.15.07.14.14.07.15.08.14.07.22.07.15.07.21.07.22.08.14.21.08.29v.37m-1.38-1.38-.36.51-.22.58v.58l.22.58.14.14.22.22.22.22.14.28m-.58-.57v1.44m-4-.58-.22.44-.07.43.07.51.07.51m-7.09-1.16h.43l.22.07.22.07.14.08.14.14.15.15.07.21.07.22V112m-.21-.8-.15.15-.14.07-.22.07-.22.15-.14.14-.15.15-.07.21v.22m8.69-7.68v1.74m2-6.15.43.14.44.14.43.22.44.22.36.22.43.14.44.07h.43l.22.08.07.21.08.29.21.15h1.52l.22.07.22.07.14.15.22.14.22.08m-4.35-1.53v.51l-.07.51-.07.43.21.29.22.22.22.22.14.14.22.07.22.15.22.14.21.15.22.14.22.15.14.14.15.15.14.22m-1.52-1.31v1l.07.29.08.07h.29m1.44-2.61v.44l.08.21.07.22.07.15.15.14.21.14.22.08m-2.46-2.39.22-.08h.36l.14-.07h.15l.22-.07.21-.07.22-.08h.72m-3.33-3.11H108m-1.89-.22v-.21l.08-.22.07-.15.14-.14.22-.15.15-.14.21-.15.15-.21m-2,1.59v.36l.07.29.15.29.22.22.21.07h1.38l.29.07.22.15m-3.41-1.59v-.22l.07-.15.15-.07.14-.07m-1.08-2.68.29-.22.29-.14.29-.08.36-.07h1.08l.37-.07M105,93.76l.07-.22.14-.22.22-.07.22-.07m-3.26-.8v-.22h0l.22-.07.21-.07.22-.08.22-.07.21-.07.22-.07.15-.07.14-.15m-3.26-.36.15-.07L101,91l.15-.07.14-.07.15-.07.14-.08H102M103,92l.07-.22v-.43l.07-.22m-2-.29h.5m-2-.44v-.21l.07-.08H100m4.27,4,.15.07.07.07.07.08.07.07.08.07.07.07h.29m1.52,2.1h.72m-4,10.43H105v.22m-7.47,3.12h1l.14.07.15.07.14.15" style="fill:none;stroke:#beb93c;stroke-width:0.15610191334666px"/></g></svg>