<svg id="Layer_1" data-name="Layer 1" xmlns="http://www.w3.org/2000/svg" viewBox="0 0 195 179"><path d="M62,73.92a5.69,5.69,0,0,1-5.67-5.67v-45A5.68,5.68,0,0,1,62,17.53h76.45a5.68,5.68,0,0,1,5.67,5.67V68.25a5.69,5.69,0,0,1-5.67,5.67H125.28" style="fill:none;stroke:#b1b64e;stroke-miterlimit:10;stroke-width:4px"/><rect x="134.34" y="73.17" width="4.46" height="1.5" rx="0.75" style="fill:#fff"/><rect x="127.95" y="73.17" width="4.46" height="1.5" rx="0.75" style="fill:#fff"/><path d="M66.31,67.83h6.4a4.16,4.16,0,0,1,1.47.27,21,21,0,0,1,39.29-.58,4.26,4.26,0,0,1,2.45-.77h5.5a27.81,27.81,0,0,0-55.11,1.08Z" style="fill:none;stroke:#b1b64e;stroke-linecap:round;stroke-linejoin:round;stroke-width:2px"/><path d="M71.05,62l1,.48a25.3,25.3,0,0,1,43.8,0l1-.48a24.59,24.59,0,0,0-45.79,0Z" style="fill:#b1b64e"/><rect x="113.38" y="70.32" width="11.89" height="17.6" rx="2.83" style="fill:none;stroke:#b1b64e;stroke-miterlimit:10;stroke-width:2px"/><rect x="63.42" y="71.06" width="11.89" height="17.6" rx="2.83" style="fill:none;stroke:#b1b64e;stroke-miterlimit:10;stroke-width:2px"/><path d="M74.14,90.91a25.3,25.3,0,0,0,40.41-1.06m-2.91-3.4" style="fill:none;stroke:#b1b64e;stroke-miterlimit:10;stroke-width:2px"/></svg>