<svg id="Layer_1" data-name="Layer 1" xmlns="http://www.w3.org/2000/svg" viewBox="0 0 195 179"><g id="module104"><g id="Layer_3" data-name="Layer 3"><path d="M120,81c6.32,13.91-7,29.81.94,43" style="fill:none;stroke:#bcba40"/><path d="M114,80.84c-1.88,3.32-1.11,7.59-.55,11.25.66,5.38-.84,10.64-.89,16-.06,10.92.83,25.16-9.09,32.15-9.87-7-9-21.29-9.09-32.15,0-5.38-1.5-10.64-.83-16,.5-3.66,1.33-7.93-.56-11.25" style="fill:none;stroke:#bcba40"/><path d="M85.9,124c7.92-13.2-5.38-29.1.89-43" style="fill:none;stroke:#bcba40"/><path d="M94.38,107.67c.05,10.91-.83,25.16,9.09,32.14-10.53,0-11.2-14.46-20-17.51-2.33-.83-5.16-3.22-3.94-6,1.44-3.5-.44-9-1.83-14.64" style="fill:none;stroke:#bcba40"/><path d="M129.19,102.23c-1.39,5.66-3.27,11.14-1.83,14.64,1.16,2.82-1.61,5.15-4,6-8.71,3-9.37,17.51-19.85,17.51,9.87-7,9-21.28,9.09-32.15a54.68,54.68,0,0,1,.45-6" style="fill:none;stroke:#bcba40"/><path d="M121,124.07c-4.16-6.87-2.5-14.46-.89-22.17" style="fill:none;stroke:#bcba40"/><path d="M86.9,102.23c1.6,7.6,3.1,15.08-1,21.9" style="fill:none;stroke:#bcba40"/></g><g id="Layer_7" data-name="Layer 7"><path d="M185.5,116.7a17.09,17.09,0,0,1-1.77-1.83h0a25.18,25.18,0,0,0-3.66-6.71c-2.44-2.16-5.43-12.74-5.43-12.74C171.64,77.18,163,71.25,163,71.25c1.33-7.15-3.38-18.73-3.38-18.73a42,42,0,0,0,1.16-10.37" style="fill:none;stroke:#bcba40;stroke-miterlimit:10"/><path d="M142.88,140.87a108.66,108.66,0,0,0-3.61-22.51,44.34,44.34,0,0,1-2.21-6.37c0-8.37-2.44-20.4-2.44-20.4a25.7,25.7,0,0,1-.39-11.14c2.83-13.3,6.76-29.38,6.76-29.38.83,15.3,8.59,30.38,8.59,30.38A21.85,21.85,0,0,0,152,90.93c9.31,17.4,18.63,27.54,18.63,27.54" style="fill:none;stroke:#bcba40;stroke-miterlimit:10"/><path d="M33.41,118.47S42.67,108.33,52,90.93a21.85,21.85,0,0,0,2.44-9.48s7.76-15.08,8.59-30.38c0,0,3.94,16.08,6.76,29.38a25.74,25.74,0,0,1-.38,11.14S67,103.62,67,112a54.25,54.25,0,0,1-2.22,6.37,106.93,106.93,0,0,0-3.6,22.34" style="fill:none;stroke:#bcba40;stroke-miterlimit:10"/><path d="M43.16,42.15a41.52,41.52,0,0,0,1.17,10.37S39.62,64,41,71.25c0,0-8.65,5.93-11.64,24.17,0,0-3,10.58-5.38,12.74a25.59,25.59,0,0,0-3.66,6.71h0a12.77,12.77,0,0,1-1.77,1.83" style="fill:none;stroke:#bcba40;stroke-miterlimit:10"/></g><g id="Layer_11" data-name="Layer 11"><path d="M101,130.06a4,4,0,0,0-2.11-3.72s-7.7-2.21-9.31-4.71c0,0-8.92-6.59-.83-15.18,0,0,6.37-5.71,21.06-4,0,0,8.82.94,9.92,8.7,0,0,1.28,10.42-11.75,14.52a4.33,4.33,0,0,0-2.16,2,4.07,4.07,0,0,0-.22,2.22l.17,4.77c1,1.94.77,2.27.77,2.27-.39,1.94-2.33.89-2.49.72s-.5-.39-.61-1.66h0c-.11,1.33-.44,1.49-.61,1.66s-2.11,1.28-2.5-.72c0,0-.22-.33.78-2.27Z" style="fill:none;stroke:#bcba40;stroke-miterlimit:10;stroke-width:0.75px"/><path d="M116.77,105.28c2.94-1.77.39-13.08.39-13.08l-1.33.06c2.33,8-.33,12.25-.33,12.25Z" style="fill:none;stroke:#bcba40;stroke-miterlimit:10;stroke-width:0.75px"/><path d="M88.23,106.72c-3.16-1.44-1.78-13-1.78-13l1.33,0c-1.49,8.26,1.61,12.08,1.61,12.08Z" style="fill:none;stroke:#bcba40;stroke-miterlimit:10;stroke-width:0.75px"/><path d="M101.81,129.45s.16-2.44-1.45-3.55c0,0-5.21-2.11-6.26-4.54,0,0-6-6.32-.55-14.53,0,0,4.32-5.48,14.19-3.82,0,0,5.93.89,6.65,8.31,0,0,.83,10-7.93,13.86a3.52,3.52,0,0,0-1.44,1.94,5.93,5.93,0,0,0-.17,2.11l.12,4.6c.66,1.83.55,2.16.55,2.16-.28,1.88-1.55.83-1.66.66s-.34-.33-.39-1.6h0c-.06,1.27-.28,1.44-.39,1.6s-1.38,1.22-1.66-.66c0,0-.17-.33.55-2.16Z" style="fill:none;stroke:#bcba40;stroke-miterlimit:10;stroke-width:0.75px"/><path d="M97.59,102.79c-26.27,10.42,3.27,23.39,3.27,23.39" style="fill:none;stroke:#bcba40;stroke-miterlimit:10;stroke-width:0.75px"/><line x1="95.1" y1="105.39" x2="94.16" y2="104.34" style="fill:none;stroke:#bcba40;stroke-miterlimit:10;stroke-width:0.75px"/><line x1="93.88" y1="106.56" x2="92.33" y2="105.34" style="fill:none;stroke:#bcba40;stroke-miterlimit:10;stroke-width:0.75px"/><line x1="93.05" y1="107.89" x2="90.83" y2="106.33" style="fill:none;stroke:#bcba40;stroke-miterlimit:10;stroke-width:0.75px"/><line x1="92.33" y1="109.27" x2="89.56" y2="107.39" style="fill:none;stroke:#bcba40;stroke-miterlimit:10;stroke-width:0.75px"/><line x1="91.83" y1="110.55" x2="88.61" y2="108.39" style="fill:none;stroke:#bcba40;stroke-miterlimit:10;stroke-width:0.75px"/><line x1="91.5" y1="111.38" x2="87.84" y2="109.33" style="fill:none;stroke:#bcba40;stroke-miterlimit:10;stroke-width:0.75px"/><line x1="91.39" y1="113.1" x2="87.06" y2="110.66" style="fill:none;stroke:#bcba40;stroke-miterlimit:10;stroke-width:0.75px"/><line x1="91.27" y1="114.54" x2="86.73" y2="112.38" style="fill:none;stroke:#bcba40;stroke-miterlimit:10;stroke-width:0.75px"/><line x1="86.95" y1="114.32" x2="91.66" y2="116.42" style="fill:none;stroke:#bcba40;stroke-miterlimit:10;stroke-width:0.75px"/><line x1="92.99" y1="119.8" x2="89.94" y2="119.03" style="fill:none;stroke:#bcba40;stroke-miterlimit:10;stroke-width:0.75px"/><line x1="88.23" y1="117.03" x2="92.11" y2="118.09" style="fill:none;stroke:#bcba40;stroke-miterlimit:10;stroke-width:0.75px"/><path d="M94,121.24c-.28,0-1.77-.22-1.77-.22" style="fill:#009fe3;stroke:#bcba40;stroke-miterlimit:10;stroke-width:0.75px"/><line x1="96.26" y1="103.4" x2="96.6" y2="104.45" style="fill:none;stroke:#bcba40;stroke-miterlimit:10;stroke-width:0.75px"/><line x1="97.65" y1="102.73" x2="98.04" y2="103.67" style="fill:none;stroke:#bcba40;stroke-miterlimit:10;stroke-width:0.75px"/><line x1="99.81" y1="102.34" x2="100.03" y2="103.18" style="fill:none;stroke:#bcba40;stroke-miterlimit:10;stroke-width:0.75px"/><line x1="101.97" y1="102.23" x2="101.97" y2="102.79" style="fill:none;stroke:#bcba40;stroke-miterlimit:10;stroke-width:0.75px"/><line x1="104.58" y1="102.07" x2="104.52" y2="102.57" style="fill:none;stroke:#bcba40;stroke-miterlimit:10;stroke-width:0.75px"/><line x1="107.51" y1="102.23" x2="107.46" y2="102.95" style="fill:none;stroke:#bcba40;stroke-miterlimit:10;stroke-width:0.75px"/><line x1="111.01" y1="102.62" x2="109.51" y2="103.56" style="fill:none;stroke:#bcba40;stroke-miterlimit:10;stroke-width:0.75px"/><line x1="113.83" y1="103.56" x2="111.34" y2="104.78" style="fill:none;stroke:#bcba40;stroke-miterlimit:10;stroke-width:0.75px"/><line x1="115.94" y1="104.89" x2="112.73" y2="106.33" style="fill:none;stroke:#bcba40;stroke-miterlimit:10;stroke-width:0.75px"/><line x1="117.99" y1="106.89" x2="113.83" y2="108.55" style="fill:none;stroke:#bcba40;stroke-miterlimit:10;stroke-width:0.75px"/><line x1="119.15" y1="108.88" x2="114.33" y2="110.38" style="fill:none;stroke:#bcba40;stroke-miterlimit:10;stroke-width:0.75px"/><line x1="119.71" y1="111.1" x2="114.44" y2="112.65" style="fill:none;stroke:#bcba40;stroke-miterlimit:10;stroke-width:0.75px"/><line x1="119.38" y1="114.82" x2="114.17" y2="115.54" style="fill:none;stroke:#bcba40;stroke-miterlimit:10;stroke-width:0.75px"/><line x1="118.49" y1="117.36" x2="113.45" y2="117.81" style="fill:none;stroke:#bcba40;stroke-miterlimit:10;stroke-width:0.75px"/><line x1="116.44" y1="120.41" x2="112.23" y2="120.41" style="fill:none;stroke:#bcba40;stroke-miterlimit:10;stroke-width:0.75px"/><line x1="114.55" y1="122.24" x2="110.67" y2="122.24" style="fill:none;stroke:#bcba40;stroke-miterlimit:10;stroke-width:0.75px"/><line x1="111.39" y1="124.29" x2="108.73" y2="124.02" style="fill:none;stroke:#bcba40;stroke-miterlimit:10;stroke-width:0.75px"/><line x1="109.12" y1="125.29" x2="107.07" y2="124.9" style="fill:none;stroke:#bcba40;stroke-miterlimit:10;stroke-width:0.75px"/></g><g id="Layer_10" data-name="Layer 10"><polyline points="90.11 86.83 90.55 86.77 91.28 86.71 92.05 86.66 92.49 86.6 92.88 86.6 93.16 86.22 93.27 85.94 93.38 85.55 93.38 85.27 93.33 84.94 93.49 84.66 93.55 84.33 93.6 83.89 93.66 83.5 93.71 83.11 93.71 82.72 93.71 82.22 93.66 81.89 93.6 81.45 93.55 81.28 93.55 81.12 93.6 80.89 93.71 80.62 93.77 80.12 93.83 79.45 93.83 78.95 93.77 79.9 93.83 80.23 93.83 80.45 93.99 80.89 94.16 81.23 94.43 81.5 94.55 81.61 94.99 81.95 95.38 82.11 95.27 82.5 95.27 82.78 95.21 82.94 95.21 83.06 95.21 83.22 95.21 83.33 95.27 83.44 95.27 83.5 95.27 83.61 95.32 83.78 95.32 83.89 95.38 84.05 95.43 84.16 95.49 84.28 95.54 84.39 95.6 84.39 95.65 84.39 95.71 84.44 95.77 84.39 95.88 84.39 95.93 84.39 96.04 84.33 96.15 84.33 96.21 84.28 96.21 84.22 96.32 84.16 96.32 84.11 96.1 83.17 96.1 82.94 96.1 82.83 96.15 82.67 96.15 82.56 96.26 82.33 96.37 81.39 96.48 80.89 96.6 80.39 96.6 80.23 96.65 80.06 96.76 79.84 96.82 79.62 97.04 79.34 97.21 79.12 97.37 78.9 97.65 78.68 97.81 78.57 98.09 78.34 98.15 78.29 98.15 78.29 98.15 78.23 98.15 78.18 98.15 78.18 98.15 78.12 98.15 78.12 98.09 78.12 98.09 78.07 98.04 78.01 97.98 78.01 97.98 78.01 97.93 78.01 97.93 78.01 97.87 78.01 97.81 78.01 97.76 78.07 97.7 78.12 97.43 78.23 97.21 78.34 97.09 78.4 97.04 78.4 96.98 78.4 96.93 78.45 96.82 78.45 96.76 78.4 96.76 78.34 96.71 78.23 96.65 78.18 96.6 78.07 96.48 78.01 96.48 77.96 96.32 77.85 96.21 77.79 96.15 77.73 96.04 77.73 95.99 77.73 95.88 77.73 95.77 77.79 95.77 77.79 95.71 77.9 95.65 77.96 95.65 77.96 95.65 78.01 95.82 78.12 96.1 78.34 96.15 78.4 96.15 78.45 96.21 78.57 96.21 78.62 96.21 78.73 96.15 79.01 96.1 79.12 95.93 79.34 95.88 79.51 95.71 79.84 95.65 80.01 95.54 80.34 95.43 80.67 95.49 80.89 95.49 81.12 95.54 81.23 95.32 81.12 95.04 80.89 94.77 80.56 94.71 80.17 94.6 79.67 94.6 79.4 94.6 79.12 94.66 79.01 94.66 78.79 94.71 78.62 94.66 78.51 94.6 78.51 94.55 78.45 94.38 78.29 94.16 78.23 94.1 78.18 93.83 78.18 93.6 78.18 93.44 78.23 93.33 78.34 93.27 78.34 93.16 78.45 93.1 78.57 93.05 78.62 92.99 78.73 92.94 78.9 92.94 79.01 92.88 79.18 92.94 79.51 92.88 79.73 92.77 80.12 92.66 80.45 92.61 80.67 92.49 80.89 92.33 81.12 92 81.39 91.77 81.56 91.66 81.67 91.5 81.89 91.33 82.11 91.28 82.17 90.72 82.67 89.78 83.67 89.5 83.94 89.39 84.11 89.11 84.39 88.89 84.72 88.72 85.11 88.61 85.27 88.5 85.55 88.28 85.88 88.06 86.22 87.73 86.71 87.62 86.83 87.51 86.88 87.39 86.99 87.17 87.05 87.01 87.16 87.78 87.05 88.61 86.94 89.17 86.88 89.67 86.83 90.11 86.83" style="fill:#444;stroke:#bcba40;stroke-width:0.5px"/><path d="M90.11,86.82l.44,0,.67-.06.78,0,.44-.06h.44l.22-.38.11-.34.12-.39v-.33l-.06-.28.11-.33.11-.33.06-.44,0-.39.06-.39v-.83l-.06-.39,0-.39-.06-.16,0-.17,0-.17.11-.27.06-.5V79l-.06,1v.33l.06.22.16.39.17.33.28.33.11.11.44.34.39.16-.11.39v.33L95,83v.11l.06.17v.33l.05.17v.11l.06.16.06.11,0,.17.06.11h.11l.05.06.06-.06h.16l.12,0H96v-.06l.05,0,.06-.06v-.06l-.22-.94v-.5l.05-.11.11-.22.17-.94.11-.5.11-.55v-.17l.06-.17.11-.27.05-.23.17-.27.16-.22.23-.23.27-.22.17-.11.28-.22h0v-.17h0v-.05h0V78h-.11V78H97.7V78h0l-.06.06-.27.11-.23.11-.11,0h-.27l-.06,0H96.6l-.06-.11-.05-.06L96.43,78l-.11-.11-.06-.05-.11-.12-.11,0H96l-.11-.06-.12.06h-.05l-.11,0-.06.06-.05.11-.06.06h0V78l.22.11.23.22.05.06v.06l.06.05v.11l-.06.28-.05.17-.17.22-.06.16-.22.34V80l-.11.33,0,.34,0,.22v.22l.06.17-.23-.17-.27-.22-.22-.33-.11-.39-.12-.5v-.28l.06-.27V78.9l.06-.17v-.16l-.06-.17h-.06l-.05-.06-.22-.16-.22-.06h-.56l-.17.06-.11,0,0,.06-.11.11-.06.11,0,.06-.06.11,0,.16v.06l-.06.17.06.33-.06.22-.11.39-.11.27-.06.23-.11.22-.22.22-.28.28-.27.16-.06.11-.22.23-.17.22,0,.11-.5.44-.72,1.17-.28.27-.11.17-.22.33-.22.33-.17.34-.11.16-.11.28-.22.33-.22.34-.34.44-.11.11-.11,0-.11.12-.22,0-.17.06.78-.11.89-.12.55,0,.5-.06.33.11m11-1.77h0l.11-.11.06-.06h.5V85l-.06,0h0v.06l-.06,0h0v.06h-.06v0l0,.06-.06,0h-.16v-.22l-.17-.11m0,0h0l.11-.11.06-.06h.5V85l-.06,0h0v.06l-.06,0h0v.06h-.06v0l0,.06-.06,0h-.16v-.22l-.17-.11m-5.6-.72h0l.11.06h.23l.11-.06h.11l.11,0,.05-.06.06-.06h-.06v0h-.33l-.05,0h-.06l-.06.06h0l-.05.06v0l-.06.06-.11-.06h0m0,0h0l.11.06h.23l.11-.06h.11l.11,0,.05-.06.06-.06h-.06v0h-.33l-.05,0h-.06l-.06.06h0l-.05.06v0l-.06.06-.11-.06h0M95.71,78h0l.11-.06H96V78L96,78h0l-.06.06h-.22V78h0m0,0h0l.11-.06H96V78L96,78h0l-.06.06h-.22V78h0m2.27.27h0l-.11,0h0v-.06h-.05v-.05H98l0,.05h0v.06l.06,0h0v.06h0v0h-.06L98,78.23m0,0h0l-.11,0h0v-.06h-.05v-.05H98l0,.05h0v.06l.06,0h0v.06h0v0h-.06L98,78.23M85.51,90l-.83.06-.72.22-.67.28L83,90.7l-.94.39-.83.22-.89.12-.89.22-.83.33-.77.44-.56.39-.11.06h-.28l-.11-.06-.11-.11,0-.11.11-.78V90.7L76.48,89l-.23-1.22L76,86.33l-.39-1.5-.49-1.39-.23-1.38-.16-1.44V79.18l.11-1,.22-1,.33-1,.22-.56.67-1.22.78-1.1.72-1,.72-.66,1.11-.83.83-.56.94-.44,1.33-.55,1.61-.56.27-.11,1.06-.22,1.11-.11,1.16,0,1.77.11,2.22.23,2.61.44.6.17.67.11,1,.16,1.22.11.61.11.38.06.39.11.28.22.17.28v.28l-.11.27-.17.45-.11.22-.11.28-.11.22-.06.27-.11.45-.11.5-.11,1v1.39l.11.55.17.55.22.84.22,1.05.39,1.55.11.5,0,.5V82l0,.44-.11.33-.17.28-.22.28-.22.27-.34.34-.38.33-.45.28-.94.61-.66.38-.61.39-.72.45-.28.11-.22.11-.34,0-.33.06" style="fill:#444;stroke:#bcba40;stroke-width:0.5px"/><path d="M85.51,90l-.83.06-.72.22-.67.28L83,90.7l-.94.39-.83.22-.89.12-.89.22-.83.33-.77.44-.56.39-.11.06h-.28l-.11-.06-.11-.11,0-.11.11-.78V90.7L76.48,89l-.23-1.22L76,86.33l-.39-1.5-.49-1.39-.23-1.38-.16-1.44V79.18l.11-1,.22-1,.33-1,.22-.56.67-1.22.78-1.1.72-1,.72-.66,1.11-.83.83-.56.94-.44,1.33-.55,1.61-.56.27-.11,1.06-.22,1.11-.11,1.16,0,1.77.11,2.22.23,2.61.44.6.17.67.11,1,.16,1.22.11.61.11.38.06.39.11.28.22.17.28v.28l-.11.27-.17.45-.11.22-.11.28-.11.22-.06.27-.11.45-.11.5-.11,1v1.39l.11.55.17.55.22.84.22,1.05.39,1.55.11.5,0,.5V82l0,.44-.11.33-.17.28-.22.28-.22.27-.34.34-.38.33-.45.28-.94.61-.66.38-.61.39-.72.45-.28.11-.22.11-.34,0-.33.06m9.09-3-.22-.06-.17-.11-.16-.11-.11-.06-.17-.11-.11-.11-.11-.11-.11-.11-.11-.17-.17-.16-.17-.22-.11-.23-.11-.22-.11-.22,0-.22-.06-.22,0-.28-.06-.22-.06-.22,0-.23-.11-.33-.06-.28-.16-.33-.11-.33-.17-.33-.06-.34-.11-.33-.11-.33-.11-.33,0-.34-.06-.38,0-.34L99.7,76l-.06-.22v-1l0-.33v-.33l0-.34.06-.33.06-.33,0-.33.06-.23V72.3l0-.22.06-.22.11-.22.11-.22.11-.23.11-.22.11-.16.17-.23.11-.11.11-.11.11-.11.17-.11.16,0,.17-.06.17-.11.16-.06.28,0,.22-.06.22,0h.28l.22-.06h3.71l4.88.11.94.06,1,0,1,.12h.5l.28,0h.11l.11.06.11,0,0,.06.17,0,.06.06.11,0,0,.06.11,0,.06.11,0,.12v.11l.06.11,0,.11v.11l.06.17v.49l-.06.12,0,.22-.11.33-.11.28-.17.33-.11.22-.17.28-.22.33-.16.28-.23.27-.16.28-.22.28-.45.61-.39.55-.44.5-.33.5-.5.55-.22.17-.22.22-.23.22-.22.23-.22.22-.22.16-.28.17-.27.17-.45.27-.28.17-.55.28-1.5.66-1.55.56-.83.27-.89.28-.38.17-.56.11-.28.11-.33.11-.33.06-.56,0-.33.06-.22-.06m1.44,1.28-.22-.06-.17-.11-.16-.11-.11-.06-.17-.11-.11-.11-.11-.11-.11-.11-.11-.17-.17-.16-.17-.22-.11-.23-.11-.22-.11-.22,0-.22-.06-.22,0-.28-.06-.22-.06-.22,0-.23-.11-.33-.06-.28-.16-.33-.11-.33-.17-.33-.06-.34-.11-.33-.11-.33-.11-.33,0-.34-.06-.38,0-.34L99.7,76l-.06-.22v-1l0-.33v-.33l0-.34.06-.33.06-.33,0-.33.06-.23V72.3l0-.22.06-.22.11-.22.11-.22.11-.23.11-.22.11-.16.17-.23.11-.11.11-.11.11-.11.17-.11.16,0,.17-.06.17-.11.16-.06.28,0,.22-.06.22,0h.28l.22-.06h3.71l4.88.11.94.06,1,0,1,.12h.5l.28,0h.11l.11.06.11,0,0,.06.17,0,.06.06.11,0,0,.06.11,0,.06.11,0,.12v.11l.06.11,0,.11v.11l.06.17v.49l-.06.12,0,.22-.11.33-.11.28-.17.33-.11.22-.17.28-.22.33-.16.28-.23.27-.16.28-.22.28-.45.61-.39.55-.44.5-.33.5-.5.55-.22.17-.22.22-.23.22-.22.23-.22.22-.22.16-.28.17-.27.17-.45.27-.28.17-.55.28-1.5.66-1.55.56-.83.27-.89.28-.38.17-.56.11-.28.11-.33.11-.33.06-.56,0-.33.06-.22-.06m-2.22.83v.33l.06.17,0,.11.06.11.06.11,0,.11.11.12.06.11.11.11.27.27.34.23.11,0,.22.11m-1.5-1.94v.33l.06.17,0,.11.06.11.06.11,0,.11.11.12.06.11.11.11.27.27.34.23.11,0,.22.11m.94-.28h0l0,.12v.11h-.06l0,0-.06.06,0,0-.06.06-.11,0h-.06l-.11.06,0,0H101v0h0l0-.06v-.16l0-.06.06,0,.06-.06h0l0,0,.11-.06h.06l0,0,.11-.06h.39l.11,0h0m0,0h0l0,.12v.11h-.06l0,0-.06.06,0,0-.06.06-.11,0h-.06l-.11.06,0,0H101v0h0l0-.06v-.16l0-.06.06,0,.06-.06h0l0,0,.11-.06h.06l0,0,.11-.06h.39l.11,0h0m-1.44-2.77h0m0,0h0m-.11.23h0m0,0h0m-.06.16h0m0,0h0m0,.17h0m0,0h0m.06.16v.11m0-.11v.11m.11.12.06.11m-.06-.11.06.11m0,.11h0m0,0h0m.16.16h0m0,0h0m.06.23h0m0,0h0m.11.16h0m0,0h0M101,84h0m0,0h0m.11.22h0m0,0h0m.17.17h0m0,0h0m.16.16h0m0,0h0m1.5-.44h-.17l0,0h-.06l-.11.06,0,.06-.06,0-.11.06-.06,0h0l-.06.06,0,0-.06.06v.22m.89-.72h-.17l0,0h-.06l-.11.06,0,.06-.06,0-.11.06-.06,0h0l-.06.06,0,0-.06.06v.22m-9.75,2.88.16,0,.17-.06.22-.11.22-.11.28-.17.11,0,.06-.06,0,0,.06-.06.16-.17.12,0,.11-.11.16-.17.11-.11m-2,1.33.16,0,.17-.06.22-.11.22-.11.28-.17.11,0,.06-.06,0,0,.06-.06.16-.17.12,0,.11-.11.16-.17.11-.11m21.56-16.07-.16-.06-.39,0-.44-.11-.45-.06-.55,0-.5-.06-.5-.06h-.61l-.94,0H110l-1.16-.06-1.17,0-.66-.06h-2.17l-.94.06-.55,0-.5.06-.39,0-.33.06L102,70l-.16,0-.17.06-.11,0-.22.17-.06,0-.11.17-.11.11-.11.22-.17.33-.11.34,0,.16M88.73,68.48H87l-.89,0" style="fill:#1c1c1c;stroke:#bcba40;stroke-width:0.5px"/><path d="M88.73,68.48H87l-.89,0m3,0,.83.06m-.83-.06.83.06m.28,0,.72,0m-.72,0,.72,0m-4.55.28h-.66l-.83.06-.89.11m2.38-.17h-.66l-.83.06-.89.11m2.77-.17h.83l.78.06m-1.61-.06h.83l.78.06m.27,0,.78,0m-.78,0,.78,0m-4.1.45H84.4l-.88,0-1.28.17m3.05-.22H84.4l-.88,0-1.28.17m3.38-.22h1.5m-1.5,0h1.5m.28,0h.49l.67,0m-1.16,0h.49l.67,0m-4.88.61h-.61l-.72.06-.61,0-.77.11m2.71-.22h-.61l-.72.06-.61,0-.77.11m3.21-.22.94,0,.78,0m-1.72,0,.94,0,.78,0m.5,0h1.22m-1.22,0h1.22m-4.16.56-.61,0-.66.06-.67,0-.72.06-.94.16m3.6-.38-.61,0-.66.06-.67,0-.72.06-.94.16M84,70.7l.78-.06.83.06M84,70.7l.78-.06.83.06m.5,0H87m-.83,0H87m-4.21.61H82l-.77.06-.72.11-.72.11-.72.11m3.71-.39H82l-.77.06-.72.11-.72.11-.72.11m4.32-.44H85m-1.66,0H85m.56,0H86l.39,0m-.83,0H86l.39,0M81.69,72,80.8,72l-.83.11-1.06.27-.83.23M81.69,72,80.8,72l-.83.11-1.06.27-.83.23m4.27-.72h.89l.77-.06m-1.66.06h.89l.77-.06m.45.06H85l.56,0m-1.11,0H85l.56,0m-3.94.5-.78,0-.55.06-.55.06-.61.16-.61.17-.5.16-.39.17m4-.83-.78,0-.55.06-.55.06-.61.16-.61.17-.5.16-.39.17m4.43-.83h1.11m-1.11,0h1.11m.45,0,1.05.06m-1.05-.06,1.05.06m-4,.67-.89.11-.83.11-.72.22-.72.17-.61.22m3.77-.83-.89.11-.83.11-.72.22-.72.17-.61.22m4.32-1h.67l.72.06m-1.39-.06h.67l.72.06m.61,0h.83m-.83,0h.83m-3.71.61-.84.06-.83.22-.66.11-.67.22-.83.28m3.83-.89-.84.06-.83.22-.66.11-.67.22-.83.28m4.27-1,.72,0,.72,0m-1.44,0,.72,0,.72,0m.44,0h.61m-.61,0h.61m-4,.78-.55.11-.61.11-.44.06-.5.16-.39.11-.39.17m2.88-.72-.55.11-.61.11-.44.06-.5.16-.39.11-.39.17m3.44-.78.94-.16.94-.06m-1.88.22.94-.16.94-.06m.5.06.72,0m-.72,0,.72,0m-3.71.72-.61.12-.5.11-.56.11-.49.16-.5.17-.5.17L76,76m3.22-.89-.61.12-.5.11-.56.11-.49.16-.5.17-.5.17L76,76m3.83-1,.88-.11h.72m-1.6.11.88-.11h.72m.34,0,.72.06m-.72-.06.72.06m-2.33.72-.67.05-.61.11-.6.12-.56.11-.55.16-.56.17-.55.22-.45.17m4.55-1.11-.67.05-.61.11-.6.12-.56.11-.55.16-.56.17-.55.22-.45.17m4.94-1.17.77,0,.72-.06m-1.49.11.77,0,.72-.06m-2.77.89-.61.11-.55.11-.5.11L76.7,77l-.61.23-.5.27m3.71-1.16-.61.11-.55.11-.5.11L76.7,77l-.61.23-.5.27m4.32-1.27.83-.11h1m-1.78.11.83-.11h1m-2.55.72-.23.05-.27.06-.61.17-.67.22-.61.22-.55.22-.39.17-.33.16m3.66-1.27-.23.05-.27.06-.61.17-.67.22-.61.22-.55.22-.39.17-.33.16m4-1.38.56-.06.5-.05m-1.06.11.56-.06.5-.05m.33,0h.55m-.55,0h.55m-1.71.61-.61.16-.56.11-.55.17-.5.17-.5.22-.89.33-.77.33m4.38-1.49-.61.16-.56.11-.55.17-.5.17-.5.22-.89.33-.77.33m4.76-1.49.5-.06h.5m-1,.06.5-.06h.5m-2.49,1-.72.22-.78.28-.66.22-.5.17-.61.27m3.27-1.16-.72.22-.78.28-.66.22-.5.17-.61.27m3.71-1.27.56-.17.49-.11m-1,.28.56-.17.49-.11m.34-.06.5,0m-.5,0,.5,0m-2.06,1.11-.66.16-.78.28-.66.22-.67.28-.61.28-.27.11m3.65-1.33-.66.16-.78.28-.66.22-.67.28-.61.28-.27.11m3.93-1.5.67-.16.66-.12m-1.33.28.67-.16.66-.12m-1.77,1.11-.56.17-.72.28-.5.16-.55.22-.61.23-.5.22m3.44-1.28-.56.17-.72.28-.5.16-.55.22-.61.23-.5.22m3.77-1.33.39-.17.39-.11.61-.05m-1.39.33.39-.17.39-.11.61-.05m-3.33,1.55-.44.16-.33.11-.34.17-.27.11-.45.22m1.83-.77-.44.16-.33.11-.34.17-.27.11-.45.22m2.16-.88.5-.17.45-.17m-1,.34.5-.17.45-.17m.27-.16.61-.17.83-.22M78.69,80l.61-.17.83-.22m-2.88,1.61-.44.22-.67.28-.55.27m1.66-.77-.44.22-.67.28-.55.27m1.94-.88.5-.23.55-.22.5-.16.5-.17m-2,.78.5-.23.55-.22.5-.16.5-.17M78.19,81.5l-.61.23-.72.33-1.27.66m2.6-1.22-.61.23-.72.33-1.27.66m2.94-1.33.66-.22.56-.16.33-.12m-1.55.5.66-.22.56-.16.33-.12m-2,1.33-.72.34-.94.44-.78.44m2.44-1.22-.72.34-.94.44-.78.44m2.72-1.33.67-.22.83-.28m-1.5.5.67-.22.83-.28m-1.55,1.22-.56.23-.72.33-.61.33-.55.33m2.44-1.22-.56.23-.72.33-.61.33-.55.33M80,82.17l-.66.28-.67.22m1.33-.5-.66.28-.67.22m-.16.66-1,.45-.66.38-.55.34-.23.16m2.39-1.33-1,.45-.66.38-.55.34-.23.16m2.72-1.44.55-.22.61-.22m-1.16.44.55-.22.61-.22M78.53,84l-1,.44-.66.39-.67.44M78.53,84l-1,.44-.66.39-.67.44m2.55-1.44.56-.22.55-.22m-1.11.44.56-.22.55-.22m-1.22,1-.38.22-.61.39-.5.33-.78.5m2.27-1.44-.38.22-.61.39-.5.33-.78.5M79,84.33l.39-.22.5-.17m-.89.39.39-.22.5-.17m-1,1.06-.6.38-.78.45-.94.61M78.91,85l-.6.38-.78.45-.94.61m2.6-1.61.33-.17.39-.16m-.72.33.33-.17.39-.16m-.83,1-.89.5-.83.5-.77.5m2.49-1.5-.89.5-.83.5-.77.5m2.66-1.67.44-.22.39-.16m-.83.38.44-.22.39-.16m-1.22,1.33-.61.38-.44.28-.45.28-.66.44m2.16-1.38-.61.38-.44.28-.45.28-.66.44M79,86.82l-.61.39-.84.61-.77.56M79,86.82l-.61.39-.84.61-.77.56m1.88-.61-.55.39-.56.38-.66.45m1.77-1.22-.55.39-.56.38-.66.45m1.88-.67-.49.33-.61.45-.67.44m1.77-1.22-.49.33-.61.45-.67.44M78.86,89l-.5.38-.61.39-.55.39M78.86,89l-.5.38-.61.39-.55.39m1.88-4,.44-.28.45-.27m-.89.55.44-.28.45-.27m-.83,2.49.44-.33.39-.34m-.83.67.44-.33.39-.34M79,88.76l.61-.38m-.61.38.61-.38m0-8,.39-.11m-.39.11.39-.11m-.89,6.48.39-.33.39-.22m-.78.55.39-.33.39-.22M79,87.49l.49-.39.45-.33m-.94.72.49-.39.45-.33m-.11,1.44.27-.28m-.27.28.27-.28m30.93-8.64-.16-.06m.16.06-.16-.06m-.11.22-.17,0m.17,0-.17,0m-8.7,2.82h0l0,.12.06,0v.06l0,0h.06l0,.06h.11m-.38-.34h0l0,.12.06,0v.06l0,0h.06l0,.06h.11m.06-.28h0l.11.11.06.06h0l.11,0,.11.06.06,0h0m-.55-.33h0l.11.11.06.06h0l.11,0,.11.06.06,0h0m-.11-.44h0l.11,0,.06.06.11.06h.06l.11,0h0m-.45-.22h0l.11,0,.06.06.11.06h.06l.11,0h0m.11-.28.11.11.11.12m-.22-.23.11.11.11.12m.11-.23.22.11m-.22-.11.22.11m.33-.11-.27-.22m.27.22-.27-.22m.55,0,.28.11m-.28-.11.28.11m.22-.17.22.11m-.22-.11.22.11m.17-.28.22.12m-.22-.12.22.12m.28-.28.22.11m-.22-.11.22.11m.11-.17h.28m-.28,0h.28m0-.16.28.11m-.28-.11.28.11m.11-.22.11.16m-.11-.16.11.16m.17-.27.22,0" style="fill:#444;stroke:#bcba40;stroke-width:0.5px"/><path d="M107.24,81l.22,0m.66-.28h-.38m.38,0h-.38m2.38-.94H110m.17,0H110m-.11.17h-.16m.16,0h-.16m-.17.16h-.17m.17,0h-.17m0,.11h-.17m.17,0h-.17m-.11.12h-.16m.16,0h-.16m-.12.11h-.16m.16,0h-.16m-.06,0h-.16m.16,0h-.16m1.94-.83h-.17m.17,0h-.17M95.54,84.39h0v-.17l.06-.06v0l.05-.06h0l.06,0h.05l.06-.06h.28l.05.06h0l.06,0h0m-.67.34h0v-.17l.06-.06v0l.05-.06h0l.06,0h.05l.06-.06h.28l.05.06h0l.06,0h0m0-6.32h0v.17h0l-.06.06H96.1L96,78h-.23m.45-.28h0v.17h0l-.06.06H96.1L96,78h-.23m2.06,0h0v.11h.05l.06.06h.16M97.82,78h0v.11h.05l.06.06h.16m-2,7.2-.16,0m.16,0-.16,0m0,.16-.23,0m.23,0-.23,0m0,.22-.16,0m.16,0-.16,0m-.06.22-.22-.11m.22.11-.22-.11m-1.88.77.44.22m-.44-.22.44.22m-.22-.33.39.22m-.39-.22.39.22m-.28-.38.44.27m-.44-.27.44.27m0-.44.38.22m-.38-.22.38.22M94.32,86l.45.23M94.32,86l.45.23m-.11-.28.33.16m-.33-.16.33.16m0-.27.28.16M95,85.83l.28.16M83.4,90.1h-.33m.33,0h-.33m.17.16H83m.28,0H83m-.72.44h-.33m.33,0h-.33m.61,0h-.28m.28,0h-.28m.44-.17h-.27m.27,0h-.27m-.89.39h-.33m.33,0h-.33m0,.11h-.28m.28,0h-.28m-.17.06h-.27m.27,0h-.27m-.89.33H79.3m.28,0H79.3m0,.17H79m.27,0H79m0,.22h-.28m.28,0h-.28m-1.33-.39-.11-.22m.11.22-.11-.22m-.11.5-.06-.17m.06.17-.06-.17m6-1.11h-.28m.28,0h-.28M80,91.26h-.27m.27,0h-.27m-2-.33,0-.17m0,.17,0-.17m.61-.06-.12-.16m.12.16-.12-.16m1-.22,0-.17m0,.17,0-.17m.44,0L79.52,90m.06.17L79.52,90m.39,0,0-.22m0,.22,0-.22m.27,0,0-.17m0,.17,0-.17m.33.06-.11-.23m.11.23-.11-.23m.44,0,0-.22m0,.22,0-.22m.33,0-.11-.22m.11.22-.11-.22m.89-.05-.11-.23m.11.23-.11-.23m.5.17-.12-.22m.12.22-.12-.22m.45.11-.11-.11-.06-.17m.17.28-.11-.11-.06-.17m.5.22-.11-.16-.06-.17m.17.33-.11-.16-.06-.17m.39.22,0-.11L83,88.27m.11.27,0-.11L83,88.27m.44.16-.11-.11-.05-.11m.16.22-.11-.11-.05-.11m.5.06L83.63,88m.11.23L83.63,88m.49.17h0L84,88m.11.22h0L84,88m.39.05h0l-.11-.22m.11.22h0l-.11-.22m.44.17,0-.11-.06-.11m.11.22,0-.11-.06-.11m.5.11-.05-.11L85,87.66m.16.22-.05-.11L85,87.66m.38,0-.11-.28m.11.28-.11-.28m.39.23-.16-.28m.16.28-.16-.28m.33.05-.11-.16m.11.16-.11-.16m.33.11L86,87.27m.06.11L86,87.27m.23,0-.06-.11m.06.11-.06-.11m.28.06-.06-.11m.06.11-.06-.11m.28,0-.06-.11m.06.11-.06-.11m.28.11,0-.11m0,.11,0-.11m5.93-.39.11.11.11.12.44.22m-.66-.45.11.11.11.12.44.22m-1-.45.23.23.11.11.16.11.28.11m-.78-.56.23.23.11.11.16.11.28.11m-7.32.28.11.16.06.22m-.17-.38.11.16.06.22m-3.77,1,.06.11.11.11,0,.11.11.11.11.12.11.11.17.11.11.11.17.11.16,0,.06.06m-1.22-1.11.06.11.11.11,0,.11.11.11.11.12.11.11.17.11.11.11.17.11.16,0,.06.06m-.89-1.28.17.28.17.17.16.16.11.12.11.11.17.11.11.11.22.11.28.11m-1.5-1.28.17.28.17.17.16.16.11.12.11.11.17.11.11.11.22.11.28.11m-.22-1.66h0l.16.16.11.06.12.11.22.11.22.06m-.83-.5h0l.16.16.11.06.12.11.22.11.22.06m-.5-.56.11.11.11.11.17.06.22.11m-.61-.39.11.11.11.11.17.06.22.11m-.33-.55.11,0,.11.11.33.11m-.55-.27.11,0,.11.11.33.11M84.79,88l.17.17.22.11M84.79,88l.17.17.22.11m-.06-.39.11.11.23.12m-.34-.23.11.11.23.12m.16-.17-.16-.06-.12-.16m.28.22-.16-.06-.12-.16m.34-.06,0,.17.06.11m-.11-.28,0,.17.06.11M99.7,70.75l-.17-.11-.11-.11-.11-.06-.11,0L99,70.36h-.11l-.11,0m.89.44-.17-.11-.11-.11-.11-.06-.11,0L99,70.36h-.11l-.11,0m.78.77-.22-.16-.17-.06-.17,0-.22-.11-.27-.06m1,.44-.22-.16-.17-.06-.17,0-.22-.11-.27-.06m.88.72-.11-.11,0-.11L99.15,71,99,71h-.16l-.11,0-.17-.06-.17,0m1,.55-.11-.11,0-.11L99.15,71,99,71h-.16l-.11,0-.17-.06-.17,0m1,.94-.11-.11-.11-.11L99,71.42l-.11-.11-.22-.12-.11,0-.12-.06m1,.67-.11-.11-.11-.11L99,71.42l-.11-.11-.22-.12-.11,0-.12-.06m.78,1L99,72l-.11-.11-.16-.11-.17-.11m.61.44L99,72l-.11-.11-.16-.11-.17-.11m.5.77L99,72.3l-.06,0-.16-.11L98.59,72m.5.38L99,72.3l-.06,0-.16-.11L98.59,72m.5.77L99,72.69l-.11,0-.17-.12-.16,0-.12-.11m.67.44L99,72.69l-.11,0-.17-.12-.16,0-.12-.11m.5.66h0l-.11-.16-.11-.06,0,0-.06-.06-.17,0m.5.38h0l-.11-.16-.11-.06,0,0-.06-.06-.17,0m.5.72-.16-.11-.06-.12h-.11L98.42,73m.5.39-.16-.11-.06-.12h-.11L98.42,73m.5.66-.16-.16-.17-.11-.11-.11m.44.38-.16-.16-.17-.11-.11-.11m.39.61-.11-.12-.11,0-.17-.17m.39.34-.11-.12-.11,0-.17-.17m1.28-3.1-.12-.11-.11-.06-.16,0-.11-.06-.23,0h-.16m.89.33-.12-.11-.11-.06-.16,0-.11-.06-.23,0h-.16" style="fill:#444;stroke:#bcba40;stroke-width:0.5px"/><path d="M101.81,73.3h-.28l-.28.11-.33.11-.33.11L100,74m1.55,0-.28.06-.33.11-.22,0-.39.22-.33.17m1.55-.61-.28.06-.33.11-.22,0-.39.22-.33.17m1.33,0-.28.06-.33.11-.28.11-.22.11-.33.22,0,0m1.39-.56-.28.06-.33.11-.28.11-.22.11-.33.22,0,0m1.5-.06-.22.06-.28.11-.28.11-.39.22-.27.16m1.44-.66-.22.06-.28.11-.28.11-.39.22-.27.16m1.22-.16-.34.11-.27.17-.11,0-.23.17-.16.16m1.11-.66-.34.11-.27.17-.11,0-.23.17-.16.16m1.16-.27-.33.16-.22.17-.22.11-.17.17-.17.11h.06m1-.72-.33.16-.22.17-.22.11-.17.17-.17.11h.06m1.11-.28-.22.17-.17.11-.17.11-.33.28m.89-.67-.22.17-.17.11-.17.11-.33.28m.83,0-.22.16-.11.06-.22.22m.55-.44-.22.16-.11.06-.22.22m.55,0-.22.22-.11.17-.11.11m.44-.5-.22.22-.11.17-.11.11m.55-.06-.16.17-.11.11-.12.11m.39-.39-.16.17-.11.11-.12.11m.45.06-.17.16-.11.11m.28-.27-.17.16-.11.11m.44.22-.16.23-.11,0m.27-.28-.16.23-.11,0m.33.28-.17.22-.11.17m.28-.39-.17.22-.11.17m.28.22-.17.22-.11.17m.28-.39-.17.22-.11.17M93,86.71l.39.23M93,86.71l.39.23m-.22-.28.39.22m-.39-.22.39.22M81.46,89l0-.22m0,.22,0-.22m-1,2.33h-.28m.28,0h-.28m1.77-.39h-.33m.33,0h-.33m-2.72-.33-.11-.22m.11.22-.11-.22" style="fill:#444;stroke:#bcba40;stroke-width:0.5px"/><polygon points="90.44 88.16 90.39 88.16 90.33 88.16 90.28 88.16 90.28 88.16 90.28 88.21 90.33 88.21 90.39 88.21 90.44 88.16" style="fill:#444;stroke:#bcba40;stroke-width:0.5px"/><polygon points="90.83 88.21 90.78 88.16 90.72 88.16 90.78 88.21 90.83 88.21" style="fill:#444;stroke:#bcba40;stroke-width:0.5px"/><polygon points="91.28 88.21 91.22 88.21 91.16 88.16 91.16 88.21 91.11 88.21 91.16 88.21 91.16 88.27 91.22 88.21 91.28 88.21" style="fill:#444;stroke:#bcba40;stroke-width:0.5px"/><polygon points="89.39 88.1 89.33 88.1 89.28 88.1 89.33 88.16 89.39 88.1" style="fill:#444;stroke:#bcba40;stroke-width:0.5px"/><polygon points="89.67 88.16 89.61 88.1 89.56 88.16 89.61 88.16 89.67 88.16" style="fill:#444;stroke:#bcba40;stroke-width:0.5px"/><polygon points="90 87.99 89.94 87.99 89.89 87.99 89.94 87.99 90 87.99" style="fill:#444;stroke:#bcba40;stroke-width:0.5px"/><polygon points="89.11 88.1 89.11 88.1 89.06 88.1 89 88.1 88.95 88.1 89 88.16 89.06 88.16 89.11 88.16 89.11 88.1" style="fill:#444;stroke:#bcba40;stroke-width:0.5px"/><polygon points="89 87.77 88.95 87.77 88.84 87.77 88.95 87.77 89 87.77" style="fill:#444;stroke:#bcba40;stroke-width:0.5px"/><polygon points="88.45 88.1 88.39 88.04 88.28 88.1 88.39 88.1 88.45 88.1" style="fill:#444;stroke:#bcba40;stroke-width:0.5px"/><polygon points="88.78 88.32 88.72 88.27 88.67 88.32 88.72 88.38 88.78 88.32" style="fill:#444;stroke:#bcba40;stroke-width:0.5px"/><polygon points="88 87.77 87.95 87.77 87.89 87.77 87.95 87.82 88 87.77" style="fill:#444;stroke:#bcba40;stroke-width:0.5px"/><polygon points="88 88.21 87.95 88.21 87.84 88.21 87.95 88.21 88 88.21" style="fill:#444;stroke:#bcba40;stroke-width:0.5px"/><polygon points="88.56 87.66 88.56 87.66 88.5 87.66 88.45 87.66 88.39 87.66 88.45 87.71 88.5 87.71 88.56 87.71 88.56 87.66" style="fill:#444;stroke:#bcba40;stroke-width:0.5px"/><polygon points="89.45 87.71 89.33 87.66 89.28 87.71 89.33 87.71 89.45 87.71" style="fill:#444;stroke:#bcba40;stroke-width:0.5px"/><polygon points="90.44 87.71 90.39 87.71 90.39 87.66 90.33 87.71 90.28 87.71 90.33 87.71 90.39 87.77 90.39 87.77 90.44 87.71" style="fill:#444;stroke:#bcba40;stroke-width:0.5px"/><polygon points="90.06 87.6 90 87.55 89.94 87.6 90 87.6 90.06 87.6" style="fill:#444;stroke:#bcba40;stroke-width:0.5px"/><polygon points="89.72 87.71 89.67 87.71 89.61 87.71 89.67 87.71 89.72 87.71" style="fill:#444;stroke:#bcba40;stroke-width:0.5px"/><polygon points="87.56 87.88 87.56 87.88 87.45 87.88 87.51 87.93 87.56 87.88" style="fill:#444;stroke:#bcba40;stroke-width:0.5px"/><polygon points="86.9 88.04 86.84 87.99 86.73 87.99 86.78 88.04 86.9 88.04" style="fill:#444;stroke:#bcba40;stroke-width:0.5px"/><polygon points="86.34 88.16 86.29 88.1 86.18 88.16 86.29 88.16 86.34 88.16" style="fill:#444;stroke:#bcba40;stroke-width:0.5px"/><polygon points="87.34 87.88 87.28 87.88 87.23 87.88 87.23 87.88 87.17 87.88 87.23 87.93 87.23 87.93 87.28 87.93 87.34 87.88" style="fill:#444;stroke:#bcba40;stroke-width:0.5px"/><polygon points="90.67 87.77 90.61 87.71 90.55 87.77 90.61 87.77 90.67 87.77" style="fill:#444;stroke:#bcba40;stroke-width:0.5px"/><polygon points="91 87.77 90.94 87.77 90.83 87.77 90.94 87.77 91 87.77" style="fill:#444;stroke:#bcba40;stroke-width:0.5px"/><polygon points="91.5 87.93 91.44 87.88 91.39 87.93 91.44 87.99 91.5 87.93" style="fill:#444;stroke:#bcba40;stroke-width:0.5px"/><polygon points="91.83 88.04 91.77 88.04 91.72 88.04 91.77 88.1 91.83 88.04" style="fill:#444;stroke:#bcba40;stroke-width:0.5px"/><polygon points="91.61 88.38 91.5 88.38 91.44 88.38 91.5 88.38 91.61 88.38" style="fill:#444;stroke:#bcba40;stroke-width:0.5px"/><polyline points="85.57 89.98 85.34 89.93 85.18 89.87 85.07 89.82 84.96 89.71 84.85 89.6 84.79 89.54 84.73 89.37 84.68 89.21 84.68 89.1 84.73 88.93 84.85 88.71 84.96 88.54 85.18 88.38 85.57 88.16 85.9 87.99 86.34 87.88 86.73 87.71 87.17 87.6 87.56 87.49 88.06 87.38 88.45 87.38 88.84 87.32 89.22 87.32 89.45 87.32 89.83 87.32 90 87.32 90.33 87.38 90.55 87.44 90.78 87.49 91.22 87.6 91.44 87.66 91.66 87.71 91.89 87.77 92 87.82 92.22 87.93 92.16 88.1 91.94 88.38 91.72 88.6 91.66 88.65 91.44 88.82 90.94 89.1 90.78 89.21 90.44 89.37 90.11 89.54 89.56 89.71 89.11 89.87 88.84 89.93 88.67 89.98 88.28 89.98 88 90.04 87.56 90.09 87.28 90.09 87.01 90.09 86.4 90.09 86.01 90.04 85.84 90.04 85.57 89.98" style="fill:#444;stroke:#bcba40;stroke-width:0.5px"/><polyline points="85.57 89.98 85.34 89.93 85.18 89.87 85.07 89.82 84.96 89.71 84.85 89.6 84.79 89.54 84.73 89.37 84.68 89.21 84.68 89.1 84.73 88.93 84.85 88.71 84.96 88.54 85.18 88.38 85.57 88.16 85.9 87.99 86.34 87.88 86.73 87.71 87.17 87.6 87.56 87.49 88.06 87.38 88.45 87.38 88.84 87.32 89.22 87.32 89.45 87.32 89.83 87.32 90 87.32 90.33 87.38 90.55 87.44 90.78 87.49 91.22 87.6 91.44 87.66 91.66 87.71 91.89 87.77 92 87.82 92.22 87.93 92.16 88.1 91.94 88.38 91.72 88.6 91.66 88.65 91.44 88.82 90.94 89.1 90.78 89.21 90.44 89.37 90.11 89.54 89.56 89.71 89.11 89.87 88.84 89.93 88.67 89.98 88.28 89.98 88 90.04 87.56 90.09 87.28 90.09 87.01 90.09 86.4 90.09 86.01 90.04 85.84 90.04 85.57 89.98" style="fill:#444;stroke:#bcba40;stroke-width:0.5px"/><polyline points="103.19 85.16 103.08 85.11 102.75 85 102.47 84.83 102.31 84.66 102.03 84.44 101.86 84.28 101.58 83.94 101.47 83.83 101.42 83.67 101.36 83.56 101.2 83.28 101.14 83 101.03 82.72 100.97 82.5 100.86 82.22 100.86 82.06 100.86 81.89 100.86 81.78 100.81 81.5 100.7 81.28 100.59 81 100.53 80.78 100.42 80.51 100.25 80.01 100.2 79.73 100.09 79.45 100.03 79.12 99.98 78.84 99.87 78.57 99.87 78.29 99.75 78.07 99.7 77.79 99.64 77.46 99.64 77.24 99.59 76.79 99.53 76.46 99.53 76.18 99.53 75.91 99.53 75.74 99.53 75.52 99.53 75.24 99.53 75.02 99.59 74.74 99.64 74.52 99.64 74.35 99.7 74.13 99.7 73.97 99.75 73.63 99.81 73.52 99.87 73.19 99.98 72.97 99.98 72.8 100.09 72.69 100.14 72.58 100.2 72.47 100.25 72.3 100.31 72.19 100.36 71.97 100.48 71.8 100.59 71.58 100.75 71.31 100.81 71.14 100.86 71.03 100.97 70.81 101.03 70.64 101.03 70.47 101.03 70.42 100.97 70.31 100.86 70.14 100.7 70.03 100.53 69.92 100.36 69.86 100.03 69.75 99.92 69.75 99.64 69.7 99.42 69.7 98.65 69.64 98.09 69.64 97.26 69.59 96.21 69.48 95.27 69.31 94.6 69.25 93.99 69.14 93.33 69.03 92.66 68.87 92.33 68.81 91.83 68.64 91.5 68.64 91.22 68.59 90.94 68.53 90.67 68.48 90.39 68.42 90.11 68.42 89.78 68.42 89.39 68.37 88.89 68.37 88.5 68.37 88.17 68.37 87.84 68.37 87.51 68.37 87.12 68.37 86.51 68.42 86.12 68.42 85.84 68.48 85.51 68.48 85.18 68.48 84.51 68.59 84.24 68.64 83.9 68.7 83.52 68.76 83.18 68.87 82.8 68.98 82.41 69.03 82.02 69.2 81.69 69.31 81.35 69.42 80.91 69.59 80.36 69.81 79.97 70.09 79.58 70.31 79.41 70.42 79.14 70.58 78.97 70.75 78.75 70.92 78.64 70.97 78.36 71.31 78.08 71.58 77.81 71.86 77.58 72.08 77.25 72.69 77.14 72.91 76.97 73.19 76.81 73.41 76.64 73.63 76.31 74.24 76.09 74.74 75.87 75.13 75.81 75.3 75.7 75.52 75.64 75.74 75.53 76.02 75.48 76.18 75.42 76.41 75.31 76.57 75.26 76.74 75.2 76.96 75.15 77.13 75.09 77.35 75.09 77.51 75.03 77.73 75.03 77.9 74.98 78.12 75.03 78.12" style="fill:#1c1c1c;stroke:#bcba40;stroke-width:0.5px"/></g><g id="Layer_8" data-name="Layer 8"><path d="M129.19,86.55c-.95,1.27.16,3.66-.34,5.1-.22.66-.66.66-1,1.44.11.83.83,1.11,1,2,.23,1.33-.88,2.22-.83,3.21.06.61.72,1,.72,1.56.06.72-.77,1.21-.83,2,0,.61.67,1.27.67,1.83s-.45.88-.67,1.33a27.38,27.38,0,0,0-.66,3.76,31.25,31.25,0,0,1-.89,3.61c-.72,2.1-2.61,6.81-4.43,4.65a4,4,0,0,1-4.44.67c-2.1,1.22-5.87.5-5.1-2.72-.16-.22-1-.11-.83-.5.06-.61.89.11,1.33,0-.89,2.89,1.72,3.77,3.77,3,.06-.5-.89-.34-.39-.78.22-.39.61.33,1.06.39s.61-.33,1-.22c.17.33,0,.27,0,.55,1.72.5,3-.61,3.88-1.16.33.22.16.83.72.88.72.06,1.38-1.38,1.83-2.1a14.93,14.93,0,0,0,1.22-2.83c1.16-3.27,1.11-6.32,2.27-8.53a3.31,3.31,0,0,1,.17-3.88c-.06-.5-.67-.89-.73-1.45-.11-.77.84-1.82.84-2.82s-1-1.89-1-2.5c0-1,.89-1.27,1.05-1.94.17-1.11-.28-1.94-.22-3,.06-.89.55-1.55.5-2.22s-.5-1-.83-1.55c0-.5.44-.44.39-.94-.12-.89-.89-1.22-.89-2.22,0-.61.55-1.16.66-1.72a4.42,4.42,0,0,0-1-3.88c.44-1.1.89-1.33.72-2.88-.17-2.1-1.72-4.43-4.1-4.43-1,0-2,.88-2.88.94-.39.06-.83-.22-1.17-.17-.88.11-1.44,1.56-2.21,1.72-.61.17-1.11-.16-1.56,0-1.1.45-1.27,1.78-1.82,2.61-.34.11-.5,0-.84-.11-.88.16-1.33,1.71-2.21,2s-2.16-.17-3.22.27c-.39.17-.72.67-1.05.78s-1.28-.06-2,0a12.29,12.29,0,0,1-2.21.28c-.23-.06-.5-.28-.72-.28a2.88,2.88,0,0,0-2.44,1.16c-.28-.55.27-.94.16-1.66-.22-1.55-3.1-1.88-3.93-1.16-.83-1.11-1.55-3.22-3.22-3.11-.61.06-.94.67-1.38.39-.11-.55.77-.72,1.33-.89-1.5-2-5.6-.66-6.32,1.28a4.19,4.19,0,0,1,1.16-.11c1.39,0,3.16.94,3.38,2-.55-.11-1-.67-1.55-.94-2-1.11-5.1-.39-5.93,1.83-.39,1,.11,3.1-.33,4.65-.11.39-.61,1-.55,1.33,0,.72,1.16,1,1.21,1.72s-.72,1.55-.55,2.61c.06.44.5,1,.5,1.33,0,.55-.78,1.27-.83,2.1-.06,1,.61,2.22.55,3.11,0,.61-.55,1.22-.55,1.71-.06.78.61,1.33.66,2a4.93,4.93,0,0,0-1.33,3.66c0,1.5.61,2.22.83,3.22a14.84,14.84,0,0,1,.06,2.21c.05.17.05.39.11.56l.11.22c.5,1.94,1.66,2.66,2.72,2.49h0a1.56,1.56,0,0,0,.5-.11c1,.11,1.1,1.72,1.1,2.61,0,1.16.61,1,.78,0a4.8,4.8,0,0,0-.89-3.27,2.39,2.39,0,0,0,.67-.94,1.2,1.2,0,0,0,.61,0l.11-.28a10.29,10.29,0,0,0,0-2.22c-.33-2.49-2.11-4.32-2.72-6.59s.83-4.66.67-7c-.06-.72-.33-1.33-.39-2.05-.39-3.61,1.55-6.49.89-10.53-.34-.5-1.11-.5-1.33-1.17.27-.39.88.33,1.22.5.11-.05-.23-1.16.22-1.05s.28.94.39,1.44c.94,1.11,2.16,1.33,3.27,2.33.83.72,2,2.49,2.88,2.88,1,.5,2.22-.11,3.21.5.28.16.45.72.72.88,1.78,1.06,3.55-.16,5.6-.16a1.13,1.13,0,0,1,.17,1c1.55.22,2.49-.44,3.71-1a6.88,6.88,0,0,1,3.11-1.06,6,6,0,0,0,2.77-.77c1-.56,1.71-1.66,2.77-2.11a11.77,11.77,0,0,0,2.16-.55c.28-.17.44-.56.72-.89.94-.89,1.94-.83,2.05-2.22.44-.16,1,.17,1.5-.11.39-.11.22-.88.39-1.16.44.17,1.71.83,1.55-.89.66.22.77-.44,1.22-.16,0,.5-.28.72-.72.66a1.27,1.27,0,0,1-1.72,1.17c-.17.27-.22.72-.5.88a4.62,4.62,0,0,1-1.33.11c-.28.89-.11,1.78-.33,2.89-.17.88-.72,1.77-.5,2.82.11.45.72.83.83,1.33.17.67-.22,1.11-.33,1.83s.16,2,.16,3.38a23,23,0,0,0,.17,3.66c.28,1.77-.5,3-.39,4.16s1,1.94.89,2.88c-.17,1.11-1.22,1.83-1.17,2.83.06.66.84,1,.84,1.55s-.61.94-.89,1.33a24.45,24.45,0,0,0-1.22,2.22c.44.33,1.33.55,1.22,1.27-.67.11-.78-.66-1.5-.78-.94-.11-1.83.73-2.6,1.06-.34-.11-.28-.67-.56-.78-.83-.61-1.44.11-2,0s-.89-1.16-1.33-1.66a4.5,4.5,0,0,0-4-1.33c-3.33.28-7.71,3.38-8.15,7-.28,2.22.61,3.6.88,5.32.06.44,0,.77.06,1.16.28.89,1.33,1.11,1.5,2.5,0,.5-.11,1-.06,1.55.22,2.55,2.94,1.77,2.55-.67-.17-.94-1-1.22-1.38-1.71v-.39c-.39-.45-1-.72-1.34-1.06-1.71-2.1-1.49-6.37-.33-8.59.45-.77,1.06-1.83,1.72-2-.11.83-.83,1.28-1.22,2a9.44,9.44,0,0,0-1,3.11c-.39,3.82,1.72,6.43,4.27,7.15,0,.11.44.33.16.5.94-1.17,2.61-2.61,3.22-4.55.11-.39-.11-.89.33-1,.33.16,0,1.22,0,1.44a11.46,11.46,0,0,1-1.83,2.88c-.5.67-1.83,1.72-2,2.72-.16,1.16.73,2.33,1.5,2.21.94-.11,1.61-3.27,2.05-4.54.56-1.66,1.67-3.1,1.67-5,0-2.17-1.34-4-2.78-4.05-.88-.06-1.44.55-2.16.39-.16-.45.5-.56.83-.67,2.66-.83,4.49,1.5,4.49,4.38,0,2-1.11,3.33-1.72,5.21s-1,4.16-2.1,4.82" style="fill:#444;stroke:#bcba40;stroke-width:2px"/></g><g id="Layer_9" data-name="Layer 9"><path d="M113.83,99.91c-.27-4-.83-8.65,1-12.14a8,8,0,0,1,3.71-3.16c0-.39-1.16.27-1.28.33-1.27.5-2.49,2.22-3.93,1.5-.22-.06-.11-.39-.22-.61s-.06-1.33.33-1.33a3.48,3.48,0,0,1,1,.16,3.12,3.12,0,0,1-.83-.38c-.22-.12,0-1.06.28-1,1.38.56,3.1,1.17,4.43.22a3.4,3.4,0,0,0,1.5-2.82c-.5,2-2.38,3.6-3.77,1.94-2-2.44-.61-6.27,1.44-8.21a6.06,6.06,0,0,1,.61-.55c4.66-3.44,10.59.83,11.31,7.59,1.94,3.5.61,5.88.28,9.43-.34,3.82-2.17,10.31-8,10.31-4.76,0-7.31-4.66-5.82-10.42.39-1.67,1.78-3,2.83-2.28a2.76,2.76,0,0,0,.5-1.22c-1.11-.61-2.94.89-3.55,2.17-1.6,3-1.11,7-1.16,10.53-.17,1.1-.61.88-.67-.11Z" style="fill:#444;stroke:#bcba40;stroke-width:0.75px"/><path d="M118.6,88.49a2.32,2.32,0,0,1,.67,2.16c-.5.89-1.5,1-2.17,1.61s0,.83,0,1.44c0,.44.33.61.33,1,.06.77.72.88,1.16,1.27,1.56,1.5,1.61-2.88,1.67-4,0-.55.05-1.77.66-1.6s.5,1.05.34,1.49c-.28.78-1.28,4.66-.34,4.88.39.11.78.5,1.11.11s.83.11,1.22-.33,1,.11.94-.83a6.66,6.66,0,0,0-1.66-3.77c-.44-.56-1.11-3.05-.33-3.44s1.11,1.61,1.16,2.27c.11,1.67.67,3.5,1.89,4.16.77.45.83-.77,1.22-1.27.27-.34.11-.5.49-1.06.28-.38.39-.94,0-1.22a12.53,12.53,0,0,1-2.49-1.71c-.44-.5-1.72-1.39-1-2,.27-.34.72-.12,1,.22.84.88,2,2.27,3.33,2.33.39,0,.11-.61.33-.89s-.05-.72.11-1.11-.22-.78,0-1.16a.32.32,0,0,0-.22-.45,8.31,8.31,0,0,0-3.1,0c-.56.11-1.55.22-1.66-.89-.06-.83,1.44-.72,1.77-.5a3.8,3.8,0,0,0,2.38,1c.33,0,1.39.06,1-.72-.22-.5.33-.72-.17-1.44-.27-.39.28-1.49-.38-1.49a4,4,0,0,0-2.78.88c-.66.56-2.55.89-2.43-.38s1.66-1.11,2.1-.89a3.31,3.31,0,0,0,2.72.16c.83-.33.11-.88.16-1.6s-.44-.61-.38-1.28c0-.44-.39-1-.72-.66a8,8,0,0,0-2,1.72c-1.33,1.44-1.83-.5-.67-.89.5-.17,2.61-.94,2.06-2.05-.28-.5-.89-.33-1-.89s-.78-.39-1-.89-.39-.49-.61-.11a6.12,6.12,0,0,0-.44,2.89c.16,2.05-1,2.27-1.06.11,0-3.44,0-3.44-.55-3.83-.67-.5-.5.11-1.11,0-.28,0-.5.39-.28.72a10.21,10.21,0,0,1,.78,2.5,6.51,6.51,0,0,0-1.16-2.44c-.39-.56-.56.44-.84.61-.49.27-.44,1.33-.66,1.6A.94.94,0,0,0,118,79a8,8,0,0,0,2.49.61c-.83-.17-1.77,4.27-3.88,1.33-1.44-2-.55-5.1.89-6.71a6.06,6.06,0,0,1,.61-.55c4.66-3.44,10.59.83,11.31,7.65,1.94,3.49.61,5.87.28,9.42a11.9,11.9,0,0,1-2.83,6.54c-3.44,4-10,3.22-11-3.27a9.07,9.07,0,0,1,0-3.44c.34-1.55,1.67-2.82,2.72-2.1Z" style="fill:none;stroke:#bcba40;stroke-width:0.75px"/><line x1="123.26" y1="76.35" x2="122.98" y2="78.73" style="fill:none;stroke:#bcba40;stroke-width:0.75px"/><line x1="123.42" y1="76.4" x2="123.03" y2="78.73" style="fill:none;stroke:#bcba40;stroke-width:0.75px"/><line x1="123.59" y1="76.29" x2="123.09" y2="78.62" style="fill:none;stroke:#bcba40;stroke-width:0.75px"/><line x1="123.75" y1="76.35" x2="123.15" y2="78.57" style="fill:none;stroke:#bcba40;stroke-width:0.75px"/><line x1="123.98" y1="76.24" x2="123.26" y2="78.62" style="fill:none;stroke:#bcba40;stroke-width:0.75px"/><line x1="124.14" y1="76.4" x2="123.26" y2="78.68" style="fill:none;stroke:#bcba40;stroke-width:0.75px"/><line x1="124.31" y1="76.52" x2="123.31" y2="78.73" style="fill:none;stroke:#bcba40;stroke-width:0.75px"/><line x1="124.48" y1="76.57" x2="123.37" y2="78.79" style="fill:none;stroke:#bcba40;stroke-width:0.75px"/><line x1="123.42" y1="78.84" x2="124.59" y2="76.74" style="fill:none;stroke:#bcba40;stroke-width:0.75px"/><line x1="124.59" y1="76.96" x2="123.53" y2="78.79" style="fill:none;stroke:#bcba40;stroke-width:0.75px"/><line x1="124.81" y1="77.01" x2="123.53" y2="78.84" style="fill:none;stroke:#bcba40;stroke-width:0.75px"/><line x1="124.81" y1="77.18" x2="123.53" y2="78.9" style="fill:none;stroke:#bcba40;stroke-width:0.75px"/><line x1="124.97" y1="77.29" x2="123.64" y2="78.9" style="fill:none;stroke:#bcba40;stroke-width:0.75px"/><line x1="124.97" y1="77.51" x2="123.64" y2="78.95" style="fill:none;stroke:#bcba40;stroke-width:0.75px"/><line x1="125.09" y1="77.62" x2="123.64" y2="78.95" style="fill:none;stroke:#bcba40;stroke-width:0.75px"/><line x1="123.64" y1="79.01" x2="125.09" y2="77.79" style="fill:none;stroke:#bcba40;stroke-width:0.75px"/><line x1="123.64" y1="79.12" x2="125.09" y2="78.07" style="fill:none;stroke:#bcba40;stroke-width:0.75px"/><line x1="123.64" y1="79.23" x2="125.03" y2="78.23" style="fill:none;stroke:#bcba40;stroke-width:0.75px"/><line x1="123.64" y1="79.29" x2="124.97" y2="78.51" style="fill:none;stroke:#bcba40;stroke-width:0.75px"/><line x1="120.48" y1="78.34" x2="119.43" y2="76.24" style="fill:none;stroke:#bcba40;stroke-width:0.75px"/><line x1="120.43" y1="78.4" x2="119.21" y2="76.18" style="fill:none;stroke:#bcba40;stroke-width:0.75px"/><line x1="120.26" y1="78.29" x2="119.1" y2="76.4" style="fill:none;stroke:#bcba40;stroke-width:0.75px"/><line x1="120.21" y1="78.46" x2="118.88" y2="76.35" style="fill:none;stroke:#bcba40;stroke-width:0.75px"/><line x1="120.1" y1="78.4" x2="118.77" y2="76.52" style="fill:none;stroke:#bcba40;stroke-width:0.75px"/><line x1="120.15" y1="78.57" x2="118.6" y2="76.63" style="fill:none;stroke:#bcba40;stroke-width:0.75px"/><line x1="120.04" y1="78.51" x2="118.54" y2="76.96" style="fill:none;stroke:#bcba40;stroke-width:0.75px"/><line x1="119.99" y1="78.62" x2="118.43" y2="77.24" style="fill:none;stroke:#bcba40;stroke-width:0.75px"/><line x1="119.99" y1="78.73" x2="118.21" y2="77.4" style="fill:none;stroke:#bcba40;stroke-width:0.75px"/><line x1="119.93" y1="78.79" x2="118.16" y2="77.62" style="fill:none;stroke:#bcba40;stroke-width:0.75px"/><line x1="119.88" y1="78.84" x2="118.1" y2="77.9" style="fill:none;stroke:#bcba40;stroke-width:0.75px"/><line x1="119.93" y1="78.9" x2="117.94" y2="78.07" style="fill:none;stroke:#bcba40;stroke-width:0.75px"/><line x1="119.88" y1="78.95" x2="118.05" y2="78.34" style="fill:none;stroke:#bcba40;stroke-width:0.75px"/><line x1="119.93" y1="79.12" x2="117.82" y2="78.57" style="fill:none;stroke:#bcba40;stroke-width:0.75px"/><line x1="124.86" y1="81.73" x2="126.91" y2="82.22" style="fill:none;stroke:#bcba40;stroke-width:0.75px"/><line x1="124.92" y1="81.61" x2="127.14" y2="82.06" style="fill:none;stroke:#bcba40;stroke-width:0.75px"/><line x1="125.09" y1="81.5" x2="127.08" y2="81.78" style="fill:none;stroke:#bcba40;stroke-width:0.75px"/><line x1="125.03" y1="81.34" x2="127.25" y2="81.56" style="fill:none;stroke:#bcba40;stroke-width:0.75px"/><line x1="125.14" y1="81.28" x2="127.3" y2="81.28" style="fill:none;stroke:#bcba40;stroke-width:0.75px"/><line x1="125.03" y1="81.17" x2="127.3" y2="81.06" style="fill:none;stroke:#bcba40;stroke-width:0.75px"/><line x1="125.14" y1="81.12" x2="127.19" y2="80.73" style="fill:none;stroke:#bcba40;stroke-width:0.75px"/><line x1="125.09" y1="81.01" x2="127.14" y2="80.45" style="fill:none;stroke:#bcba40;stroke-width:0.75px"/><line x1="125.09" y1="80.89" x2="127.14" y2="80.06" style="fill:none;stroke:#bcba40;stroke-width:0.75px"/><line x1="125.03" y1="80.84" x2="127.08" y2="79.84" style="fill:none;stroke:#bcba40;stroke-width:0.75px"/><line x1="125.03" y1="80.73" x2="126.97" y2="79.56" style="fill:none;stroke:#bcba40;stroke-width:0.75px"/><line x1="124.97" y1="80.67" x2="126.97" y2="79.29" style="fill:none;stroke:#bcba40;stroke-width:0.75px"/><line x1="124.97" y1="80.62" x2="126.75" y2="79.12" style="fill:none;stroke:#bcba40;stroke-width:0.75px"/><line x1="124.86" y1="80.56" x2="126.75" y2="78.79" style="fill:none;stroke:#bcba40;stroke-width:0.75px"/><line x1="125.03" y1="84.61" x2="127.58" y2="85.44" style="fill:none;stroke:#bcba40;stroke-width:0.75px"/><line x1="125.09" y1="84.55" x2="127.8" y2="85.38" style="fill:none;stroke:#bcba40;stroke-width:0.75px"/><line x1="125.31" y1="84.44" x2="127.8" y2="85.16" style="fill:none;stroke:#bcba40;stroke-width:0.75px"/><line x1="125.25" y1="84.33" x2="128.02" y2="85" style="fill:none;stroke:#bcba40;stroke-width:0.75px"/><line x1="125.36" y1="84.33" x2="128.08" y2="84.83" style="fill:none;stroke:#bcba40;stroke-width:0.75px"/><line x1="125.25" y1="84.22" x2="128.13" y2="84.61" style="fill:none;stroke:#bcba40;stroke-width:0.75px"/><line x1="125.36" y1="84.16" x2="128.02" y2="84.39" style="fill:none;stroke:#bcba40;stroke-width:0.75px"/><line x1="125.31" y1="84.05" x2="127.91" y2="84.11" style="fill:none;stroke:#bcba40;stroke-width:0.75px"/><line x1="125.31" y1="84" x2="128.02" y2="83.83" style="fill:none;stroke:#bcba40;stroke-width:0.75px"/><line x1="125.25" y1="83.94" x2="127.91" y2="83.61" style="fill:none;stroke:#bcba40;stroke-width:0.75px"/><line x1="125.31" y1="83.89" x2="127.8" y2="83.39" style="fill:none;stroke:#bcba40;stroke-width:0.75px"/><line x1="125.2" y1="83.83" x2="127.8" y2="83.17" style="fill:none;stroke:#bcba40;stroke-width:0.75px"/><line x1="125.2" y1="83.78" x2="127.52" y2="83" style="fill:none;stroke:#bcba40;stroke-width:0.75px"/><line x1="125.09" y1="83.67" x2="127.58" y2="82.72" style="fill:none;stroke:#bcba40;stroke-width:0.75px"/><line x1="124.86" y1="87.66" x2="127.03" y2="89.6" style="fill:none;stroke:#bcba40;stroke-width:0.75px"/><line x1="124.97" y1="87.6" x2="127.3" y2="89.6" style="fill:none;stroke:#bcba40;stroke-width:0.75px"/><line x1="125.2" y1="87.6" x2="127.36" y2="89.32" style="fill:none;stroke:#bcba40;stroke-width:0.75px"/><line x1="125.14" y1="87.49" x2="127.63" y2="89.32" style="fill:none;stroke:#bcba40;stroke-width:0.75px"/><line x1="125.31" y1="87.49" x2="127.75" y2="89.1" style="fill:none;stroke:#bcba40;stroke-width:0.75px"/><line x1="125.2" y1="87.32" x2="127.86" y2="88.93" style="fill:none;stroke:#bcba40;stroke-width:0.75px"/><line x1="125.36" y1="87.32" x2="127.8" y2="88.6" style="fill:none;stroke:#bcba40;stroke-width:0.75px"/><line x1="125.31" y1="87.21" x2="127.8" y2="88.27" style="fill:none;stroke:#bcba40;stroke-width:0.75px"/><line x1="125.31" y1="87.1" x2="127.97" y2="87.99" style="fill:none;stroke:#bcba40;stroke-width:0.75px"/><line x1="125.31" y1="87.05" x2="127.91" y2="87.71" style="fill:none;stroke:#bcba40;stroke-width:0.75px"/><line x1="125.36" y1="86.99" x2="127.91" y2="87.43" style="fill:none;stroke:#bcba40;stroke-width:0.75px"/><line x1="125.31" y1="86.88" x2="127.97" y2="87.21" style="fill:none;stroke:#bcba40;stroke-width:0.75px"/><line x1="125.31" y1="86.82" x2="127.75" y2="86.94" style="fill:none;stroke:#bcba40;stroke-width:0.75px"/><line x1="125.2" y1="86.66" x2="127.86" y2="86.66" style="fill:none;stroke:#bcba40;stroke-width:0.75px"/><line x1="123.59" y1="90.65" x2="125.2" y2="93.92" style="fill:none;stroke:#bcba40;stroke-width:0.75px"/><line x1="123.7" y1="90.65" x2="125.42" y2="94.09" style="fill:none;stroke:#bcba40;stroke-width:0.75px"/><line x1="123.87" y1="90.82" x2="125.53" y2="93.92" style="fill:none;stroke:#bcba40;stroke-width:0.75px"/><line x1="123.92" y1="90.65" x2="125.81" y2="94.03" style="fill:none;stroke:#bcba40;stroke-width:0.75px"/><line x1="124.03" y1="90.76" x2="125.97" y2="93.92" style="fill:none;stroke:#bcba40;stroke-width:0.75px"/><line x1="123.98" y1="90.54" x2="126.08" y2="93.86" style="fill:none;stroke:#bcba40;stroke-width:0.75px"/><line x1="124.14" y1="90.65" x2="126.14" y2="93.53" style="fill:none;stroke:#bcba40;stroke-width:0.75px"/><line x1="124.14" y1="90.54" x2="126.25" y2="93.25" style="fill:none;stroke:#bcba40;stroke-width:0.75px"/><line x1="124.14" y1="90.48" x2="126.42" y2="93.09" style="fill:none;stroke:#bcba40;stroke-width:0.75px"/><line x1="124.14" y1="90.37" x2="126.47" y2="92.87" style="fill:none;stroke:#bcba40;stroke-width:0.75px"/><line x1="124.2" y1="90.37" x2="126.53" y2="92.59" style="fill:none;stroke:#bcba40;stroke-width:0.75px"/><line x1="124.2" y1="90.26" x2="126.64" y2="92.42" style="fill:none;stroke:#bcba40;stroke-width:0.75px"/><line x1="124.2" y1="90.15" x2="126.53" y2="91.98" style="fill:none;stroke:#bcba40;stroke-width:0.75px"/><line x1="124.14" y1="89.98" x2="126.69" y2="91.81" style="fill:none;stroke:#bcba40;stroke-width:0.75px"/><line x1="121.59" y1="92.26" x2="120.76" y2="95.53" style="fill:none;stroke:#bcba40;stroke-width:0.75px"/><line x1="121.65" y1="92.31" x2="120.93" y2="95.86" style="fill:none;stroke:#bcba40;stroke-width:0.75px"/><line x1="121.76" y1="92.59" x2="121.21" y2="95.86" style="fill:none;stroke:#bcba40;stroke-width:0.75px"/><line x1="121.87" y1="92.53" x2="121.32" y2="96.19" style="fill:none;stroke:#bcba40;stroke-width:0.75px"/><line x1="121.93" y1="92.76" x2="121.59" y2="96.25" style="fill:none;stroke:#bcba40;stroke-width:0.75px"/><line x1="122.04" y1="92.53" x2="121.81" y2="96.36" style="fill:none;stroke:#bcba40;stroke-width:0.75px"/><line x1="122.15" y1="92.76" x2="122.09" y2="96.19" style="fill:none;stroke:#bcba40;stroke-width:0.75px"/><line x1="122.2" y1="92.64" x2="122.42" y2="96.14" style="fill:none;stroke:#bcba40;stroke-width:0.75px"/><line x1="122.31" y1="92.64" x2="122.76" y2="96.25" style="fill:none;stroke:#bcba40;stroke-width:0.75px"/><line x1="122.37" y1="92.64" x2="122.98" y2="96.14" style="fill:none;stroke:#bcba40;stroke-width:0.75px"/><line x1="122.48" y1="92.64" x2="123.2" y2="96.03" style="fill:none;stroke:#bcba40;stroke-width:0.75px"/><line x1="122.54" y1="92.53" x2="123.48" y2="96.03" style="fill:none;stroke:#bcba40;stroke-width:0.75px"/><line x1="122.59" y1="92.53" x2="123.64" y2="95.69" style="fill:none;stroke:#bcba40;stroke-width:0.75px"/><line x1="122.65" y1="92.42" x2="123.98" y2="95.75" style="fill:none;stroke:#bcba40;stroke-width:0.75px"/><line x1="119.32" y1="91.37" x2="117.16" y2="92.7" style="fill:none;stroke:#bcba40;stroke-width:0.75px"/><line x1="119.38" y1="91.48" x2="117.1" y2="92.98" style="fill:none;stroke:#bcba40;stroke-width:0.75px"/><line x1="119.27" y1="91.7" x2="117.27" y2="93.2" style="fill:none;stroke:#bcba40;stroke-width:0.75px"/><line x1="119.38" y1="91.76" x2="117.16" y2="93.53" style="fill:none;stroke:#bcba40;stroke-width:0.75px"/><line x1="119.32" y1="91.92" x2="117.33" y2="93.81" style="fill:none;stroke:#bcba40;stroke-width:0.75px"/><line x1="119.49" y1="91.92" x2="117.38" y2="94.03" style="fill:none;stroke:#bcba40;stroke-width:0.75px"/><line x1="119.43" y1="92.09" x2="117.66" y2="94.2" style="fill:none;stroke:#bcba40;stroke-width:0.75px"/><line x1="119.49" y1="92.15" x2="117.88" y2="94.42" style="fill:none;stroke:#bcba40;stroke-width:0.75px"/><line x1="119.54" y1="92.2" x2="117.99" y2="94.75" style="fill:none;stroke:#bcba40;stroke-width:0.75px"/><line x1="119.65" y1="92.26" x2="118.21" y2="94.86" style="fill:none;stroke:#bcba40;stroke-width:0.75px"/><line x1="119.65" y1="92.31" x2="118.43" y2="95.03" style="fill:none;stroke:#bcba40;stroke-width:0.75px"/><line x1="119.76" y1="92.31" x2="118.54" y2="95.31" style="fill:none;stroke:#bcba40;stroke-width:0.75px"/><line x1="119.82" y1="92.37" x2="118.82" y2="95.19" style="fill:none;stroke:#bcba40;stroke-width:0.75px"/><line x1="119.93" y1="92.37" x2="118.99" y2="95.53" style="fill:none;stroke:#bcba40;stroke-width:0.75px"/><line x1="121.43" y1="77.9" x2="121.26" y2="75.35" style="fill:none;stroke:#bcba40;stroke-width:0.75px"/><line x1="121.32" y1="77.85" x2="121.09" y2="75.19" style="fill:none;stroke:#bcba40;stroke-width:0.75px"/><line x1="121.26" y1="77.68" x2="120.93" y2="75.24" style="fill:none;stroke:#bcba40;stroke-width:0.75px"/><line x1="121.15" y1="77.79" x2="120.76" y2="75.07" style="fill:none;stroke:#bcba40;stroke-width:0.75px"/><line x1="121.09" y1="77.68" x2="120.6" y2="75.13" style="fill:none;stroke:#bcba40;stroke-width:0.75px"/><line x1="121.04" y1="77.85" x2="120.48" y2="75.13" style="fill:none;stroke:#bcba40;stroke-width:0.75px"/><line x1="120.98" y1="77.73" x2="120.32" y2="75.35" style="fill:none;stroke:#bcba40;stroke-width:0.75px"/><line x1="120.93" y1="77.79" x2="120.1" y2="75.46" style="fill:none;stroke:#bcba40;stroke-width:0.75px"/></g></g></svg>