<svg id="Layer_1" data-name="Layer 1" xmlns="http://www.w3.org/2000/svg" viewBox="0 0 195 179"><polygon points="50.37 14.26 122.64 15.79 117.13 131.46 37.53 122.3 50.37 14.26" style="fill:none;stroke:#fff;stroke-miterlimit:10;stroke-width:2.24146674727744px"/><path d="M120.4,62.84l1.27-.06.46-5.77,7.25-.34c2.06-.1,1.79-1,1.79-1l.49-29c-.46-1.7-1.81-1.43-1.81-1.43l-6.38.66.28-6.76-1,.05Z" style="fill:none;stroke:#fff;stroke-miterlimit:10;stroke-width:2.24146674727744px"/><path d="M118.43,100.32l1.26-.06.46-5.76,7.25-.35c2.06-.09,1.8-1,1.8-1l.49-29c-.47-1.7-1.82-1.42-1.82-1.42l-6.38.66.29-6.76-1,0Z" style="fill:none;stroke:#fff;stroke-miterlimit:10;stroke-width:2.24146674727744px"/><path d="M117.3,131.45l1.29-.11.4-4.81,7.39-.61c2.1-.17,1.81-.92,1.81-.92l.11-24.17a1.63,1.63,0,0,0-1.87-1.1l-6.5.83.2-5.64-1,.09Z" style="fill:none;stroke:#fff;stroke-miterlimit:10;stroke-width:2.24146674727744px"/></svg>