<svg id="Layer_1" data-name="Layer 1" xmlns="http://www.w3.org/2000/svg" viewBox="0 0 195 179"><path d="M133.38,114.56a16.92,16.92,0,0,1,.62,5.31c0,11.83-17.36,14.21-34.84,16.55v12.74c11.92-1.55,23.9-3.57,30.76-9.65,10.06-8.92,5.1-21.88,3.46-24.95Z" style="fill:none;stroke:#bcb93f;stroke-miterlimit:10;stroke-width:0.5px"/><path d="M133.44,114.68a18.47,18.47,0,0,0-3.61-4.31c-6.85-6.07-18.84-8.1-30.75-9.65h0c-14.43-1.93-28.77-3.9-33.34-11.17a9.93,9.93,0,0,0-1.37,5.16,18.53,18.53,0,0,0,.55,5.1,18.38,18.38,0,0,0,3.41,4c6.85,6.08,18.84,8.1,30.75,9.65h0c14.71,2,29.33,4,33.59,11.6a9.92,9.92,0,0,0,1.37-5.15A17.13,17.13,0,0,0,133.44,114.68Z" style="fill:none;stroke:#bcb93f;stroke-miterlimit:10;stroke-width:0.5px"/><path d="M133.41,79.1a18.8,18.8,0,0,0-3.4-4C123.15,69,111.16,67,99.25,65.46h0c-14.71-2-29.34-4-33.59-11.61A9.86,9.86,0,0,0,64.29,59a17,17,0,0,0,.61,5.26,18.66,18.66,0,0,0,3.6,4.31c6.85,6.07,18.84,8.1,30.76,9.65v0c14.42,1.93,28.76,3.9,33.33,11.17A9.87,9.87,0,0,0,134,84.22,18.65,18.65,0,0,0,133.41,79.1Z" style="fill:none;stroke:#bcb93f;stroke-miterlimit:10;stroke-width:0.5px"/><path d="M64.82,64.13a.35.35,0,0,0,.05.08l-.11-.2a.67.67,0,0,0,.06.12Z" style="fill:none;stroke:#bcb93f;stroke-miterlimit:10;stroke-width:0.5px"/><path d="M64.92,64.32a.14.14,0,0,0,0-.06l0-.05a1.17,1.17,0,0,1,0,.11Z" style="fill:none;stroke:#bcb93f;stroke-miterlimit:10;stroke-width:0.5px"/><path d="M133.45,43.6a16.49,16.49,0,0,1,.63,5.31c0,11.83-17.37,14.21-34.84,16.55h0C87.33,67,75.34,69,68.49,75.11,58.43,84,63.38,97,65,100.07a16.67,16.67,0,0,1-.62-5.31c0-11.83,17.36-14.21,34.83-16.55h0c11.92-1.55,23.9-3.57,30.75-9.65C140.05,59.63,135.1,46.67,133.45,43.6Z" style="fill:none;stroke:#bcb93f;stroke-miterlimit:10;stroke-width:0.5px"/><path d="M133.29,78.85a16.61,16.61,0,0,1,.63,5.32c0,11.83-17.36,14.21-34.84,16.55h0c-11.91,1.55-23.89,3.57-30.74,9.65-10.07,8.93-5.11,21.89-3.46,25a16.61,16.61,0,0,1-.63-5.32c0-11.82,17.37-14.21,34.84-16.55h0c11.91-1.55,23.9-3.57,30.75-9.65C139.9,94.88,134.94,81.93,133.29,78.85Z" style="fill:none;stroke:#bcb93f;stroke-miterlimit:10;stroke-width:0.5px"/><path d="M64.92,64.32A16.61,16.61,0,0,1,64.29,59c0-11.83,17.37-14.21,34.84-16.55V29.71c-11.91,1.55-23.9,3.57-30.76,9.65-10.06,8.93-5.1,21.88-3.45,25Z" style="fill:none;stroke:#bcb93f;stroke-miterlimit:10;stroke-width:0.5px"/></svg>