<svg id="Layer_1" data-name="Layer 1" xmlns="http://www.w3.org/2000/svg" viewBox="0 0 195 179"><g id="module202"><g id="Layer_2" data-name="Layer 2"><path d="M67.72,128.34c1.51-3,3-3,5.81-2.41-2.42-3.77-2.42-8.44-1.81-12.21C71,115.38,67,124,67,127.29c0,1.88-4.22,4.45-4.6,0a.84.84,0,0,1-1.43-.53c-.45,1.66-5,1.81-2.79-2.33,2.79-5.2-.15-12.52,1.66-18-5-6.63-6.48-14.62-6-24.27l-1.28-1.43c-8.89.15-14.92-1.88-16.58-4.82-3.54-6.11,1.81-8.52,8.07-29.4a12.23,12.23,0,0,1,7.68-8.59c3.09-4.67-1.65-5.35,5.2-9.19,12.36-7,3.47-10.93,28.64-16.06,8.14-1.65,17.79-2,25.7,1.51,16.21,7.09,21.64,19.67,19,37.38-2.41,15.83-15.6,8.07-18.62,26.23-3.16,19,23.74,11.68,38.14,36.86,2.64-2.11,6.18,1.73,7.23,4.37,3.77,9.57-8.36,11.23-9.34,6.63-1.28.76-3.39,1-6.26-.15-11.45-4.6-23.21-2.11-34.59,1.66-21.86,7.16-26.61,2.64-32.18,5.65-4.45,2.41-9.2.3-6.94-4.45Z" style="fill:none;stroke:#bcba40"/><path d="M60.86,126.84c1.21-4.3.23-10.4,1.51-16.28m-2.64-4.07A44,44,0,0,1,66,119m-3.69,8.29c-.31-3.54,4.44.53,9.94-38.36,2.34-16.28,5.43-17.87,10-31.88,2.26-7.09,4.22-17.94,7.24-20.13,2.33-1.73,10.55-.9,12.43,4.3.83,2.26,3,8.67,1.21,10.63-6.71,6.93-8.22,18.16-12.81,28-10.1,21.63-12.89,21.25-18.54,33.91m-2.42-7.08c-1.88-4.52-5.57-6.78-5.87-13.19m7.31,5.2c-6.33-1.51-12.74-11.31-13-17.56m-3.92,1.13C59.28,80,61.54,81.69,66,79.36a14,14,0,0,1,8.44-1.14m-5.2.08c2.79,3.17-1,6.56,3,10.63m-1,7c-5.87-2.57-5.35-10.71-8.66-15.38m4.75-6.78a17.17,17.17,0,0,0,7.31,3.62c-6.41-1.89-11.23,1.43-14,.82s-6,.76-8.07,2.49m2.11-1.35c.23-.53.53-1.21.91-2M36,76c9.5-3.76,13.72,3.62,24.2.68m-.53,1.51a28.3,28.3,0,0,1,2.86-5.88,19.11,19.11,0,0,0-3,3m1.5-.46c-8.66,2.34-9.19-5.88-24.19-3.77m19.75,4.15C59.81,68.28,61.24,63.9,60,61.57M36,76c-2.49-4.22,4.15-10.4,24-14.47,3.17-.6,6.64-1.28,10.48-1.73,10.18-1.36,8.22-18.16,10.18-21.1-.16,2.78-.16,2.63,2.11,3.69s2.48-2.49,6.63-5.43c3.39-2.41,7.61-5.8,6.78-10.47-.6-3.24-5.43-5.66-8.74-1.13-1.89,2.56-2,3.31-4.9,4.29m-21-2a5.07,5.07,0,0,1-4.67,1.2M51.67,38c2.49-1.06,4.82-1.58,6.18-3.09m27,12.58c-1.73,1-2.94,2.72-5.88,5.51M82.8,42.35c-2,2.56-3.17,15.53-11.69,22.31-6.1,4.82-8,8.29-9.57,13.56m1.51-4.07c3.47-1.58,6.25-4.74,8.06-9.42m-.6-5c-1,1.05-6,9.19-6.48,9.8a47.69,47.69,0,0,1-5.5,5.73M60.34,65c2,.9,2.56,2.86,3.76,4.52m.83,1.35a10.42,10.42,0,0,0,1,1.44M62.3,76c7.61-2.86,12.81-6.1,19.89-18.91M88.6,83.2a21.31,21.31,0,0,1-.68,8.44c-5,17,4.3,26.45,4.9,32,.07.76-1.13,1.36-12.36,3.09-2.94.45-5.2,1.66-6.93-.9m19.21-2.11c10.25-.91,16-3.77,26.31-5.2m28.41,7.16a3,3,0,0,0,.83-4.37m1.28-6.64c4.45,7.84-3.16,7.24-8.21,6.33-7.39-1.28-14.55-2.26-21.94-1-7.91-27.28-27.73-29.7-14.24-64.14,8.52,5.13,7.61,13.64,6.18,22m-6.1-22c-.38-1.51-.76-3.32-2.27-4M96.06,64.13c2.94,3.32,1.66,8.52,4.67,12m-8.51-1.2c2.41,7.54,8.51,14.32,12.73,20.5m-4.74-4.07a56.07,56.07,0,0,1,12.58,13.19m4.37,8.82c-13.34,0-24.94-9-30.67-10M97,107.77c2.26,4.14,1.88,12.74,6.93,14m1.81-.45c-3.69-4.83-2.41-7.09-4.44-11.61m8.51,2.79c1.36,2,3.92,5.27,6,6.48m-.83-10.33c-11.9-3.31-18.24-4-28.56-8.29m8.44,3.09c-2.11-4-4.82-7.91-7.08-11.75m.6-2.57c3.24,4.07,8.14,8.29,10.55,15.45m7.69,1.89a103.5,103.5,0,0,0-6.48-15.15c-1.36-2.71-6.79-9.5-9.95-11.61" style="fill:none;stroke:#bcba40"/><path d="M74.51,132.87c-4.3,2.26-9.05.22-6.71-4.53,1.5-3,3-3,5.8-2.41,1.73,2.57,3.92,1.36,6.93.91,11.23-1.74,12.44-2.34,12.36-3.09a81,81,0,0,0,11.16-1.89c-5-1.28-4.6-9.87-6.93-14,1.35.61,2.78,1.29,4.37,2,2,4.53.68,6.79,4.44,11.61a100.39,100.39,0,0,1,13.27-2.79c.15.45.3.91.45,1.43,7.31-1.13,14.55-.22,21.93,1.06,5,.9,12.66,1.51,8.22-6.33,2.64-2.11,6.18,1.73,7.23,4.37,3.77,9.57-8.36,11.23-9.34,6.63-1.28.76-3.39,1-6.26-.15-11.45-4.6-23.21-2.11-34.59,1.66-22.08,7.16-26.83,2.56-32.33,5.58Z" style="fill:none;stroke:#bcba40"/><path d="M94.93,103.47c-2.11-4-4.82-7.91-7.08-11.75.22-.91.45-1.74.6-2.57,3.24,4.07,8.14,8.29,10.55,15.45-1.28-.37-2.64-.75-4.07-1.13Z" style="fill:none;stroke:#bcba40"/><path d="M105,95.41a48.46,48.46,0,0,0-4.82-4.07c-1.36-2.71-6.78-9.5-9.95-11.61.76-1.58,1.36-3.24,2-4.9,2.41,7.62,8.51,14.4,12.73,20.58Z" style="fill:none;stroke:#bcba40"/><path d="M72.24,88.93c-4.07-4.07-.22-7.46-3-10.63A10.21,10.21,0,0,0,66,79.36c-4.45,2.33-6.71.6-12.14,2.86l-1.28-1.43c2.11-1.74,5.13-3.17,8.07-2.49s7.53-2.79,14-.83a17.06,17.06,0,0,1-7.31-3.62c5.12-2.71,9.42-6.93,14.84-16.73-4.52,13.94-7.61,15.6-10,31.81Z" style="fill:none;stroke:#bcba40"/><path d="M65.91,72.35c-.37-.53-.68-1-1-1.44a28.21,28.21,0,0,1,6.18-6.18,18.21,18.21,0,0,1-5.2,7.62Z" style="fill:none;stroke:#bcba40"/><path d="M64,69.56C62.9,67.9,62.22,65.94,60.26,65a5.88,5.88,0,0,0-.3-3.55c-19.9,4.07-26.53,10.18-24,14.47-3.55-6.1,1.81-8.51,8.06-29.39A12.22,12.22,0,0,1,51.67,38c3.09-4.67-1.66-5.35,5.2-9.2,12.36-7,3.47-10.93,28.64-16,8.14-1.66,17.79-2,25.7,1.51,16.2,7.08,21.63,19.67,19,37.38-2.41,15.83-15.6,8.06-18.61,26.23,1.35-8.37,2.33-16.88-6.18-22-.38-1.51-.76-3.32-2.26-4,1.88-2-.38-8.37-1.21-10.63-1.81-5.2-10.1-6-12.44-4.3C87.69,38.2,86.26,42.65,85,47.47c-1.73,1-2.94,2.72-5.88,5.51,1.81-4.83,2.64-9.27,3.77-10.63-2.18-1.13-2.26-.9-2.11-3.69-2,2.94,0,19.74-10.17,21.1-1.06,1.13-6,9.19-6.56,9.8Z" style="fill:none;stroke:#bcba40"/><path d="M60,61.49c3.17-.6,6.64-1.28,10.48-1.73M51.67,38c2.49-1.06,4.82-1.58,6.18-3.09m-1-6.11a5.07,5.07,0,0,0,4.67-1.2m21,2c2.86-1,3.09-1.73,4.9-4.29,3.39-4.6,8.21-2.19,8.74,1.13.83,4.67-3.47,8.06-6.78,10.47-4.15,3-4.22,6.71-6.63,5.43M74.35,78.22a13.41,13.41,0,0,0-5.2.08M104,121.79a16.12,16.12,0,0,0,1.89-.53m42.43.08a2.91,2.91,0,0,1-.83,4.37" style="fill:none;stroke:#bcba40"/></g></g></svg>