<svg id="Layer_1" data-name="Layer 1" xmlns="http://www.w3.org/2000/svg" viewBox="0 0 195 178.47"><path d="M156.26,95.25c11.44,3.4,18.35,7.81,18.35,12.62,0,8-18.87,14.8-45.94,17.85" style="fill:none;stroke:#bcba40;stroke-miterlimit:10"/><path d="M102.48,127.36c-1.77,0-3.57,0-5.37,0-42.81,0-77.5-8.75-77.5-19.54,0-5.68,9.61-10.79,25-14.36" style="fill:none;stroke:#bcba40;stroke-miterlimit:10"/><polygon points="100.43 124.42 111.34 127.08 100.57 130.23 100.43 124.42" style="fill:#bcba40"/><path d="M75.2,67.53l-4.85,4.92h-16l-4.86-4.92Zm0,45.89H49.53l4.86-4.92h16ZM70.94,88l2.5,2.47-2.5,2.46H53.8l-2.43-2.46L53.8,88Zm.26-1.57V73.31l4.93-4.93v19.3l-1.8,1.84Zm4.93,6.83v19.24l-4.93-4.93V94.45l3.13-3.09Z" style="fill:#bcba40"/><path d="M84,87.68V68.38l4.93,4.93V86.44l-3.09,3.08Zm4.93,6.77v13.13L84,112.51V93.27l1.84-1.91ZM110.6,67.53l-4.86,4.92h-16l-4.85-4.92Zm0,45.89H84.93l4.85-4.92h16ZM106.33,88l2.5,2.47-2.5,2.46H89.19l-2.43-2.46L89.19,88Zm5.19,5.26v19.24l-4.93-4.93V94.45l3.13-3.09Z" style="fill:#bcba40"/><path d="M124.32,86.44l-3.08,3.08-1.84-1.84V68.38l4.92,4.93Zm0,21.14-4.92,4.93V93.27l1.84-1.91,3.08,3.09Zm21.67-40-4.86,4.92H125.18l-4.86-4.92Zm0,45.89H120.32l4.86-4.92h15.95Zm.92-25.74-1.8,1.84L142,86.44V73.31l4.92-4.93Zm0,24.83L142,107.58V94.45l3.12-3.09,1.8,1.91Z" style="fill:#bcba40"/><path d="M151.8,55.58a9.9,9.9,0,0,1,.4-3.12,3.9,3.9,0,0,1,1.19-1.83,3,3,0,0,1,2-.64,3.19,3.19,0,0,1,1.55.35,3,3,0,0,1,1.1,1A5.24,5.24,0,0,1,158.7,53a11.07,11.07,0,0,1,.25,2.59,10.2,10.2,0,0,1-.4,3.12,3.89,3.89,0,0,1-1.18,1.83,3.06,3.06,0,0,1-2,.64A3,3,0,0,1,152.88,60,7.25,7.25,0,0,1,151.8,55.58Zm1.38,0a6.81,6.81,0,0,0,.64,3.6,1.8,1.8,0,0,0,3.11,0,6.89,6.89,0,0,0,.63-3.59,6.86,6.86,0,0,0-.63-3.59,1.87,1.87,0,0,0-1.57-.89,1.73,1.73,0,0,0-1.48.78A7,7,0,0,0,153.18,55.58Z" style="fill:#bcba40"/></svg>