<svg id="Layer_1" data-name="Layer 1" xmlns="http://www.w3.org/2000/svg" viewBox="0 0 195 178.47"><g id="Layer_3" data-name="Layer 3"><path d="M111.58,93.32a40.29,40.29,0,0,0,1.84-8.7l-6-3a24.09,24.09,0,0,0-.12-2.94,6.14,6.14,0,0,0-.12-1l5.64-3.56a38.8,38.8,0,0,0-2.76-8.46l-6.68.49a31.31,31.31,0,0,0-2.15-3.31L104.35,57A38.24,38.24,0,0,0,97.73,51l-5.52,3.74A23.66,23.66,0,0,0,88.65,53l-.24-6.68a40.38,40.38,0,0,0-8.71-1.84l-2.88,6a22.25,22.25,0,0,0-2.94.13,6.26,6.26,0,0,0-1,.12l-3.55-5.64a38.46,38.46,0,0,0-8.46,2.76l.49,6.68A30.32,30.32,0,0,0,58,56.66l-5.89-3.13a36.45,36.45,0,0,0-6,6.68l3.74,5.52a28.15,28.15,0,0,0-1.78,3.56l-6.68.24a41,41,0,0,0-1.84,8.71l6,2.88a24.09,24.09,0,0,0,.12,2.94,6.26,6.26,0,0,0,.12,1l-5.64,3.55a39.54,39.54,0,0,0,2.76,8.46l6.69-.49a28.84,28.84,0,0,0,2.14,3.31l-3.13,5.89a36.05,36.05,0,0,0,6.63,6L60.75,108a28.15,28.15,0,0,0,3.56,1.78l.25,6.68a40.89,40.89,0,0,0,8.7,1.84l2.95-6a24.09,24.09,0,0,0,2.94-.12,4.22,4.22,0,0,0,1-.13l3.56,5.65A39.91,39.91,0,0,0,92.15,115l-.49-6.69c1.16-.67,2.27-1.41,3.31-2.14l5.88,3.12a38.29,38.29,0,0,0,6-6.62l-3.74-5.52a26.76,26.76,0,0,0,1.78-3.55Zm-35.07,9.87A21.77,21.77,0,1,1,98.28,81.43,21.76,21.76,0,0,1,76.51,103.19Z" style="fill:none;stroke:#bcba40;stroke-miterlimit:10;stroke-width:1.22627022498956px"/><path d="M136.66,123.8a18.29,18.29,0,0,0-.06-4l-3.19-.74c-.18-.79-.43-1.65-.67-2.45l2.33-2.33c-.31-.61-.56-1.23-.92-1.84a15.42,15.42,0,0,0-1.17-1.72l-3.13.92a13.83,13.83,0,0,0-1.83-1.84l.85-3.12a20.86,20.86,0,0,0-3.55-2l-2.21,2.4a18.66,18.66,0,0,0-2.45-.68l-.8-3.19a18.29,18.29,0,0,0-4,.06l-.79,3.19c-.8.19-1.66.43-2.46.68l-2.33-2.33c-.61.3-1.22.55-1.83.92s-1.17.73-1.72,1.1l.92,3.13a16,16,0,0,0-1.84,1.84l-3.13-.86a20.15,20.15,0,0,0-2,3.55l2.39,2.27a11.64,11.64,0,0,0-.61,2.46l-3.19.79a18.29,18.29,0,0,0,.06,4l3.19.74c.18.79.43,1.65.67,2.45l-2.33,2.33c.31.61.55,1.22.92,1.84s.74,1.16,1.17,1.71l3.12-.92a17.76,17.76,0,0,0,1.84,1.84L107,137.1a20.15,20.15,0,0,0,3.55,2l2.27-2.39a12.4,12.4,0,0,0,2.45.62l.8,3.18a17.15,17.15,0,0,0,4-.06l.73-3.19c.8-.18,1.66-.42,2.45-.67l2.33,2.33c.62-.31,1.23-.55,1.84-.92s1.17-.74,1.72-1.16l-.92-3.07A16.82,16.82,0,0,0,130.1,132l3.13.86a20.52,20.52,0,0,0,2-3.56L132.86,127a16.82,16.82,0,0,0,.67-2.45Zm-19,10.3A12.14,12.14,0,1,1,130,122.2,12.18,12.18,0,0,1,117.65,134.1Z" style="fill:none;stroke:#bcba40;stroke-miterlimit:10;stroke-width:0.822582030903555px"/></g></svg>