<svg id="Layer_1" data-name="Layer 1" xmlns="http://www.w3.org/2000/svg" viewBox="0 0 195 179"><g id="module203"><g id="Layer_6" data-name="Layer 6"><path d="M87.3,121.57v-1.14m.9,38.2L88,146.33l-.24-12.21h0M98.3,109l-.9,1.22-.89,1.31-.82,1.3-.81,1.3-.82,1.31-.73,1.38-.73,1.39-.66,1.38L91.29,121l-.24.66m-7.33-.25L83,120l-.73-1.39-.73-1.38-.82-1.39-.81-1.38L79,113l-.89-1.3-.9-1.3-1-1.31h0" style="fill:none;stroke:#bcba40"/><polygon points="83.72 121.33 84.13 122.14 84.53 123.37 85.02 124.59 85.59 125.81 86 127.03 86.41 128.25 86.65 129.47 86.98 130.7 87.3 132 87.46 133.22 87.71 134.53 87.71 134.53 87.71 133.96 87.79 132.57 88.12 131.35 88.44 130.04 88.61 128.82 88.93 127.52 89.34 126.3 89.75 125 90.15 123.86 90.56 122.55 91.21 121.41 91.21 121.41 91.05 121.49 90.89 121.66 90.56 121.82 90.15 121.9 89.83 121.98 89.58 122.06 89.26 122.06 88.85 122.06 88.52 121.98 88.12 121.9 87.79 121.74 87.63 121.57 87.3 121.41 87.3 121.41 87.22 121.49 86.98 121.66 86.65 121.82 86.41 121.9 86.08 121.98 85.75 122.06 85.51 122.06 85.18 122.06 84.86 121.98 84.53 121.9 84.21 121.74 84.04 121.57 83.88 121.41 83.72 121.33" style="fill:none;stroke:#bcba40"/><polygon points="90.15 101.29 90.48 101.54 90.64 101.86 90.97 102.11 91.21 102.43 91.37 102.76 91.37 103.17 91.54 103.49 91.54 103.82 91.7 104.23 91.7 104.63 91.7 104.71 91.7 104.71 91.54 106.51 91.37 108.38 91.29 110.17 91.05 112.05 90.89 113.84 90.56 115.63 90.23 117.5 89.91 119.29 89.91 119.38 84.45 119.38 84.45 119.29 84.13 117.5 83.72 115.63 83.56 113.84 83.31 112.05 83.15 110.17 82.9 108.38 82.82 106.51 82.74 104.71 82.74 104.71 82.74 104.63 82.74 104.23 82.74 103.82 82.82 103.49 82.9 103.17 83.07 102.76 83.31 102.43 83.39 102.11 83.72 101.86 83.96 101.54 84.13 101.29 90.15 101.29" style="fill:none;stroke:#bcba40"/><path d="M84.12,101.29l-.32.25-.25.24-.24.25-.16.32-.17.33-.16.32-.08.33-.08.33v.89h0l.08,1.79.08,1.88L83,110l.17,1.79.24,1.79.25,1.79.32,1.8.33,1.79v.08m5.86-17.76.25.25.24.24.25.25.24.32.16.33.17.32.08.33.08.33v.89h0l-.08,1.79-.08,1.88L91.29,110l-.16,1.79-.24,1.79-.25,1.79-.32,1.8L90,119v.08" style="fill:none;stroke:#bcba40"/><polygon points="87.3 103.82 87.63 103.82 88.03 103.66 88.52 103.57 88.93 103.33 89.26 103.17 89.66 102.92 89.91 102.6 90.23 102.27 90.56 102.03 90.89 101.62 91.05 101.29 91.37 100.89 91.45 100.48 91.54 100.07 91.78 99.58 91.78 99.58 93 98.52 94.55 96.65 94.55 96.65 95.04 96.57 95.77 96.57 96.26 96.57 96.99 96.65 97.48 96.73 98.22 96.81 98.7 96.98 99.36 97.14 99.93 97.38 100.42 97.71 100.82 97.87 100.82 97.87 100.82 97.87 101.31 98.12 101.8 98.2 102.29 98.28 102.78 98.36 103.18 98.36 103.59 98.36 104.08 98.28 104.57 98.2 105.06 98.12 105.38 97.95 105.95 97.71 106.36 97.55 106.77 97.22 107.01 96.98 107.5 96.65 107.75 96.33 108.07 95.92 108.31 95.59 108.48 95.1 108.48 95.1 109.37 94.53 109.37 94.53 109.46 94.21 109.7 93.88 109.7 93.39 109.78 92.99 109.78 92.58 109.78 92.17 109.7 91.76 109.7 91.36 109.62 90.95 109.37 90.54 109.29 90.14 108.97 89.73 108.8 89.4 108.48 89.08 108.15 88.75 107.83 88.51 107.58 88.34 107.17 88.1 106.85 87.94 106.44 87.77 105.95 87.69 105.55 87.61 105.14 87.61 104.73 87.61 104.32 87.61 103.92 87.69 103.92 87.69 103.67 87.77 102.78 87.94 101.8 88.18 100.74 88.51 99.84 88.83 98.87 89.24 97.89 89.65 97.08 90.05 97.08 90.05 96.75 90.3 96.42 90.46 96.26 90.62 95.85 90.79 95.53 90.87 95.12 90.87 94.8 90.95 94.55 90.87 94.22 90.87 93.82 90.79 93.49 90.62 93.17 90.46 93.17 90.46 92.35 90.22 91.37 89.89 90.4 89.56 89.34 89.32 88.28 89.16 87.3 89 87.22 89 86.16 89.16 85.02 89.32 84.13 89.56 83.07 89.89 82.09 90.22 81.27 90.46 81.27 90.46 80.87 90.62 80.62 90.79 80.3 90.87 79.97 90.87 79.64 90.95 79.24 90.87 78.83 90.87 78.5 90.79 78.26 90.62 77.94 90.46 77.61 90.3 77.45 90.05 77.45 90.05 76.55 89.65 75.57 89.24 74.59 88.83 73.62 88.51 72.72 88.18 71.75 87.94 70.69 87.77 70.6 87.69 70.6 87.69 70.2 87.61 69.79 87.61 69.38 87.61 68.97 87.61 68.57 87.69 68.08 87.77 67.67 87.94 67.35 88.1 66.94 88.34 66.53 88.51 66.21 88.75 65.96 89.08 65.72 89.4 65.39 89.73 65.23 90.14 64.98 90.54 64.9 90.95 64.66 91.36 64.58 91.76 64.58 92.17 64.58 92.58 64.58 92.99 64.66 93.39 64.82 93.88 64.9 94.21 64.98 94.53 64.98 94.53 65.96 95.1 65.96 95.1 66.13 95.59 66.45 95.92 66.78 96.33 66.94 96.65 67.35 96.98 67.75 97.22 68.16 97.55 68.57 97.71 68.97 97.95 69.38 98.12 69.79 98.2 70.28 98.28 70.85 98.36 71.34 98.36 71.75 98.36 72.23 98.28 72.72 98.2 73.13 98.12 73.54 97.87 73.54 97.87 73.54 97.87 73.94 97.71 74.59 97.38 75.17 97.14 75.74 96.98 76.31 96.81 76.88 96.73 77.53 96.65 78.02 96.57 78.75 96.57 79.32 96.57 79.97 96.65 79.97 96.65 81.44 98.52 82.74 99.58 82.74 99.58 82.82 100.07 82.9 100.48 83.15 100.89 83.31 101.29 83.64 101.62 83.88 102.03 84.13 102.27 84.53 102.6 84.86 102.92 85.27 103.17 85.59 103.33 86 103.57 86.49 103.66 86.89 103.82 87.22 103.82 87.3 103.82" style="fill:none;stroke:#bcba40"/><polygon points="70.03 91.11 70.03 90.87 70.2 90.62 70.2 90.38 70.36 90.14 70.6 89.97 70.93 89.81 71.09 89.65 71.42 89.56 71.66 89.48 71.83 89.48 72.23 89.48 72.48 89.56 72.72 89.65 72.72 89.65 72.8 89.65 73.45 89.73 73.94 89.81 74.43 89.97 75.08 90.14 75.57 90.38 75.98 90.62 76.55 90.95 77.04 91.19 77.45 91.6 77.85 91.93 77.85 91.93 77.94 91.93 78.18 92.09 78.42 92.17 78.67 92.33 78.83 92.5 78.99 92.74 79.16 92.9 79.24 93.15 79.24 93.47 79.24 93.47 79.24 93.72 79.24 94.37 79.24 95.1 79.24 95.35 79.24 95.35 78.67 95.43 77.85 95.51 76.88 95.59 76.06 95.59 75.17 95.51 74.35 95.43 73.54 95.35 73.54 95.35 73.37 94.86 73.13 94.45 72.97 94.05 72.64 93.64 72.23 93.23 71.91 92.9 71.5 92.5 71.09 92.25 70.69 91.93 70.28 91.68 70.03 91.52 70.03 91.11" style="fill:none;stroke:#bcba40"/><path d="M70,91.6l.09.73.16,1.06.49,1,.81,1m-1.06,0-.89-.65-.49-.49-.41-.82-.24-.08m-.74,0,.41,1.14.49.73.41.41.65.41M67,94.45l.57.73.65.49.41.41m-2.93-3.26.08,1.06.24.73.65.74.49.24m-1.38-.41.41.25" style="fill:none;stroke:#bcba40"/><polygon points="104.49 91.11 104.41 90.87 104.32 90.62 104.08 90.38 104 90.14 103.75 89.97 103.59 89.81 103.27 89.65 103.1 89.56 102.78 89.48 102.61 89.48 102.29 89.48 101.96 89.56 101.8 89.65 101.8 89.65 101.56 89.65 101.07 89.73 100.42 89.81 99.93 89.97 99.44 90.14 98.87 90.38 98.38 90.62 97.89 90.95 97.48 91.19 97.08 91.6 96.67 91.93 96.67 91.93 96.59 91.93 96.26 92.09 96.1 92.17 95.85 92.33 95.61 92.5 95.45 92.74 95.36 92.9 95.28 93.15 95.12 93.47 95.12 93.47 95.28 93.72 95.12 94.37 95.28 95.1 95.12 95.35 95.12 95.35 95.85 95.43 96.67 95.51 97.48 95.59 98.3 95.59 99.11 95.51 100.01 95.43 100.82 95.35 100.82 95.35 101.07 94.86 101.23 94.45 101.56 94.05 101.88 93.64 102.13 93.23 102.45 92.9 102.86 92.5 103.27 92.25 103.59 91.93 104.08 91.68 104.49 91.52 104.49 91.11" style="fill:none;stroke:#bcba40"/><path d="M104.49,91.6l-.08.73-.17,1.06-.49,1-.81,1m1,0,.89-.65.49-.49.41-.82.24-.08m.82,0-.41,1.14-.49.73-.41.41-.65.41m2.53-1.55-.57.73-.65.49-.41.41m3.09-3.26-.08,1.06-.24.73-.65.74-.49.24m1.14-.41-.41.25M81.68,97l.33.73.4.57.49.49.41.65m.24-1.71.09.41.32.57.49.49.16.24M84.7,98l.16.41.41.25.24.24.24.24.09.17v.08M85.75,98l.49.66.08.32.17.49M87.3,98l.16.41v.41l.09.49m1.79-2-.41.9-.16.73-.17.49m1.88-1.55-.49.57-.41.41-.08.41-.08.08m2.36-1.55-.57.73-.08.25-.08.32-.16.17" style="fill:none;stroke:#bcba40"/></g><g id="Layer_4" data-name="Layer 4"><polyline points="117.44 55.19 117.6 54.38 116.22 56.82 115.4 60.33 114.67 63.34 115.08 65.29 117.03 68.39 118.98 71.48 119.88 72.54 122.81 78.65 123.63 83.86 124.77 91.03 125.75 100.48 125.91 105.69 125.91 113.92 123.87 121.17 122 128.42 120.21 135.75 117.28 144.14 115.4 149.19 113.53 155.38 111.74 160.59 110.76 165.72" style="fill:none;stroke:#bcba40"/><polyline points="55.13 54.87 54.88 54.05 56.27 56.5 57.16 60 57.9 63.01 57.49 64.97 55.54 68.06 53.5 71.16 52.69 72.22 49.75 78.33 48.86 83.54 47.8 90.7 46.66 100.15 46.66 105.37 46.66 113.59 48.69 120.84 50.57 128.09 52.36 135.42 55.37 143.81 57.16 148.86 58.96 155.05 60.83 160.26 61.89 165.39" style="fill:none;stroke:#bcba40"/></g><g id="Layer_4-2" data-name="Layer 4"><polyline points="117.44 55.44 117.6 54.62 116.22 57.07 115.4 60.57 114.67 63.58 115.08 65.54 117.03 68.63 118.98 71.73 119.88 72.79 122.81 78.89 123.63 84.11 124.77 91.28 125.75 100.72 125.91 105.94 125.91 114.16 123.87 121.41 122 128.66 120.21 135.99 117.28 144.38 115.4 149.43 113.53 155.62 111.74 160.83 110.76 165.96" style="fill:none;stroke:#bcba40"/><polyline points="55.13 55.11 54.88 54.3 56.27 56.74 57.16 60.24 57.9 63.26 57.49 65.21 55.54 68.31 53.5 71.4 52.69 72.46 49.75 78.57 48.86 83.78 47.8 90.95 46.66 100.4 46.66 105.61 46.66 113.84 48.69 121.09 50.57 128.34 52.36 135.66 55.37 144.05 57.16 149.1 58.96 155.29 60.83 160.51 61.89 165.64" style="fill:none;stroke:#bcba40"/></g><path d="M54.88,54.62c-2.52-12.87,3-26,2.29-39" style="fill:none;stroke:#bcba40"/><path d="M117.6,54.62c2.53-12.87-3-26-2.28-39" style="fill:none;stroke:#bcba40"/></g><g id="Layer_3" data-name="Layer 3"><path d="M102.13,36.22c5.13,11.32-5.71,24.27.73,35" style="fill:none;stroke:#bcba40"/><path d="M97.24,36.05c-1.55,2.69-.9,6.19-.49,9.21.57,4.39-.65,8.63-.73,13-.08,8.88.65,20.52-7.42,26.14-8.06-5.7-7.33-17.35-7.41-26.14,0-4.4-1.22-8.64-.65-13,.41-3,1.06-6.44-.49-9.21" style="fill:none;stroke:#bcba40"/><path d="M74.35,71.24c6.44-10.75-4.4-23.7.73-35" style="fill:none;stroke:#bcba40"/><path d="M81.27,58c.09,8.88-.65,20.53,7.42,26.15-8.56,0-9.13-11.81-16.29-14.26-1.88-.65-4.24-2.6-3.18-4.88s-.33-7.33-1.47-11.89" style="fill:none;stroke:#bcba40"/><path d="M109.62,53.48c-1.14,4.65-2.69,9-1.47,11.89s-1.3,4.24-3.26,4.89c-7.08,2.44-7.65,14.25-16.12,14.25,8.06-5.7,7.33-17.34,7.41-26.14a47.24,47.24,0,0,1,.33-4.89" style="fill:none;stroke:#bcba40"/><path d="M102.94,71.32c-3.42-5.62-2-11.81-.73-18.08" style="fill:none;stroke:#bcba40"/><path d="M75.17,53.48c1.3,6.19,2.52,12.3-.82,17.84" style="fill:none;stroke:#bcba40"/></g><g id="Layer_11" data-name="Layer 11"><path d="M86.65,76.21a3.16,3.16,0,0,0-1.71-3s-6.27-1.79-7.58-3.82c0,0-7.24-5.38-.65-12.38,0,0,5.22-4.65,17.19-3.26,0,0,7.17.73,8.06,7.08,0,0,1.06,8.47-9.61,11.81a3.92,3.92,0,0,0-1.79,1.63A3.24,3.24,0,0,0,90.4,76L90.56,80c.81,1.55.65,1.88.65,1.88-.32,1.54-1.87.73-2,.57s-.4-.33-.48-1.39h0c-.09,1.06-.33,1.22-.49,1.39s-1.71,1.06-2-.57c0,0-.16-.25.65-1.88Z" style="fill:none;stroke:#bcba40;stroke-miterlimit:10;stroke-width:0.75px"/><path d="M99.52,56c2.36-1.47.32-10.67.32-10.67h-1c1.87,6.51-.25,9.93-.25,9.93Z" style="fill:none;stroke:#bcba40;stroke-miterlimit:10;stroke-width:0.75px"/><path d="M76.22,57.15c-2.6-1.14-1.46-10.59-1.46-10.59h1.06c-1.22,6.76,1.3,9.86,1.3,9.86Z" style="fill:none;stroke:#bcba40;stroke-miterlimit:10;stroke-width:0.75px"/><path d="M87.3,75.64a3.42,3.42,0,0,0-1.14-2.85S81.93,71.08,81,69.12a9.47,9.47,0,0,1-.49-11.81s3.5-4.48,11.57-3.09c0,0,4.8.73,5.45,6.76,0,0,.66,8.14-6.43,11.32A2.64,2.64,0,0,0,90,73.85a4,4,0,0,0-.16,1.71V79.3c.57,1.47.48,1.79.48,1.79-.24,1.55-1.3.66-1.38.57s-.24-.24-.33-1.3h0c-.08,1.06-.24,1.14-.32,1.3s-1.14,1-1.39-.57c0,0-.16-.24.49-1.79Z" style="fill:none;stroke:#bcba40;stroke-miterlimit:10;stroke-width:0.75px"/><path d="M83.88,54C62.46,62.44,86.57,73,86.57,73" style="fill:none;stroke:#bcba40;stroke-miterlimit:10;stroke-width:0.75px"/><line x1="81.84" y1="56.09" x2="81.11" y2="55.19" style="fill:none;stroke:#bcba40;stroke-miterlimit:10;stroke-width:0.75px"/><line x1="80.87" y1="57.07" x2="79.56" y2="56.01" style="fill:none;stroke:#bcba40;stroke-miterlimit:10;stroke-width:0.75px"/><line x1="80.13" y1="58.13" x2="78.34" y2="56.82" style="fill:none;stroke:#bcba40;stroke-miterlimit:10;stroke-width:0.75px"/><line x1="79.56" y1="59.27" x2="77.36" y2="57.72" style="fill:none;stroke:#bcba40;stroke-miterlimit:10;stroke-width:0.75px"/><line x1="79.16" y1="60.24" x2="76.55" y2="58.53" style="fill:none;stroke:#bcba40;stroke-miterlimit:10;stroke-width:0.75px"/><line x1="78.91" y1="60.98" x2="75.9" y2="59.27" style="fill:none;stroke:#bcba40;stroke-miterlimit:10;stroke-width:0.75px"/><line x1="78.83" y1="62.36" x2="75.33" y2="60.41" style="fill:none;stroke:#bcba40;stroke-miterlimit:10;stroke-width:0.75px"/><line x1="78.75" y1="63.5" x2="75" y2="61.79" style="fill:none;stroke:#bcba40;stroke-miterlimit:10;stroke-width:0.75px"/><line x1="75.25" y1="63.34" x2="79.08" y2="65.05" style="fill:none;stroke:#bcba40;stroke-miterlimit:10;stroke-width:0.75px"/><line x1="80.13" y1="67.82" x2="77.61" y2="67.17" style="fill:none;stroke:#bcba40;stroke-miterlimit:10;stroke-width:0.75px"/><line x1="76.22" y1="65.54" x2="79.4" y2="66.43" style="fill:none;stroke:#bcba40;stroke-miterlimit:10;stroke-width:0.75px"/><path d="M81,69l-1.47-.16" style="fill:#009fe3;stroke:#bcba40;stroke-miterlimit:10;stroke-width:0.75px"/><line x1="82.82" y1="54.46" x2="83.07" y2="55.36" style="fill:none;stroke:#bcba40;stroke-miterlimit:10;stroke-width:0.75px"/><line x1="83.88" y1="53.89" x2="84.21" y2="54.7" style="fill:none;stroke:#bcba40;stroke-miterlimit:10;stroke-width:0.75px"/><line x1="85.67" y1="53.56" x2="85.84" y2="54.3" style="fill:none;stroke:#bcba40;stroke-miterlimit:10;stroke-width:0.75px"/><line x1="87.46" y1="53.48" x2="87.46" y2="53.97" style="fill:none;stroke:#bcba40;stroke-miterlimit:10;stroke-width:0.75px"/><line x1="89.58" y1="53.4" x2="89.5" y2="53.81" style="fill:none;stroke:#bcba40;stroke-miterlimit:10;stroke-width:0.75px"/><line x1="91.94" y1="53.48" x2="91.94" y2="54.13" style="fill:none;stroke:#bcba40;stroke-miterlimit:10;stroke-width:0.75px"/><line x1="94.79" y1="53.81" x2="93.57" y2="54.62" style="fill:none;stroke:#bcba40;stroke-miterlimit:10;stroke-width:0.75px"/><line x1="97.08" y1="54.62" x2="95.04" y2="55.6" style="fill:none;stroke:#bcba40;stroke-miterlimit:10;stroke-width:0.75px"/><line x1="98.79" y1="55.68" x2="96.18" y2="56.82" style="fill:none;stroke:#bcba40;stroke-miterlimit:10;stroke-width:0.75px"/><line x1="100.5" y1="57.31" x2="97.08" y2="58.7" style="fill:none;stroke:#bcba40;stroke-miterlimit:10;stroke-width:0.75px"/><line x1="101.47" y1="58.94" x2="97.48" y2="60.16" style="fill:none;stroke:#bcba40;stroke-miterlimit:10;stroke-width:0.75px"/><line x1="101.88" y1="60.73" x2="97.56" y2="62.04" style="fill:none;stroke:#bcba40;stroke-miterlimit:10;stroke-width:0.75px"/><line x1="101.64" y1="63.75" x2="97.4" y2="64.32" style="fill:none;stroke:#bcba40;stroke-miterlimit:10;stroke-width:0.75px"/><line x1="100.9" y1="65.86" x2="96.75" y2="66.19" style="fill:none;stroke:#bcba40;stroke-miterlimit:10;stroke-width:0.75px"/><line x1="99.19" y1="68.31" x2="95.77" y2="68.31" style="fill:none;stroke:#bcba40;stroke-miterlimit:10;stroke-width:0.75px"/><line x1="97.73" y1="69.77" x2="94.55" y2="69.77" style="fill:none;stroke:#bcba40;stroke-miterlimit:10;stroke-width:0.75px"/><line x1="95.12" y1="71.48" x2="92.92" y2="71.24" style="fill:none;stroke:#bcba40;stroke-miterlimit:10;stroke-width:0.75px"/><line x1="93.25" y1="72.3" x2="91.62" y2="71.97" style="fill:none;stroke:#bcba40;stroke-miterlimit:10;stroke-width:0.75px"/></g><g id="Layer_10" data-name="Layer 10"><polyline points="77.77 40.94 78.18 40.94 78.75 40.86 79.4 40.86 79.73 40.78 80.05 40.78 80.3 40.45 80.38 40.21 80.46 39.88 80.46 39.72 80.38 39.39 80.54 39.23 80.54 38.9 80.62 38.58 80.7 38.25 80.7 37.93 80.7 37.6 80.7 37.19 80.7 36.95 80.62 36.54 80.54 36.46 80.54 36.3 80.62 36.13 80.7 35.89 80.78 35.48 80.78 34.99 80.78 34.59 80.78 35.32 80.78 35.56 80.78 35.81 80.95 36.13 81.11 36.38 81.27 36.62 81.36 36.7 81.76 36.95 82.09 37.11 82.01 37.44 82.01 37.68 81.93 37.76 81.93 37.93 81.93 38.01 81.93 38.09 82.01 38.17 82.01 38.25 82.01 38.33 82.01 38.5 82.01 38.58 82.09 38.74 82.09 38.82 82.17 38.9 82.17 38.98 82.25 38.98 82.33 38.98 82.33 38.98 82.41 38.98 82.5 38.98 82.5 38.98 82.58 38.9 82.74 38.9 82.74 38.9 82.74 38.82 82.82 38.82 82.82 38.74 82.66 38.01 82.66 37.76 82.66 37.68 82.74 37.6 82.74 37.52 82.82 37.27 82.9 36.54 82.98 36.13 83.07 35.73 83.07 35.56 83.15 35.48 83.23 35.24 83.23 35.08 83.39 34.83 83.56 34.67 83.72 34.51 83.88 34.34 84.04 34.26 84.29 34.02 84.29 34.02 84.29 34.02 84.29 33.94 84.29 33.94 84.29 33.94 84.29 33.85 84.29 33.85 84.29 33.85 84.29 33.85 84.21 33.77 84.21 33.77 84.21 33.77 84.13 33.77 84.13 33.77 84.13 33.77 84.04 33.77 84.04 33.85 83.96 33.85 83.72 33.94 83.56 34.02 83.47 34.1 83.39 34.1 83.39 34.1 83.31 34.18 83.23 34.18 83.23 34.1 83.23 34.02 83.15 33.94 83.15 33.94 83.07 33.85 82.98 33.77 82.98 33.77 82.82 33.61 82.74 33.61 82.74 33.53 82.58 33.53 82.58 33.53 82.5 33.53 82.41 33.61 82.41 33.61 82.33 33.69 82.33 33.77 82.33 33.77 82.33 33.77 82.41 33.85 82.66 34.02 82.74 34.1 82.74 34.18 82.74 34.26 82.74 34.26 82.74 34.34 82.74 34.59 82.66 34.67 82.5 34.83 82.5 34.99 82.33 35.24 82.33 35.4 82.17 35.65 82.09 35.97 82.17 36.13 82.17 36.3 82.17 36.38 82.01 36.3 81.76 36.13 81.6 35.89 81.52 35.56 81.44 35.16 81.44 34.91 81.44 34.67 81.52 34.59 81.52 34.42 81.52 34.26 81.52 34.18 81.44 34.18 81.36 34.18 81.27 34.02 81.11 33.94 81.03 33.94 80.78 33.94 80.62 33.94 80.46 33.94 80.38 34.02 80.38 34.02 80.3 34.18 80.22 34.26 80.13 34.26 80.13 34.34 80.05 34.51 80.05 34.59 80.05 34.75 80.05 34.99 80.05 35.16 79.97 35.48 79.89 35.81 79.81 35.97 79.73 36.13 79.56 36.3 79.32 36.54 79.16 36.7 79.08 36.79 78.91 36.95 78.75 37.11 78.75 37.19 78.26 37.6 77.53 38.41 77.28 38.58 77.2 38.74 76.96 38.98 76.79 39.23 76.63 39.55 76.55 39.72 76.47 39.88 76.31 40.21 76.14 40.45 75.82 40.86 75.74 40.94 75.65 41.02 75.57 41.1 75.41 41.1 75.25 41.27 75.9 41.1 76.55 41.02 77.04 41.02 77.45 40.94 77.77 40.94" style="fill:#444;stroke:#bcba40;stroke-width:0.5px"/><path d="M77.77,40.94h2.28l.17-.33v-4.8l.16.32.16.25.25.24h.08l.32.25.33.16v.81h0V38h0v.16h0v.16h.08v.17h.65l-.16-.74v.08h0v-.16h.08v-.16l.16-.73V35.08l.17-.25.16-.16.16-.16.25-.17h.16l.24-.16H82.33l.17.16h.08v.33l-.17.16V35l-.16.25v1.14l-.16-.16-.25-.17-.16-.24V34.1H81.6l-.16-.16H80v.16h0v1.46l-.16.17-.25.24-.24.16h-.08l-.16.17-.17.16H78.5l-.4.33-.57,1-.25.25v.16l-.16.24-.16.25-.17.24v.33l-.16.24-.16.25-.25.32H78.1m9-1.46h0m0,0h0M82.5,38h0m0,0h0m.16-5.22h0m0,0h0m1.87.25h0m0,0h0M74,43.55h-.66l-.57.16-.57.24-.24.17-.73.32-.66.16h-.73l-.73.17-.65.24-.65.33-.49.32h-.57V44.12l-.09-1.39-.16-1-.24-1.22L66,39.31l-.41-1.14L65.39,37l-.16-1.14v-2l.16-.82.25-.81.16-.49.57-1,.65-.9.57-.73.57-.57.9-.65.65-.49.73-.33,1.06-.48,1.3-.49h.25l.89-.17H77.2L79,26.2l2.12.32.49.17h.57l.81.16H85.1l.25.16.16.25v.48l-.16.33v4l.16.49.16.65.17.9.32,1.3v1.87l-.16.25-.16.24-.17.25-.24.24-.33.25-.32.24-.74.49-.57.33-.49.32-.57.33H81" style="fill:#444;stroke:#bcba40;stroke-width:0.5px"/><path d="M74.35,43.79H73.7l-.57.16-.57.25-.25.16-.73.33-.65.16H70.2l-.74.16-.65.25-.65.32-.49.33H67.1V44.36L67,43l-.16-1-.25-1.22-.32-1.22-.41-1.15-.16-1.14-.17-1.14v-2l.17-.82.24-.81.16-.49.57-1,.66-.89.57-.73.57-.57.89-.66.65-.49.74-.32,1.06-.49,1.3-.49h.24l.9-.16h3.26l1.79.16,2.12.33.49.16h.57l.81.16h2.12l.24.17.17.24V28l-.17.33v4l.17.48.16.66.16.89.33,1.31v1.87l-.17.24-.16.25-.16.24-.25.25-.32.24L85.1,39l-.73.49-.57.33-.49.33-.57.32H81.36M88.77,38h-1v-.17l-.16-.16-.17-.16V35.4l-.16-.24v-.33l-.16-.24V28.15L87.3,28h12.87v.16h0v.17h-.08V29l-.16.24v.16l-.17.25-.16.24-.16.25-.17.24-.16.25-.16.24-.33.49-.32.49-.33.4-.24.41-.41.49-.16.16-.17.17-.16.16-.16.16-.16.17-.17.16-.24.16-.25.16-.32.25-.25.16-.49.25-1.22.57-1.3.48-.65.25-.73.24-.33.17H88.44m1.14,1.05H87.79v-.16l-.16-.16-.17-.16v-2l-.16-.24v-.33l-.16-.24V28.15L87.3,28h12.87v.16h0v.17h-.08V29l-.16.24v.16l-.17.25-.16.24-.16.25-.17.24-.16.25-.16.24-.33.49-.32.49-.33.4-.24.41-.41.49-.16.16-.17.17-.16.16-.16.16-.16.17-.17.16-.24.16-.25.16-.32.25-.25.16-.49.25-1.22.57-1.3.48-.65.25-.73.24-.33.17H88.44m-1.79.65h0v.32h.41l.24.25.25.16h.24m-1.22-1.55h0V37H87l.24.24.24.17h.25m.73-.25h0m0,0h0M87.3,34.83h0m0,0h0m-.08.16h0m0,0h0m-.08.17h0m0,0h0m0,.16h0m0,0h0m.08.08h0m0,0h0m.08,0h0m0,0h0m.08,0h0m0,0h0m.17.16h0m0,0h0m.08.17h0m0,0h0m.08.16h0m0,0h0m.08.16h0m0,0h0m.08.17h0m0,0h0m.16.16h0m0,0h0m.17.16h0m0,0h0m1.22-.32h-.73m.73-.57h-.73M80.7,38h.66l.24-.17h.24l.17-.16h-.74l.17-.16h.08m-1.63,1.06h.65l.25-.17H81l.16-.16h.08l.17-.16h.08M77,26.28H74.84" style="fill:#444;stroke:#bcba40;stroke-width:0.5px"/><path d="M76.63,26H74.51M77,26h.65M77,26h.65m.24,0h.57m-.57-.08h.57m-3.66.25h-2m2-.17h-2m2.28-.16h1.31m-1.31-.08h1.31m.24,0h.65m-.65-.08h.65M74.11,26h1.22m-1.22,0h1.22m.24,0h1m-1-.08h1M73,26h1.38M73,26h1.38m.41,0h1m-1,0h1m-2.86.17h1.31m-1.31,0h1.31m.41.08h.65m-.65,0h.65m-3-.16h1.39m-1.39,0h1.39m.49,0h.65M74.11,26h.65m-1.63.33H74m-.9-.08H74m-2.86.32h.9m-.9,0h.9m.33.09h.89m-.89-.09h.89m-2.69.17h1.14m-1.14-.08h1.14m.49,0h.65m-.65,0h.65m-2.68.16h1.14m-1.14,0h1.14m.32,0h.49m-.49,0h.49m-1,0H72m-.57-.08H72m-1.06.08h.57m-.57-.08h.57M70,26.85h1.22m-.89.49h.49m-.49,0h.49m-2.12,1.14.49-.16h.41m-.9.24.49-.16h.41m.24-.08h.57M70,28.4h.41m-1.71.73.57-.16h.57m-1.06.24.57-.16h.57m-1.3.89.32-.16h.82M68.57,30l.32-.17h.82M67,31.17l-.33.16h-.24l-.24.16H66l-.32.16M67.1,31l-.32.17h-.25l-.24.16H66l-.32.16m1.79-.73.41-.16.32-.17m-.73.25.41-.17.32-.16m.25-.16L69,30l.65-.17m-1.14.33L69,30l.65-.17m-2.37,1.31-.32.16-.57.24-.49.25m1.38-.65-.32.16-.57.24-.49.25m1.55-.74.41-.16.48-.16.41-.16.41-.17m-1.71.65.41-.16.48-.16.41-.16.41-.17m-1.14,1-.49.16-.57.25-1.06.57m2.12-1-.49.16-.57.25-1.06.57m2.36-1.06.57-.16L69.3,31h.25m-1.31.41.57-.16.49-.17h.25m-1.63,1.06-.57.25-.74.32L66,33m2-1-.57.25-.74.32L66,33m2.2-1.06.57-.16.65-.25m-1.22.41.57-.16.65-.25m-1.3,1-.49.16-.57.25-.49.24-.49.24m2-1-.49.16-.57.24-.49.25-.49.24m3.59,3.91-.57.25-.57.16m1-.41-.57.25-.57.16m-.16.57-.73.33-.57.32-.49.25-.16.16m2-1.06-.73.33-.57.32-.49.25-.16.16m2.2-1.14.48-.16.49-.17m-1,.33.48-.16.49-.17m-1.06.9-.73.32-.57.33-.57.33m1.87-1-.73.32-.57.33-.57.33m2-1.14.49-.17.48-.16m-.89.33.49-.17.49-.16m-1,.9-.33.16-.49.33-.4.24-.66.41m1.88-1.14-.33.16-.49.33-.4.24-.66.41m2-1.31.33-.16.4-.16m-.73.32.33-.16.4-.16m-.81.89-.49.33-.65.33-.73.48m1.87-1.14-.49.33-.65.33-.73.48m2.11-1.3.25-.16.32-.17m-.57.25.25-.16.32-.17m-.65.9-.73.41-.65.4-.65.41m2-1.22-.73.41-.65.4-.65.41M69,39.64l.32-.17.33-.16m-.65.33.32-.17.33-.16m-1,1.06-.49.33-.32.24-.33.24-.57.33m1.79-1.14-.49.33-.32.24-.33.24-.57.33m1.87-.73-.48.32-.66.49-.65.49m1.63-1.14-.49.33-.65.48-.65.49m1.55-.49-.49.33-.49.33-.57.32m1.47-1-.49.33-.49.33-.57.32m1.55-.57-.41.25-.49.32-.57.33m1.47-1-.41.24-.49.33-.57.33m1.47-.49-.41.32-.49.33-.49.32m1.63-.73-.41.33-.49.32-.49.33m1.55-3.26.33-.24.32-.25m-.73.49.33-.24.32-.25m-.65,2,.33-.25.32-.24m-.65.49.33-.25.32-.24m-.65,1.06.49-.33m-.49.33.49-.33m.08-6.51h.33m-.33.08h.33m-.74,5.29.33-.24.33-.16m-.66.48.33-.24.33-.16m-.82.73.41-.33.32-.24m-.73.57.41-.33.32-.24m-.08,1.14.25-.24m-.25.24.25-.24m25.16-7h-.16m.16,0h-.16m-.08.16h-.16m.16.09h-.16M87.3,37.36h.33m-.33-.25h.33m.08-.24h.49m-.49-.25h.49m-.08-.32h.32m-.32-.17h.32m.08-.24h.17m-.17-.16h.17m.08-.17h.16m-.16-.08h.16m.24-.08-.24-.16m.24.16-.24-.16m.49-.08h.24m-.24,0h.24m.17-.17H90m-.16-.08H90m.16-.24h.17m-.17-.08h.17m.24-.25h.16m-.16-.08h.16m.08-.16h.25m-.25,0h.25m.08-.16h.24m-.24-.09h.24m.09-.16v.16m-.09-.16v.16m.17-.24h.16" style="fill:#444;stroke:#bcba40;stroke-width:0.5px"/><path d="M91.7,36.22h.16m.57-.25h-.32m.32,0h-.32m2-.73h0m.08,0H94m-.08.16h-.16m.16,0h-.16m-.17.16h-.16m.16,0h-.16m-.08.09h-.16m.16,0h-.16m-.09,0h-.16m.16,0h-.16m-.08.08h-.16m.16,0h-.16m-.08.08h-.17m.17,0h-.17M94,35.16h-.16m.16,0h-.16M82.17,39h.57m-.57.25h.57m0-5.13h-.33m.33-.25h-.33m1.71,0h.25m-.25-.16h.25M82.58,39.8h-.17m.17.08h-.17m0,.16h-.16m.16.09h-.16m0,.16h-.16m.16.08h-.16m-.08.16h-.17m.17,0h-.17m-1.54.74.32.16m-.32-.16.32.16m-.16-.33.33.17m-.33-.17.33.17m-.25-.33.33.24m-.33-.24.33.24m.08-.89.32.16M81,40.29l.32.16m-.08-.24.33.16m-.33-.16.33.16M81.44,40l.24.17M81.44,40l.24.17m0-.25.25.17M81.68,40l.25.17m-9.62,3.5h-.24m.24,0h-.24m.16.16H72m.24,0H72m-.57.33h-.25m.25,0h-.25m.49-.09h-.24m.24,0h-.24m.32-.16H71.5m.24,0H71.5m-.73.33h-.25m.25,0h-.25m0,.08h-.24m.24,0h-.24m-.16.08h-.25m.25,0h-.25m-.73.24h-.25m.25,0h-.25m0,.17h-.16m.25,0h-.25m0,.16h-.24m.24,0h-.24m-1.06-.33v-.16m.08.16v-.16m-.08.41v-.16m.08.16v-.16m4.89-.9h-.25m.25,0h-.25m-2.28.73h-.24m.24,0h-.24M68,44.28v-.16m.08.16v-.16m.49-.09v-.16m.08.16v-.16m.81-.16v-.16m.09.16v-.16m.32,0h0m.08.16v-.16m.33-.09V43.3m.08.16V43.3m.24,0v-.16m.09.16v-.16m.24.08v-.16m.08.16v-.16m.33,0v-.17m.08.17v-.17m.24,0v-.16m.08.16v-.16m.74-.08v-.16m.08.16v-.16m.41.16v-.16m.08.16v-.16m.32.08h0l-.08-.16m.17.24h0l-.09-.16m.41.16v-.24m.16.24v-.24m.33.16H72v-.16m.08.24h0L72,42.49m.32.16h-.16m.16.16h-.16m.41.08v-1m.08.16v-.16m.41.16h0v-.16m.08.16h0v-.16m.33.08h0v-.16m.08.16h0v-.16m.32.16h0m0,.16h0m.33.08h-.57m.16.17h-.16m.32.08v-.25m.09.25v-.25m.32.08-.16-.24m.16.24-.16-.24m.24.08V42m.08.16V42m.25.08h-.33m.08.08h0m.09.08h0m0,.08h0m.16.09h0m0,.08h0m.16.08h0m0,.08h0m.16.08h0m0,.08h0m4.73-.32H80l.33.16m-.57-.33h.16l.33.17m-.82-.33.16.16h.49m-.65-.48.16.16h.49m-5.94.24v.33m-.17-.33v.33m-3.09.81h1m-1-.89h1m-.74-1.06.17.24.16.17.16.16h.82m-1.23-1.06.17.24.16.17.16.16h.82m-.17-1.38h0l.17.16h.57m-.65-.41h0l.16.16h.57m-.41-.48h.49m-.49-.33h.49M73,38.74h.65m-.49-.24h.49m-.16-.33.16.16h.16m-.32-.24.16.16h.16m-.08-.32h.24m-.24-.17h.24m.17-.16h-.17v-.16m.25.16H74v-.16m.24-.08v.16h.08m-.08-.25v.17h.08m11.24-9.53h-.73m.73.32h-.73m.65.66-.16-.17H84.7m.89.33-.16-.16h-.65m.73.57H84.7m.81.48H84.7m.73.74H84.7m.73.57H84.7m.65.81h-.49m.49.33h-.49m.41.65h-.41m.41.32h-.41m.41.66H84.7m.57.32H84.7m.4.57h0v-.16h-.32m.4.33h0v-.17h-.32m.41.57H85l-.16-.16m.41.33H85l-.16-.17m.41.57-.17-.16h-.24m.32.33L85,36.05h-.24m.32.49h-.16l-.16-.16m.32.24h-.16l-.16-.16m1.06-2.52H85.1m.74.24H85.1" style="fill:#444;stroke:#bcba40;stroke-width:0.5px"/><path d="M87.3,29.94h-1l-.48.25m1.3.08h-.65l-.33.16-.24.17m1.3-.49h-.65l-.33.16-.24.16m1.06,0h-.9l-.24.17H86m1.14-.49h-.9l-.24.16h.08m1.22-.08h-.65l-.33.16-.24.16m1.14-.57h-.65l-.33.17-.24.16M87,30h-.25l-.24.16h-.08l-.17.16-.16.16m.9-.57h-.25l-.24.17h-.08l-.17.16-.16.16m1-.24-.25.16-.16.16h-.16l-.17.17h-.08m.9-.57-.25.16-.16.16h-.16l-.16.17h-.09m.9-.25-.16.16h-.25l-.24.25m.73-.57-.16.16h-.25l-.24.25m.65,0-.16.16h-.08l-.17.16m.49-.32-.16.16h-.08l-.16.16m.48,0-.16.16v2.61h-.08m.33-.33-.17.17v.24H87.3m.49-.08-.16.16h-1m.33-.32-.17.16h-.16m.33.08-.17.17h-.08m.25-.33-.17.16h-.08m.33.17-.17.16h-.08m.25-.25-.17.17h-.08m.25.24-.17.16v.17m.25-.33-.16.16v.17m.24.16-.16.16v.17m.24-.33-.16.16v.17m-7,5.78.33.16m-.33-.16.33.16m-.16-.24.32.16m-.32-.16.32.16m-9.85,1.79v-.16m.08.16v-.16M70,44.44h-.24m.24,0h-.24m1.46-.32h-.24m.24,0h-.24m-2.2-.25v-.16m.08.16v-.16" style="fill:#444;stroke:#bcba40;stroke-width:0.5px"/><polygon points="78.02 42.08 78.02 42.08 77.94 42.08 77.94 42.08 77.94 42.08 77.94 42.08 77.94 42.08 78.02 42.08" style="fill:#444;stroke:#bcba40;stroke-width:0.5px"/><polygon points="78.34 42.08 78.34 42.08 78.26 42.08 78.34 42.08" style="fill:#444;stroke:#bcba40;stroke-width:0.5px"/><polygon points="78.75 42.08 78.67 42.08 78.67 42.08 78.67 42.08 78.59 42.08 78.67 42.08 78.67 42.16 78.67 42.08 78.75 42.08" style="fill:#444;stroke:#bcba40;stroke-width:0.5px"/><polygon points="77.2 42 77.12 42 77.12 42 77.12 42.08 77.2 42" style="fill:#444;stroke:#bcba40;stroke-width:0.5px"/><polygon points="77.45 42.08 77.36 42 77.36 42.08 77.36 42.08 77.45 42.08" style="fill:#444;stroke:#bcba40;stroke-width:0.5px"/><polygon points="77.69 41.92 77.61 41.92 77.61 41.92 77.61 41.92 77.69 41.92" style="fill:#444;stroke:#bcba40;stroke-width:0.5px"/><polygon points="76.96 42 76.96 42 76.96 42 76.88 42 76.79 42 76.88 42.08 76.96 42.08 76.96 42.08 76.96 42" style="fill:#444;stroke:#bcba40;stroke-width:0.5px"/><polygon points="76.88 41.75 76.79 41.75 76.71 41.75 76.79 41.75 76.88 41.75" style="fill:#444;stroke:#bcba40;stroke-width:0.5px"/><polygon points="76.39 42 76.39 41.92 76.31 42 76.39 42" style="fill:#444;stroke:#bcba40;stroke-width:0.5px"/><polygon points="76.71 42.16 76.63 42.16 76.63 42.16 76.63 42.24 76.71 42.16" style="fill:#444;stroke:#bcba40;stroke-width:0.5px"/><polygon points="76.06 41.75 75.98 41.75 75.98 41.75 75.98 41.75 76.06 41.75" style="fill:#444;stroke:#bcba40;stroke-width:0.5px"/><polygon points="76.06 42.08 75.98 42.08 75.9 42.08 75.98 42.08 76.06 42.08" style="fill:#444;stroke:#bcba40;stroke-width:0.5px"/><polygon points="76.55 41.67 76.55 41.67 76.47 41.67 76.39 41.67 76.39 41.67 76.39 41.67 76.47 41.67 76.55 41.67" style="fill:#444;stroke:#bcba40;stroke-width:0.5px"/><polygon points="77.2 41.67 77.12 41.67 77.12 41.67 77.12 41.67 77.2 41.67" style="fill:#444;stroke:#bcba40;stroke-width:0.5px"/><polygon points="78.02 41.67 78.02 41.67 78.02 41.67 77.94 41.67 77.94 41.67 77.94 41.67 78.02 41.75 78.02 41.75 78.02 41.67" style="fill:#444;stroke:#bcba40;stroke-width:0.5px"/><polygon points="77.77 41.59 77.69 41.51 77.61 41.59 77.69 41.59 77.77 41.59" style="fill:#444;stroke:#bcba40;stroke-width:0.5px"/><polygon points="77.45 41.67 77.45 41.67 77.36 41.67 77.45 41.67" style="fill:#444;stroke:#bcba40;stroke-width:0.5px"/><polygon points="75.74 41.84 75.74 41.84 75.65 41.84 75.65 41.84 75.74 41.84" style="fill:#444;stroke:#bcba40;stroke-width:0.5px"/><polygon points="75.17 41.92 75.08 41.92 75 41.92 75.08 41.92 75.17 41.92" style="fill:#444;stroke:#bcba40;stroke-width:0.5px"/><polygon points="74.68 42.08 74.68 42 74.59 42.08 74.68 42.08" style="fill:#444;stroke:#bcba40;stroke-width:0.5px"/><polygon points="75.49 41.84 75.49 41.84 75.41 41.84 75.41 41.84 75.41 41.84 75.41 41.84 75.41 41.84 75.49 41.84" style="fill:#444;stroke:#bcba40;stroke-width:0.5px"/><polygon points="78.26 41.75 78.18 41.67 78.18 41.75 78.18 41.75 78.26 41.75" style="fill:#444;stroke:#bcba40;stroke-width:0.5px"/><polygon points="78.5 41.75 78.42 41.75 78.34 41.75 78.42 41.75 78.5 41.75" style="fill:#444;stroke:#bcba40;stroke-width:0.5px"/><polygon points="78.91 41.84 78.83 41.84 78.83 41.84 78.83 41.92 78.91 41.84" style="fill:#444;stroke:#bcba40;stroke-width:0.5px"/><polygon points="79.16 41.92 79.16 41.92 79.08 41.92 79.16 42 79.16 41.92" style="fill:#444;stroke:#bcba40;stroke-width:0.5px"/><polygon points="78.99 42.24 78.91 42.24 78.83 42.24 78.91 42.24 78.99 42.24" style="fill:#444;stroke:#bcba40;stroke-width:0.5px"/><polyline points="74.11 43.55 73.86 43.47 73.78 43.47 73.7 43.38 73.62 43.3 73.45 43.22 73.45 43.14 73.37 43.06 73.37 42.89 73.37 42.81 73.37 42.65 73.45 42.49 73.62 42.32 73.78 42.24 74.11 42.08 74.35 41.92 74.68 41.84 75 41.67 75.41 41.59 75.74 41.51 76.14 41.43 76.39 41.43 76.71 41.35 77.04 41.35 77.2 41.35 77.53 41.35 77.69 41.35 77.94 41.43 78.18 41.43 78.34 41.51 78.67 41.59 78.83 41.67 79.08 41.67 79.24 41.75 79.32 41.75 79.48 41.84 79.48 42 79.24 42.24 79.08 42.41 79.08 42.49 78.83 42.57 78.42 42.81 78.34 42.89 78.02 43.06 77.77 43.14 77.36 43.3 76.96 43.47 76.71 43.47 76.63 43.55 76.31 43.55 76.06 43.55 75.74 43.63 75.49 43.63 75.25 43.63 74.76 43.63 74.43 43.55 74.27 43.55 74.11 43.55" style="fill:#444;stroke:#bcba40;stroke-width:0.5px"/><polyline points="74.11 43.55 73.86 43.47 73.78 43.47 73.7 43.38 73.62 43.3 73.45 43.22 73.45 43.14 73.37 43.06 73.37 42.89 73.37 42.81 73.37 42.65 73.45 42.49 73.62 42.32 73.78 42.24 74.11 42.08 74.35 41.92 74.68 41.84 75 41.67 75.41 41.59 75.74 41.51 76.14 41.43 76.39 41.43 76.71 41.35 77.04 41.35 77.2 41.35 77.53 41.35 77.69 41.35 77.94 41.43 78.18 41.43 78.34 41.51 78.67 41.59 78.83 41.67 79.08 41.67 79.24 41.75 79.32 41.75 79.48 41.84 79.48 42 79.24 42.24 79.08 42.41 79.08 42.49 78.83 42.57 78.42 42.81 78.34 42.89 78.02 43.06 77.77 43.14 77.36 43.3 76.96 43.47 76.71 43.47 76.63 43.55 76.31 43.55 76.06 43.55 75.74 43.63 75.49 43.63 75.25 43.63 74.76 43.63 74.43 43.55 74.27 43.55 74.11 43.55" style="fill:#444;stroke:#bcba40;stroke-width:0.5px"/><polyline points="88.44 39.64 88.36 39.55 88.03 39.47 87.87 39.31 87.71 39.23 87.46 38.98 87.38 38.9 87.14 38.58 87.06 38.5 86.98 38.41 86.98 38.33 86.81 38.09 86.73 37.84 86.65 37.6 86.65 37.44 86.57 37.19 86.57 37.11 86.57 36.95 86.57 36.87 86.49 36.62 86.41 36.46 86.32 36.22 86.24 36.05 86.16 35.81 86.08 35.4 86 35.16 85.92 34.99 85.83 34.67 85.83 34.42 85.75 34.26 85.75 34.02 85.67 33.85 85.59 33.61 85.51 33.37 85.51 33.12 85.51 32.8 85.43 32.55 85.43 32.31 85.43 32.06 85.43 31.9 85.43 31.74 85.43 31.49 85.43 31.33 85.51 31.08 85.51 30.92 85.51 30.84 85.59 30.6 85.59 30.51 85.67 30.19 85.67 30.11 85.75 29.86 85.83 29.7 85.83 29.54 85.92 29.45 85.92 29.37 86 29.29 86.08 29.13 86.08 29.05 86.16 28.89 86.24 28.72 86.32 28.56 86.49 28.32 86.49 28.15 86.57 28.07 86.65 27.91 86.65 27.75 86.65 27.66 86.65 27.58 86.65 27.5 86.57 27.34 86.41 27.26 86.24 27.18 86.16 27.18 85.83 27.09 85.75 27.09 85.51 27.01 85.35 27.01 84.69 26.93 84.29 26.93 83.64 26.93 82.74 26.85 82.01 26.69 81.44 26.69 80.95 26.52 80.38 26.44 79.89 26.36 79.56 26.28 79.16 26.12 78.91 26.12 78.67 26.12 78.42 26.03 78.26 26.03 78.02 25.95 77.77 25.95 77.53 25.95 77.2 25.95 76.79 25.95 76.47 25.95 76.22 25.95 75.9 25.95 75.65 25.95 75.33 25.95 74.84 25.95 74.51 25.95 74.27 26.03 74.03 26.03 73.78 26.03 73.21 26.12 72.97 26.12 72.72 26.2 72.4 26.28 72.15 26.36 71.83 26.44 71.5 26.44 71.17 26.61 70.93 26.69 70.69 26.77 70.28 26.93 69.87 27.09 69.55 27.34 69.22 27.5 69.06 27.58 68.81 27.75 68.73 27.91 68.49 27.99 68.41 28.07 68.24 28.32 68 28.56 67.75 28.8 67.59 28.97 67.35 29.45 67.18 29.62 67.1 29.86 66.94 30.02 66.78 30.19 66.53 30.68 66.37 31.08 66.21 31.41 66.13 31.57 66.04 31.74 65.96 31.9 65.88 32.14 65.88 32.31 65.8 32.47 65.72 32.63 65.72 32.71 65.64 32.96 65.55 33.04 65.55 33.2 65.55 33.37 65.47 33.53 65.47 33.69 65.47 33.85 65.47 33.85" style="fill:none;stroke:#bcba40;stroke-width:0.5px"/></g><g id="Layer_8" data-name="Layer 8"><path d="M109.62,40.7c-.73,1,.16,3-.25,4.15s-.57.57-.81,1.14.65.9.81,1.71-.73,1.79-.65,2.61.57.81.57,1.3-.65,1-.65,1.71.57,1.06.57,1.47a1.89,1.89,0,0,1-.57,1.05,19.3,19.3,0,0,0-.57,3.1,19.6,19.6,0,0,1-.73,2.93c-.57,1.71-2.12,5.54-3.59,3.83a3.22,3.22,0,0,1-3.58.57c-1.71,1-4.81.41-4.15-2.2-.17-.16-.9-.08-.66-.41s.74.09,1.06,0c-.73,2.37,1.39,3.1,3.1,2.45.08-.41-.73-.25-.33-.65s.49.24.9.32.49-.24.81-.16,0,.24-.08.49c1.39.4,2.45-.49,3.18-1s.16.65.57.73,1.14-1.14,1.46-1.71a10.74,10.74,0,0,0,1-2.28c1-2.69.9-5.13,1.88-6.92a2.69,2.69,0,0,1,.16-3.18c-.08-.4-.57-.73-.57-1.14s.65-1.46.65-2.28-.73-1.55-.81-2,.73-1.06.89-1.55-.24-1.55-.16-2.45.49-1.3.41-1.79a5,5,0,0,0-.66-1.3c-.24-.49.33-.33.33-.73s-.73-1-.73-1.8.49-1,.57-1.38a3.5,3.5,0,0,0-.9-3.18c.33-.89.73-1.06.57-2.36s-1.38-3.58-3.34-3.58-1.63.73-2.36.73-.65-.16-1-.16-1.14,1.3-1.79,1.38-.9-.16-1.3,0-1.06,1.47-1.47,2.12-.41,0-.65-.08S95.69,31.57,95,31.9s-1.79-.16-2.61.24-.57.57-.89.65-1.06-.08-1.63,0A6.57,6.57,0,0,1,88,33l-.57-.25a2.43,2.43,0,0,0-1.95,1c-.24-.49.24-.73.16-1.38s-2.52-1.55-3.17-1c-.66-.9-1.31-2.61-2.61-2.52s-.73.57-1.14.32.65-.57,1.06-.73c-1.22-1.63-4.56-.57-5.13,1.06h1c1.14.08,2.61.73,2.77,1.71s-.81-.57-1.3-.74S73,30.19,72.31,32s.09,2.53-.24,3.83-.49.81-.49,1.06,1,.81,1,1.38-.57,1.31-.49,2.12.41.81.41,1.06-.65,1.06-.65,1.71.48,1.79.48,2.52-.48,1-.48,1.39.48,1.06.57,1.71a4,4,0,0,0-1.06,3A9.53,9.53,0,0,0,72,54.38a13.41,13.41,0,0,1,.08,1.79,1.06,1.06,0,0,1,.08.49v.16c.41,1.55,1.39,2.2,2.2,2h.41c.89.08.89,1.38.89,2.12s.49.81.66.08a4,4,0,0,0-.74-2.69,1.71,1.71,0,0,0,.57-.73h.49v-.25a6.71,6.71,0,0,0,0-1.79c-.24-2-1.71-3.5-2.2-5.38s.65-3.82.57-5.7c-.08-.57-.24-1.06-.32-1.71-.33-2.93,1.3-5.29.73-8.55-.24-.41-.9-.41-1.06-1s.73.25,1,.41-.16-1,.16-.9.25.74.33,1.14S77.61,35,78.5,35.81s1.72,2,2.37,2.36,1.79-.08,2.6.41.33.57.57.73,2.85-.16,4.56-.16a.87.87,0,0,1,.17.89,4.25,4.25,0,0,0,3-.89,5.51,5.51,0,0,1,2.53-.9,4.61,4.61,0,0,0,2.28-.65c.81-.49,1.38-1.38,2.28-1.71a6.24,6.24,0,0,0,1.79-.49c.24-.16.32-.49.57-.73s1.55-.65,1.71-1.79.81.16,1.22-.09.16-.73.33-1,1.38.65,1.3-.74c.57.17.65-.32,1-.16s-.25.57-.57.57a1.08,1.08,0,0,1-1.06,1.06.65.65,0,0,1-.33-.08c-.16.24-.16.57-.4.73a4.78,4.78,0,0,1-1.06.08,19.62,19.62,0,0,0-.25,2.37c-.16.89-.57,1.46-.4,2.28s.57.65.65,1a5.64,5.64,0,0,1-.25,1.47c-.08.57.17,1.71.17,2.77a18.92,18.92,0,0,0,.16,3c.24,1.47-.41,2.45-.33,3.42s.82,1.55.74,2.37-1,1.46-1,2.28.65.81.65,1.3-.49.73-.73,1.06c-.33.57-.65,1.14-1,1.79.33.25,1.06.49,1,1.06s-.65-.57-1.23-.65-1.46.57-2.11.89-.25-.57-.49-.65-1.14.08-1.71,0-.73-1-1.06-1.38a3.47,3.47,0,0,0-3.26-1.06c-2.69.24-6.27,2.77-6.6,5.7s.49,2.93.74,4.32,0,.65.08,1,1.06.9,1.22,2-.08.9-.08,1.3c.16,2,2.36,1.47,2-.57s-.89-1-1.14-1.38v-.33a12.21,12.21,0,0,1-1-.89c-1.39-1.71-1.23-5.21-.25-7s.9-1.46,1.39-1.71-.66,1.06-1,1.71a9.55,9.55,0,0,0-.9,2.53,5.24,5.24,0,0,0,3.51,5.86c.08.08.32.25.16.41a13.31,13.31,0,0,0,2.6-3.67c.09-.32-.08-.73.25-.89s.08,1,0,1.14a9,9,0,0,1-1.47,2.36c-.4.57-1.46,1.39-1.63,2.2s.57,1.87,1.23,1.79,1.3-2.69,1.71-3.66,1.38-2.53,1.38-4.08-1.06-3.25-2.28-3.25-1.14.48-1.79.32.41-.49.65-.57c2.2-.65,3.66,1.22,3.66,3.59s-.89,2.68-1.38,4.23-.81,3.42-1.71,3.91" style="fill:#444;stroke:#bcba40;stroke-width:2px"/></g><g id="Layer_9" data-name="Layer 9"><path d="M97.08,51.61c-.25-3.26-.66-7,.73-9.86a7.16,7.16,0,0,1,3-2.6c0-.33-1,.24-1.06.24s-2,1.79-3.17,1.22-.08-.32-.17-.48-.08-1.06.25-1.06l.89.16-.65-.33c-.16-.08,0-.89.25-.73s2.52,1,3.58.16A2.82,2.82,0,0,0,102,36.05c-.4,1.71-1.95,2.93-3.09,1.55s-.49-5.13,1.14-6.68l.49-.49c3.82-2.77,8.63.65,9.2,6.19,1.55,2.85.49,4.81.24,7.66s-1.79,8.39-6.51,8.39-6-3.83-4.73-8.47c.33-1.39,1.47-2.45,2.28-1.88a2.39,2.39,0,0,0,.41-1c-.89-.49-2.36.73-2.85,1.79-1.3,2.44-.89,5.7-1,8.55-.16.9-.48.73-.48-.08Z" style="fill:#444;stroke:#bcba40;stroke-width:0.75px"/><path d="M101,42.32a1.9,1.9,0,0,1,.58,1.8c-.41.73-1.23.81-1.8,1.3s-.08.65-.08,1.14.25.49.25.81.57.74,1,1.06,1.31-2.36,1.39-3.25.08-1.47.57-1.31.41.9.24,1.22-1.06,3.83-.24,4,.65.41.89.09.66.08,1-.25.9.08.73-.65a5.11,5.11,0,0,0-1.38-3.09c-.33-.49-.9-2.45-.24-2.77s.89,1.3,1,1.87.57,2.85,1.55,3.42.65-.65,1-1.06.08-.41.41-.89.32-.74,0-1a11.14,11.14,0,0,1-2-1.39c-.33-.4-1.39-1.14-.9-1.71s.57-.08.82.17,1.63,1.87,2.69,1.87.08-.49.24-.73-.08-.57.08-.9-.16-.65,0-1c.08-.16,0-.24-.16-.32h0A6.35,6.35,0,0,0,106,40.7c-.49.08-1.3.16-1.38-.74s1.14-.57,1.46-.4a3.42,3.42,0,0,0,2,.89c.24,0,1.14.08.81-.57s.25-.57-.16-1.14.25-1.22-.32-1.22a3.37,3.37,0,0,0-2.29.73c-.57.49-2,.73-2-.32s1.38-.9,1.71-.74a2.93,2.93,0,0,0,2.2.17c.65-.25.08-.74.16-1.31s-.32-.49-.32-1.06-.33-.81-.57-.57a6.63,6.63,0,0,0-1.63,1.39c-1.06,1.14-1.47-.41-.57-.73s2.12-.74,1.71-1.72-.74-.24-.82-.73-.65-.32-.81-.73-.33-.41-.49-.08a4.6,4.6,0,0,0-.33,2.36c.17,1.71-.81,1.87-.89.08s-.08-2.77-.49-3.09-.41.08-.9,0-.4.32-.24.57a8.16,8.16,0,0,1,.65,2,4.4,4.4,0,0,0-1-2c-.32-.49-.49.32-.65.49s-.32,1-.57,1.3a.78.78,0,0,0,.25,1,8.86,8.86,0,0,0,2,.49c-.65-.17-1.46,3.5-3.17,1.05s-.49-4.15.73-5.45l.49-.49c3.83-2.77,8.63.65,9.2,6.19,1.55,2.85.49,4.8.25,7.65a9.24,9.24,0,0,1-2.28,5.3c-2.77,3.26-8.15,2.61-9-2.69a7.6,7.6,0,0,1,.08-2.77c.24-1.3,1.38-2.28,2.2-1.71Z" style="fill:none;stroke:#bcba40;stroke-width:0.75px"/><line x1="104.81" y1="32.39" x2="104.57" y2="34.34" style="fill:none;stroke:#bcba40;stroke-width:0.75px"/><line x1="104.89" y1="32.47" x2="104.57" y2="34.34" style="fill:none;stroke:#bcba40;stroke-width:0.75px"/><line x1="105.06" y1="32.39" x2="104.65" y2="34.26" style="fill:none;stroke:#bcba40;stroke-width:0.75px"/><line x1="105.22" y1="32.39" x2="104.65" y2="34.26" style="fill:none;stroke:#bcba40;stroke-width:0.75px"/><line x1="105.38" y1="32.31" x2="104.81" y2="34.26" style="fill:none;stroke:#bcba40;stroke-width:0.75px"/><line x1="105.46" y1="32.47" x2="104.81" y2="34.34" style="fill:none;stroke:#bcba40;stroke-width:0.75px"/><line x1="105.63" y1="32.55" x2="104.81" y2="34.34" style="fill:none;stroke:#bcba40;stroke-width:0.75px"/><line x1="105.79" y1="32.63" x2="104.89" y2="34.42" style="fill:none;stroke:#bcba40;stroke-width:0.75px"/><line x1="104.89" y1="34.42" x2="105.87" y2="32.71" style="fill:none;stroke:#bcba40;stroke-width:0.75px"/><line x1="105.87" y1="32.96" x2="104.98" y2="34.42" style="fill:none;stroke:#bcba40;stroke-width:0.75px"/><line x1="106.03" y1="32.96" x2="104.98" y2="34.42" style="fill:none;stroke:#bcba40;stroke-width:0.75px"/><line x1="106.03" y1="33.12" x2="104.98" y2="34.51" style="fill:none;stroke:#bcba40;stroke-width:0.75px"/><line x1="106.2" y1="33.2" x2="105.06" y2="34.51" style="fill:none;stroke:#bcba40;stroke-width:0.75px"/><line x1="106.2" y1="33.36" x2="105.06" y2="34.59" style="fill:none;stroke:#bcba40;stroke-width:0.75px"/><line x1="106.28" y1="33.45" x2="105.06" y2="34.59" style="fill:none;stroke:#bcba40;stroke-width:0.75px"/><line x1="105.06" y1="34.59" x2="106.28" y2="33.61" style="fill:none;stroke:#bcba40;stroke-width:0.75px"/><line x1="105.06" y1="34.67" x2="106.28" y2="33.85" style="fill:none;stroke:#bcba40;stroke-width:0.75px"/><line x1="105.06" y1="34.75" x2="106.2" y2="33.94" style="fill:none;stroke:#bcba40;stroke-width:0.75px"/><line x1="105.06" y1="34.83" x2="106.2" y2="34.18" style="fill:none;stroke:#bcba40;stroke-width:0.75px"/><line x1="102.53" y1="34.02" x2="101.64" y2="32.31" style="fill:none;stroke:#bcba40;stroke-width:0.75px"/><line x1="102.45" y1="34.1" x2="101.47" y2="32.31" style="fill:none;stroke:#bcba40;stroke-width:0.75px"/><line x1="102.37" y1="34.02" x2="101.39" y2="32.47" style="fill:none;stroke:#bcba40;stroke-width:0.75px"/><line x1="102.29" y1="34.18" x2="101.23" y2="32.39" style="fill:none;stroke:#bcba40;stroke-width:0.75px"/><line x1="102.21" y1="34.1" x2="101.15" y2="32.55" style="fill:none;stroke:#bcba40;stroke-width:0.75px"/><line x1="102.29" y1="34.26" x2="100.98" y2="32.63" style="fill:none;stroke:#bcba40;stroke-width:0.75px"/><line x1="102.13" y1="34.18" x2="100.9" y2="32.96" style="fill:none;stroke:#bcba40;stroke-width:0.75px"/><line x1="102.13" y1="34.26" x2="100.82" y2="33.12" style="fill:none;stroke:#bcba40;stroke-width:0.75px"/><line x1="102.13" y1="34.34" x2="100.66" y2="33.28" style="fill:none;stroke:#bcba40;stroke-width:0.75px"/><line x1="102.04" y1="34.42" x2="100.66" y2="33.45" style="fill:none;stroke:#bcba40;stroke-width:0.75px"/><line x1="102.04" y1="34.42" x2="100.58" y2="33.69" style="fill:none;stroke:#bcba40;stroke-width:0.75px"/><line x1="102.04" y1="34.51" x2="100.41" y2="33.85" style="fill:none;stroke:#bcba40;stroke-width:0.75px"/><line x1="102.04" y1="34.59" x2="100.5" y2="34.02" style="fill:none;stroke:#bcba40;stroke-width:0.75px"/><line x1="102.04" y1="34.67" x2="100.33" y2="34.26" style="fill:none;stroke:#bcba40;stroke-width:0.75px"/><line x1="106.12" y1="36.79" x2="107.75" y2="37.19" style="fill:none;stroke:#bcba40;stroke-width:0.75px"/><line x1="106.12" y1="36.7" x2="107.91" y2="37.11" style="fill:none;stroke:#bcba40;stroke-width:0.75px"/><line x1="106.28" y1="36.62" x2="107.91" y2="36.87" style="fill:none;stroke:#bcba40;stroke-width:0.75px"/><line x1="106.2" y1="36.46" x2="107.99" y2="36.7" style="fill:none;stroke:#bcba40;stroke-width:0.75px"/><line x1="106.28" y1="36.46" x2="108.07" y2="36.46" style="fill:none;stroke:#bcba40;stroke-width:0.75px"/><line x1="106.2" y1="36.38" x2="108.07" y2="36.3" style="fill:none;stroke:#bcba40;stroke-width:0.75px"/><line x1="106.28" y1="36.3" x2="107.99" y2="35.97" style="fill:none;stroke:#bcba40;stroke-width:0.75px"/><line x1="106.28" y1="36.22" x2="107.91" y2="35.81" style="fill:none;stroke:#bcba40;stroke-width:0.75px"/><line x1="106.28" y1="36.13" x2="107.91" y2="35.48" style="fill:none;stroke:#bcba40;stroke-width:0.75px"/><line x1="106.2" y1="36.05" x2="107.91" y2="35.24" style="fill:none;stroke:#bcba40;stroke-width:0.75px"/><line x1="106.2" y1="35.97" x2="107.83" y2="35.08" style="fill:none;stroke:#bcba40;stroke-width:0.75px"/><line x1="106.2" y1="35.97" x2="107.83" y2="34.83" style="fill:none;stroke:#bcba40;stroke-width:0.75px"/><line x1="106.2" y1="35.89" x2="107.58" y2="34.67" style="fill:none;stroke:#bcba40;stroke-width:0.75px"/><line x1="106.12" y1="35.89" x2="107.58" y2="34.42" style="fill:none;stroke:#bcba40;stroke-width:0.75px"/><line x1="106.2" y1="39.15" x2="108.32" y2="39.8" style="fill:none;stroke:#bcba40;stroke-width:0.75px"/><line x1="106.28" y1="39.15" x2="108.48" y2="39.8" style="fill:none;stroke:#bcba40;stroke-width:0.75px"/><line x1="106.44" y1="38.98" x2="108.48" y2="39.64" style="fill:none;stroke:#bcba40;stroke-width:0.75px"/><line x1="106.44" y1="38.9" x2="108.64" y2="39.47" style="fill:none;stroke:#bcba40;stroke-width:0.75px"/><line x1="106.52" y1="38.9" x2="108.72" y2="39.31" style="fill:none;stroke:#bcba40;stroke-width:0.75px"/><line x1="106.44" y1="38.82" x2="108.72" y2="39.15" style="fill:none;stroke:#bcba40;stroke-width:0.75px"/><line x1="106.52" y1="38.82" x2="108.64" y2="38.98" style="fill:none;stroke:#bcba40;stroke-width:0.75px"/><line x1="106.44" y1="38.74" x2="108.56" y2="38.74" style="fill:none;stroke:#bcba40;stroke-width:0.75px"/><line x1="106.44" y1="38.66" x2="108.64" y2="38.5" style="fill:none;stroke:#bcba40;stroke-width:0.75px"/><line x1="106.44" y1="38.58" x2="108.56" y2="38.33" style="fill:none;stroke:#bcba40;stroke-width:0.75px"/><line x1="106.44" y1="38.58" x2="108.48" y2="38.17" style="fill:none;stroke:#bcba40;stroke-width:0.75px"/><line x1="106.36" y1="38.5" x2="108.48" y2="38.01" style="fill:none;stroke:#bcba40;stroke-width:0.75px"/><line x1="106.36" y1="38.5" x2="108.23" y2="37.84" style="fill:none;stroke:#bcba40;stroke-width:0.75px"/><line x1="106.28" y1="38.41" x2="108.32" y2="37.6" style="fill:none;stroke:#bcba40;stroke-width:0.75px"/><line x1="106.12" y1="41.67" x2="107.83" y2="43.22" style="fill:none;stroke:#bcba40;stroke-width:0.75px"/><line x1="106.2" y1="41.59" x2="108.07" y2="43.22" style="fill:none;stroke:#bcba40;stroke-width:0.75px"/><line x1="106.36" y1="41.59" x2="108.15" y2="42.98" style="fill:none;stroke:#bcba40;stroke-width:0.75px"/><line x1="106.28" y1="41.51" x2="108.32" y2="42.98" style="fill:none;stroke:#bcba40;stroke-width:0.75px"/><line x1="106.44" y1="41.51" x2="108.4" y2="42.81" style="fill:none;stroke:#bcba40;stroke-width:0.75px"/><line x1="106.36" y1="41.35" x2="108.56" y2="42.65" style="fill:none;stroke:#bcba40;stroke-width:0.75px"/><line x1="106.52" y1="41.35" x2="108.48" y2="42.41" style="fill:none;stroke:#bcba40;stroke-width:0.75px"/><line x1="106.44" y1="41.27" x2="108.48" y2="42.16" style="fill:none;stroke:#bcba40;stroke-width:0.75px"/><line x1="106.44" y1="41.18" x2="108.64" y2="41.92" style="fill:none;stroke:#bcba40;stroke-width:0.75px"/><line x1="106.44" y1="41.1" x2="108.56" y2="41.67" style="fill:none;stroke:#bcba40;stroke-width:0.75px"/><line x1="106.52" y1="41.1" x2="108.56" y2="41.43" style="fill:none;stroke:#bcba40;stroke-width:0.75px"/><line x1="106.44" y1="41.02" x2="108.64" y2="41.27" style="fill:none;stroke:#bcba40;stroke-width:0.75px"/><line x1="106.44" y1="40.94" x2="108.4" y2="41.02" style="fill:none;stroke:#bcba40;stroke-width:0.75px"/><line x1="106.36" y1="40.86" x2="108.56" y2="40.86" style="fill:none;stroke:#bcba40;stroke-width:0.75px"/><line x1="105.06" y1="44.03" x2="106.36" y2="46.72" style="fill:none;stroke:#bcba40;stroke-width:0.75px"/><line x1="105.14" y1="44.03" x2="106.52" y2="46.89" style="fill:none;stroke:#bcba40;stroke-width:0.75px"/><line x1="105.3" y1="44.2" x2="106.6" y2="46.72" style="fill:none;stroke:#bcba40;stroke-width:0.75px"/><line x1="105.3" y1="44.03" x2="106.85" y2="46.8" style="fill:none;stroke:#bcba40;stroke-width:0.75px"/><line x1="105.38" y1="44.2" x2="107.01" y2="46.72" style="fill:none;stroke:#bcba40;stroke-width:0.75px"/><line x1="105.38" y1="43.95" x2="107.09" y2="46.72" style="fill:none;stroke:#bcba40;stroke-width:0.75px"/><line x1="105.46" y1="44.03" x2="107.09" y2="46.4" style="fill:none;stroke:#bcba40;stroke-width:0.75px"/><line x1="105.46" y1="43.95" x2="107.18" y2="46.23" style="fill:none;stroke:#bcba40;stroke-width:0.75px"/><line x1="105.46" y1="43.95" x2="107.34" y2="46.07" style="fill:none;stroke:#bcba40;stroke-width:0.75px"/><line x1="105.46" y1="43.87" x2="107.42" y2="45.91" style="fill:none;stroke:#bcba40;stroke-width:0.75px"/><line x1="105.55" y1="43.87" x2="107.42" y2="45.66" style="fill:none;stroke:#bcba40;stroke-width:0.75px"/><line x1="105.55" y1="43.79" x2="107.5" y2="45.5" style="fill:none;stroke:#bcba40;stroke-width:0.75px"/><line x1="105.55" y1="43.71" x2="107.42" y2="45.18" style="fill:none;stroke:#bcba40;stroke-width:0.75px"/><line x1="105.46" y1="43.55" x2="107.58" y2="45.01" style="fill:none;stroke:#bcba40;stroke-width:0.75px"/><line x1="103.43" y1="45.42" x2="102.78" y2="48.03" style="fill:none;stroke:#bcba40;stroke-width:0.75px"/><line x1="103.43" y1="45.42" x2="102.86" y2="48.35" style="fill:none;stroke:#bcba40;stroke-width:0.75px"/><line x1="103.59" y1="45.66" x2="103.1" y2="48.35" style="fill:none;stroke:#bcba40;stroke-width:0.75px"/><line x1="103.67" y1="45.58" x2="103.18" y2="48.6" style="fill:none;stroke:#bcba40;stroke-width:0.75px"/><line x1="103.67" y1="45.83" x2="103.43" y2="48.6" style="fill:none;stroke:#bcba40;stroke-width:0.75px"/><line x1="103.75" y1="45.58" x2="103.59" y2="48.76" style="fill:none;stroke:#bcba40;stroke-width:0.75px"/><line x1="103.84" y1="45.83" x2="103.84" y2="48.6" style="fill:none;stroke:#bcba40;stroke-width:0.75px"/><line x1="103.92" y1="45.66" x2="104.08" y2="48.51" style="fill:none;stroke:#bcba40;stroke-width:0.75px"/><line x1="104" y1="45.66" x2="104.41" y2="48.6" style="fill:none;stroke:#bcba40;stroke-width:0.75px"/><line x1="104.08" y1="45.66" x2="104.57" y2="48.51" style="fill:none;stroke:#bcba40;stroke-width:0.75px"/><line x1="104.16" y1="45.66" x2="104.73" y2="48.43" style="fill:none;stroke:#bcba40;stroke-width:0.75px"/><line x1="104.16" y1="45.58" x2="104.98" y2="48.43" style="fill:none;stroke:#bcba40;stroke-width:0.75px"/><line x1="104.24" y1="45.58" x2="105.06" y2="48.19" style="fill:none;stroke:#bcba40;stroke-width:0.75px"/><line x1="104.24" y1="45.5" x2="105.38" y2="48.19" style="fill:none;stroke:#bcba40;stroke-width:0.75px"/><line x1="101.56" y1="44.69" x2="99.84" y2="45.75" style="fill:none;stroke:#bcba40;stroke-width:0.75px"/><line x1="101.64" y1="44.77" x2="99.76" y2="45.99" style="fill:none;stroke:#bcba40;stroke-width:0.75px"/><line x1="101.56" y1="44.93" x2="99.93" y2="46.15" style="fill:none;stroke:#bcba40;stroke-width:0.75px"/><line x1="101.64" y1="45.01" x2="99.84" y2="46.4" style="fill:none;stroke:#bcba40;stroke-width:0.75px"/><line x1="101.56" y1="45.09" x2="99.93" y2="46.64" style="fill:none;stroke:#bcba40;stroke-width:0.75px"/><line x1="101.72" y1="45.09" x2="100.01" y2="46.8" style="fill:none;stroke:#bcba40;stroke-width:0.75px"/><line x1="101.64" y1="45.26" x2="100.25" y2="46.97" style="fill:none;stroke:#bcba40;stroke-width:0.75px"/><line x1="101.72" y1="45.26" x2="100.41" y2="47.13" style="fill:none;stroke:#bcba40;stroke-width:0.75px"/><line x1="101.72" y1="45.34" x2="100.5" y2="47.46" style="fill:none;stroke:#bcba40;stroke-width:0.75px"/><line x1="101.88" y1="45.42" x2="100.66" y2="47.54" style="fill:none;stroke:#bcba40;stroke-width:0.75px"/><line x1="101.88" y1="45.42" x2="100.82" y2="47.62" style="fill:none;stroke:#bcba40;stroke-width:0.75px"/><line x1="101.96" y1="45.42" x2="100.9" y2="47.86" style="fill:none;stroke:#bcba40;stroke-width:0.75px"/><line x1="101.96" y1="45.5" x2="101.15" y2="47.78" style="fill:none;stroke:#bcba40;stroke-width:0.75px"/><line x1="102.04" y1="45.5" x2="101.31" y2="48.03" style="fill:none;stroke:#bcba40;stroke-width:0.75px"/><line x1="103.27" y1="33.69" x2="103.18" y2="31.65" style="fill:none;stroke:#bcba40;stroke-width:0.75px"/><line x1="103.18" y1="33.61" x2="103.02" y2="31.49" style="fill:none;stroke:#bcba40;stroke-width:0.75px"/><line x1="103.18" y1="33.53" x2="102.86" y2="31.49" style="fill:none;stroke:#bcba40;stroke-width:0.75px"/><line x1="103.02" y1="33.61" x2="102.78" y2="31.41" style="fill:none;stroke:#bcba40;stroke-width:0.75px"/><line x1="103.02" y1="33.53" x2="102.61" y2="31.41" style="fill:none;stroke:#bcba40;stroke-width:0.75px"/><line x1="102.94" y1="33.61" x2="102.53" y2="31.41" style="fill:none;stroke:#bcba40;stroke-width:0.75px"/><line x1="102.94" y1="33.53" x2="102.37" y2="31.65" style="fill:none;stroke:#bcba40;stroke-width:0.75px"/><line x1="102.86" y1="33.61" x2="102.21" y2="31.74" style="fill:none;stroke:#bcba40;stroke-width:0.75px"/></g></svg>