<svg id="Layer_1" data-name="Layer 1" xmlns="http://www.w3.org/2000/svg" viewBox="0 0 195 179"><path d="M144.5,93.66a9.59,9.59,0,0,1-9.6,9.58H58a9.6,9.6,0,0,1-9.6-9.58V54.34A9.6,9.6,0,0,1,58,44.77H134.9a9.59,9.59,0,0,1,9.6,9.57Z" style="fill:none;stroke:#fff;stroke-miterlimit:10;stroke-width:2.21106713075287px"/><path d="M131.41,110.1h11.53a4.13,4.13,0,0,1,.63.05v-4.5H49.35v4.5a4.46,4.46,0,0,1,.63-.05H61.52a4.78,4.78,0,0,1,4.8,4.78v3.74a4.79,4.79,0,0,1-4.8,4.79H50c-.21,0-.42,0-.63-.06v4.51h94.22v-4.51a5.86,5.86,0,0,1-.63.06H131.41a4.8,4.8,0,0,1-4.81-4.79v-3.74A4.79,4.79,0,0,1,131.41,110.1Zm-37.95,8.52a4.79,4.79,0,0,1-4.79,4.79H77.12a4.8,4.8,0,0,1-4.81-4.79v-3.74a4.79,4.79,0,0,1,4.81-4.78H88.67a4.78,4.78,0,0,1,4.79,4.78Zm27.15,0a4.79,4.79,0,0,1-4.8,4.79H104.26a4.79,4.79,0,0,1-4.8-4.79v-3.74a4.78,4.78,0,0,1,4.8-4.78h11.55a4.78,4.78,0,0,1,4.8,4.78Z" style="fill:#fff;stroke:#fff;stroke-miterlimit:10;stroke-width:1.47404475383524px"/><path d="M131.41,24.6h11.53a4.08,4.08,0,0,1,.63.06V20.15H49.35v4.51A4.48,4.48,0,0,1,50,24.6H61.52a4.79,4.79,0,0,1,4.8,4.79v3.74a4.79,4.79,0,0,1-4.8,4.79H50a3.38,3.38,0,0,1-.63-.07v4.51h94.22V37.85a3.12,3.12,0,0,1-.63.07H131.41a4.8,4.8,0,0,1-4.81-4.79V29.39A4.8,4.8,0,0,1,131.41,24.6ZM93.46,33.13a4.79,4.79,0,0,1-4.79,4.79H77.12a4.8,4.8,0,0,1-4.81-4.79V29.39a4.8,4.8,0,0,1,4.81-4.79H88.67a4.79,4.79,0,0,1,4.79,4.79Zm27.15,0a4.79,4.79,0,0,1-4.8,4.79H104.26a4.79,4.79,0,0,1-4.8-4.79V29.39a4.79,4.79,0,0,1,4.8-4.79h11.55a4.79,4.79,0,0,1,4.8,4.79Z" style="fill:#fff;stroke:#fff;stroke-miterlimit:10;stroke-width:1.47404475383524px"/><path d="M134,53.23a2.4,2.4,0,1,0,2.4-2.39A2.4,2.4,0,0,0,134,53.23Z" style="fill:#fff;stroke:#fff;stroke-miterlimit:10;stroke-width:0.368511188458811px;fill-rule:evenodd"/><path d="M110,66.16v2.63A2.16,2.16,0,0,0,112.19,71h26.57l-9.15-9a1.94,1.94,0,0,0-2.76,0l-1.94,1.9L120,59.07a2.13,2.13,0,0,0-2.9,0Z" style="fill:#fff;stroke:#fff;stroke-miterlimit:10;stroke-width:0.368511188458811px;fill-rule:evenodd"/><path d="M169.36,113.74c0,10.68-6.43,19.35-14.36,19.35H40c-7.91,0-14.35-8.67-14.35-19.35V34.26c0-10.68,6.44-19.34,14.35-19.34H155c7.93,0,14.36,8.66,14.36,19.34Z" style="fill:none;stroke:#fff;stroke-miterlimit:10;stroke-width:2.21106713075287px"/><path d="M70,92.25a1.23,1.23,0,0,1-1.26,1.2H65.66a1.23,1.23,0,0,1-1.26-1.2v-24a1.23,1.23,0,0,1,1.26-1.2h3.08A1.23,1.23,0,0,1,70,68.25Z" style="fill:none;stroke:#fff;stroke-miterlimit:10;stroke-width:1.10553356537643px"/><path d="M78.81,92.25a1.23,1.23,0,0,1-1.26,1.2H74.47a1.23,1.23,0,0,1-1.26-1.2v-24a1.23,1.23,0,0,1,1.26-1.2h3.08a1.23,1.23,0,0,1,1.26,1.2Z" style="fill:none;stroke:#fff;stroke-miterlimit:10;stroke-width:1.10553356537643px"/><path d="M87.62,92.25a1.24,1.24,0,0,1-1.26,1.2H83.28A1.23,1.23,0,0,1,82,92.25v-24a1.23,1.23,0,0,1,1.26-1.2h3.08a1.24,1.24,0,0,1,1.26,1.2Z" style="fill:none;stroke:#fff;stroke-miterlimit:10;stroke-width:1.10553356537643px"/><path d="M96.43,92.25a1.24,1.24,0,0,1-1.26,1.2H92.08a1.23,1.23,0,0,1-1.25-1.2v-24a1.23,1.23,0,0,1,1.25-1.2h3.09a1.24,1.24,0,0,1,1.26,1.2Z" style="fill:none;stroke:#fff;stroke-miterlimit:10;stroke-width:1.10553356537643px"/><path d="M105.24,92.25a1.24,1.24,0,0,1-1.26,1.2h-3.09a1.24,1.24,0,0,1-1.26-1.2v-24a1.24,1.24,0,0,1,1.26-1.2H104a1.24,1.24,0,0,1,1.26,1.2Z" style="fill:none;stroke:#fff;stroke-miterlimit:10;stroke-width:1.10553356537643px"/><path d="M65.57,66.54c-2.83,0-4-.91-2.57-2L82.25,49.29a4.35,4.35,0,0,1,5.14,0l19.25,15.22c1.41,1.12.25,2-2.57,2Z" style="fill:none;stroke:#fff;stroke-miterlimit:10;stroke-width:1.47404475383524px"/><path d="M107,94c1.23,0,2.22.56,2.22,1.26v3.09c0,.69-1,1.26-2.22,1.26H62.68c-1.23,0-2.22-.57-2.22-1.26V95.22c0-.7,1-1.26,2.22-1.26Z" style="fill:none;stroke:#fff;stroke-miterlimit:10;stroke-width:1.10553356537643px"/><rect x="75.98" y="97.62" width="17.68" height="1.2" style="fill:#fff;stroke:#fff;stroke-miterlimit:10;stroke-width:0.368511188458811px"/><rect x="77.69" y="96.16" width="14.27" height="1.2" style="fill:#fff;stroke:#fff;stroke-miterlimit:10;stroke-width:0.368511188458811px"/><rect x="80" y="94.7" width="9.63" height="1.2" style="fill:#fff;stroke:#fff;stroke-miterlimit:10;stroke-width:0.368511188458811px"/></svg>