<svg id="Layer_1" data-name="Layer 1" xmlns="http://www.w3.org/2000/svg" viewBox="0 0 195 179"><path id="SVGID" d="M103,77.12c-1.28-.27-2.51-.54-3.79-.75-8.87-1.45-18-.81-27,.48-1.28.16-2.56.37-3.84.59-8.56,8.23-7,23.57-1.61,33.83.8,2,3.9,1.55,5.67,1.87,1.33.22,2.72.38,4.06.54h.21c-.1,3.21-.48,5.83-2.4,8.77,3.53-.81,6.52-4.76,7.27-8.4a98.28,98.28,0,0,0,19.72-1l3.69-.64c1.77-.75,4.07-1.93,4.28-4.33,0,0,.32-1.61.91-4C112.14,95.45,112.51,80.11,103,77.12Z" style="fill:none;stroke:#bcba40;stroke-miterlimit:10;stroke-width:1.06912388547652px"/><path id="SVGID-2" data-name="SVGID" d="M82.2,58.14h44.37a4.54,4.54,0,0,1,4.33,4.7V94a4.51,4.51,0,0,1-4.33,4.7H96.74a13.25,13.25,0,0,0,2.94,8.77c-3.26.11-8-5.13-9.41-8.77H82.2A4.54,4.54,0,0,1,77.87,94V62.84A4.5,4.5,0,0,1,82.2,58.14Z" style="fill:none;stroke:#bcba40;stroke-miterlimit:10;stroke-width:1.06912388547652px"/><path id="SVGID-3" data-name="SVGID" d="M175.26,46.9c-.48-3.32-5.29-5.4-10.69-4.55s-9.35,4.17-8.82,7.54c.32,2,2.19,3.58,4.86,4.33-.05,1.12.06,1.87-1.12,2.62a3.21,3.21,0,0,0,3.21-2.25,14.76,14.76,0,0,0,3.74-.1C171.79,53.58,175.74,50.21,175.26,46.9Z" style="fill:none;stroke:#bcba40;stroke-miterlimit:10;stroke-width:1.06912388547652px"/><path id="SVGID-4" data-name="SVGID" d="M152.12,127.74c-.32-2.14-3.42-3.48-6.89-2.94s-6,2.67-5.67,4.86c.21,1.34,1.44,2.3,3.15,2.78,0,.7.06,1.18-.69,1.71a2,2,0,0,0,2-1.44,13,13,0,0,0,2.4-.05C149.88,132,152.44,129.88,152.12,127.74Z" style="fill:none;stroke:#bcba40;stroke-miterlimit:10;stroke-width:1.06912388547652px"/><path id="SVGID-5" data-name="SVGID" d="M38.46,70.93c-.49-3.32-5.3-5.4-10.7-4.55s-9.35,4.17-8.82,7.54c.32,2,2.2,3.58,4.87,4.33,0,1.12.05,1.87-1.12,2.62a3.19,3.19,0,0,0,3.2-2.25,14.85,14.85,0,0,0,3.75-.1C35,77.61,38.94,74.24,38.46,70.93Z" style="fill:none;stroke:#bcba40;stroke-miterlimit:10;stroke-width:1.06912388547652px"/></svg>