<svg id="Layer_1" data-name="Layer 1" xmlns="http://www.w3.org/2000/svg" viewBox="0 0 195 179"><g id="module204"><g id="Knee"><polyline points="138.11 54.23 135.85 54.51 133.59 54.8 131.32 55.01 128.92 55.15 126.73 55.22 124.54 55.22 117.47 55.64 112.8 56.7 110.11 58.47 109.05 60.59 109.26 62.93 110.47 65.4 112.3 68.09 114.5 70.35 116.69 73.53 118.17 77.14 118.88 81.24 119.02 85.41 118.74 89.66 118.03 93.76 117.18 97.72 116.19 101.11 114.57 106.56 113.44 110.66 112.73 114.26 112.02 118.22 111.45 121.76 111.31 124.52 111.74 127.13 113.08 130.46 113.86 132.58 114.5 134.77 114.78 136.82 114.5 138.87 113.58 140.64 111.67 142.13 108.77 143.19 104.67 143.75 100.85 144.25 97.03 145.16 93.21 146.37 89.82 147.64 86.85 148.98 84.66 150.04 83.03 150.82 82.53 151.18 80.41 151.95 78.43 152.02 77.09 151.81 76.52 151.67 75.32 152.09 73.98 152.02 72.99 151.81 72.49 151.67 71.93 151.67 71.43 151.32 71.22 150.96 71.08 150.75 69.66 151.03 68.67 150.75 68.11 150.19 68.25 149.48 66.62 149.55 65.7 148.77 65.28 147.78 65.35 147.15 63.72 146.86 62.31 145.94 61.67 144.81 61.6 143.96 61.25 143.4 61.81 142.76 63.09 142.19 65.14 141.98 65.42 141.63 65.78 141.35 66.27 141.06 66.98 140.85 67.75 140.57 68.81 140.36 70.3 140.15 71.93 139.86 73.98 139.37 76.24 138.66 78.72 137.67 81.26 136.33 83.88 134.7 86.42 132.72 89.04 130.25 91.44 127.42 93.21 124.16 94.06 120.63 94.2 116.81 93.85 112.99 93.14 109.24 92.15 105.78 91.23 102.6 90.52 99.84 88.9 94.47 87.13 88.67 85.64 83.22 85.01 78.91 84.72 76.01 84.16 73.96 83.52 72.33 82.75 70.99 81.97 68.44 81.9 66.46 81.9 65.54 81.54 64.55 81.05 63.49 80.34 62.43 79.35 61.09 78.5 59.25 77.94 56.92 77.8 53.88 78.01 52.25 78.43 50.62 79.07 49.07 79.99 47.58 81.12 46.1 82.6 44.82 84.23 43.62 86.21 42.56 88.19 41.57 89.96 40.58 91.66 39.59 93.28 38.67 94.91 37.75 96.53 36.76 98.3 35.7 100.28 34.57 101.27 33.94 102.62 33.3 104.1 32.52 105.73 31.67 107.5 30.82 109.47 29.98 111.45 29.06" style="fill:none;stroke:#bcba40;stroke-width:0.707123535275154px"/></g><g id="Layer_6" data-name="Layer 6"><polyline points="96.61 60.66 98.3 60.1 98.8 59.96 99.58 61.65 98.09 62.57 97.17 63.35 96.68 64.48 97.38 67.52 97.88 68.02 97.03 73.04 96.89 78.91 97.1 81.45 98.58 88.1 99.5 90.58 101.2 98 102.47 100.76 103.25 107.55 102.69 110.73 101.91 111.93 100 112.71 99.65 111.01 99.79 108.39 99.36 104.86 98.94 101.32 97.67 97.43 95.4 90.29 92.79 81.24 91.87 74.59 90.52 72.26 89.89 71.69 89.18 68.8 89.53 66.11 90.52 62.5 90.95 61.8 91.37 61.3 95.76 60.45 96.61 60.66" style="fill:#444;stroke:#bcba40;stroke-width:0.707123535275154px"/><polyline points="103.32 61.8 103.61 64.98 103.04 70.28 103.61 79.26 104.6 85.63 104.81 88.67 106.15 94.47 106.01 97.5 106.58 106.98 107.14 112.21 107.42 115.18 107.35 116.03 106.22 117.09 105.66 117.23 103.68 115.39 101.91 112.57 103.04 110.87 103.82 107.41 103.39 101.61 104.03 100.4 104.03 95.74 103.46 91.35 102.05 85.2 101.34 78.2 101.48 75.94 100.85 72.4 100.92 70.78 100.21 68.66 99.08 67.24 98.94 66.75 97.95 65.47 97.95 64.27 98.3 63.21 99.58 61.87 100.56 61.23 102.69 60.95 103.32 61.8" style="fill:#444;stroke:#bcba40;stroke-width:0.707123535275154px"/><path d="M106.36,52.39c-5.09,1.06-7.35,2.9-7.35,2.9-.85.42-.28,2.05-.28,2.05-.07,1.06-1.56,1.91-1.56,1.91-2.83,1.06-4.24-.5-4.24-.5-6.37-5.65-.5-10.67-.5-10.67,1.28-1.49,4.81-.36,4.81-.36s6.51-2.19,9.83-1.83" style="fill:none;stroke:#bcba40;stroke-miterlimit:10;stroke-width:0.707123535275154px"/><path d="M88.12,51.12v3.46c-.28.21.49,2.27.49,2.27a5.39,5.39,0,0,1,.29,2,4.05,4.05,0,0,1-2.55,2.89c-1.34-.14-2.26-2.19-2.26-2.19-2.9-7-.57-9.47-.57-9.47a4.18,4.18,0,0,1,4.32-1C87.77,49.07,88.33,50.83,88.12,51.12Z" style="fill:none;stroke:#bcba40;stroke-miterlimit:10;stroke-width:0.707123535275154px"/></g></g></svg>