<svg xmlns="http://www.w3.org/2000/svg" viewBox="0 0 215 179.33"><g id="Layer_2" data-name="Layer 2"><path d="M118.35,106.64c-1.16,2.32-6.8,3.58-8.14,4.83s-2.33,7-2.33,7-1-5.73-2.31-7-7-2.51-8.15-4.83-3.63-.54-3.27,1.16,0,3.94,1.72,4.47S100.41,114,101,116s-1.35,2.21.78,3.67,2.89,1.93,3.18,2.94,0,3.94,2.91,4,2.63-3,2.92-4,1-1.47,3.18-2.94.18-1.61.78-3.67,3.44-3.22,5.14-3.76,1.36-2.77,1.72-4.47S119.52,104.31,118.35,106.64Z" style="fill:none;stroke:#bbb940;stroke-linecap:round;stroke-linejoin:round"/><path d="M131.9,45.74c-5-16.76-23.19-16.36-23.19-16.36S90.56,29,85.52,45.74s3.63,24.54,4.89,34.19,1.25,15.56,2.13,16.77,6,5.36,6.79,6.84,4.18,3.75,6,4.15a8.25,8.25,0,0,0,3.43,0,8.25,8.25,0,0,0,3.43,0c1.77-.4,5.2-2.68,6-4.15s5.91-5.64,6.79-6.84.87-7.11,2.13-16.77S136.93,62.5,131.9,45.74Z" style="fill:none;stroke:#bbb940;stroke-miterlimit:10"/><path d="M130.43,69.32c2.4-6.12,4.62-13.09,1.47-23.58-5-16.76-23.19-16.36-23.19-16.36S90.56,29,85.52,45.74C82.38,56.21,84.58,63.18,87,69.29a3,3,0,0,0-1.78,3.52c.53,2,2.55,4.06,2.55,5.3s1.06,5.31,4.47,4.77c1.42-.22,2.62-.83,3.57-.55.68.21,1.19,1,1.64,2,1.33,3,.25,6.38,1.58,6.47s7.94,0,9.7,0,8.37.08,9.7,0,.25-3.46,1.58-6.47c.45-1,1-1.84,1.63-2,.93-.28,2.11.33,3.49.54,3.41.54,4.47-3.53,4.47-4.77s2-3.35,2.55-5.3A3,3,0,0,0,130.43,69.32Z" style="fill:none;stroke:#bbb940;stroke-miterlimit:10"/><path d="M109.25,64.79c1.11,0,2.44,5.77,3.37,8.19a2.8,2.8,0,0,1-2.24,4.09,1.27,1.27,0,0,1-.34,0c-.46-.11-.71-.6-.87-1.31-.16.71-.42,1.2-.87,1.31a1.34,1.34,0,0,1-.35,0A2.81,2.81,0,0,1,105.71,73c.94-2.42,2.26-8.19,3.37-8.19h.17m0-1h-.17c-1.46,0-2.17,2.11-3.42,6.15-.32,1-.62,2-.88,2.68a4.06,4.06,0,0,0,.31,3.85,3.63,3.63,0,0,0,2.86,1.6,2.32,2.32,0,0,0,.59-.07,1.82,1.82,0,0,0,.63-.29,1.67,1.67,0,0,0,.63.29,2.2,2.2,0,0,0,.58.07,3.63,3.63,0,0,0,2.86-1.6,4,4,0,0,0,.32-3.85c-.26-.68-.56-1.65-.88-2.68-1.25-4-2-6.15-3.43-6.15Z" style="fill:#bbb940"/><path d="M89.34,102.59c.59-3.41-.67-2.19,1.68-4.63-1.17-1.46-2.6-2.85-2.94-5.94-.25-2.77-.08-6.92-3.61-8-1.43-.4-1.76-7.81-4.28-11.55s-3.28-11.07,3.69-6.84C81.53,48.08,86.4,28.87,108.5,28.87s27,19.21,24.7,36.78c6.89-4.23,6.22,3.1,3.7,6.84S134,83.64,132.61,84c-3.61,1.06-3.36,5.21-3.69,8-.34,3.09-1.69,4.48-2.86,5.94,2.35,2.44,1.09,6.83,1.6,10.25,16.21,3.34,20.08,12.53,38.14,16.77,13,2.93,17.22,11.23,19,22.7l-1,7.82H39.84c-.68-3.79.26-7.71.12-10-1-16,2.92-24,10.94-23.92,1.68-.55,24-7.69,24.75-8.27Z" style="fill:none;stroke:#bbb940"/><path d="M113.87,55.54a14.5,14.5,0,0,0,11.29,0" style="fill:none;stroke:#bbb940;stroke-miterlimit:10"/><path d="M93.81,55.54a14.53,14.53,0,0,0,11.3,0" style="fill:none;stroke:#bbb940;stroke-miterlimit:10"/></g></svg>