<svg id="Layer_1" data-name="Layer 1" xmlns="http://www.w3.org/2000/svg" viewBox="0 0 215 179.33"><path d="M106.23,120.46v4.65a6.59,6.59,0,0,1-6.57,6.57H74.12a6.59,6.59,0,0,1-6.56-6.57V77.37a6.58,6.58,0,0,1,6.56-6.56H99.66a6.59,6.59,0,0,1,6.57,6.56v43.09" style="fill:#1c1c1c;stroke:#bcba40;stroke-miterlimit:10;stroke-width:0.515395919612018px"/><path d="M106.18,123.17H73.93c-2.88,0-5.24,2.08-5.24,4.61h0c0,2.53,2.36,4.6,5.24,4.6h32.61Z" style="fill:#1c1c1c;stroke:#bcba40;stroke-miterlimit:10;stroke-width:0.487673763138895px"/><path d="M69.41,125.64l37-.36" style="fill:#1c1c1c;stroke:#bcba40;stroke-miterlimit:10;stroke-width:0.515395919612018px"/><path d="M68.57,127.08l37.48-.14" style="fill:#1c1c1c;stroke:#bcba40;stroke-miterlimit:10;stroke-width:0.317643935912268px"/><path d="M68.93,129.34l37.48-.13" style="fill:#1c1c1c;stroke:#bcba40;stroke-miterlimit:10;stroke-width:0.317643935912268px"/><path d="M70.36,131.25l36.4-.13" style="fill:#1c1c1c;stroke:#bcba40;stroke-miterlimit:10;stroke-width:0.313058615304675px"/><line x1="74.45" y1="70.99" x2="74.45" y2="123.32" style="fill:#1c1c1c;stroke:#bcba40;stroke-miterlimit:10;stroke-width:0.558207577380029px"/><path d="M118.64,108.52v4.66a6.58,6.58,0,0,1-6.57,6.56H86.53A6.58,6.58,0,0,1,80,113.18V65.44a6.59,6.59,0,0,1,6.56-6.57h25.54a6.59,6.59,0,0,1,6.57,6.57v43.08" style="fill:#1c1c1c;stroke:#bcba40;stroke-miterlimit:10;stroke-width:0.515395919612018px"/><path d="M118.59,111.24H86.35c-2.89,0-5.25,2.07-5.25,4.6h0c0,2.53,2.36,4.6,5.25,4.6H119Z" style="fill:#1c1c1c;stroke:#bcba40;stroke-miterlimit:10;stroke-width:0.487673763138895px"/><path d="M81.82,113.7l37-.36" style="fill:#1c1c1c;stroke:#bcba40;stroke-miterlimit:10;stroke-width:0.515395919612018px"/><path d="M81,115.14l37.48-.13" style="fill:#1c1c1c;stroke:#bcba40;stroke-miterlimit:10;stroke-width:0.317643935912268px"/><path d="M81.34,117.41l37.48-.14" style="fill:#1c1c1c;stroke:#bcba40;stroke-miterlimit:10;stroke-width:0.317643935912268px"/><path d="M82.77,119.32l36.41-.14" style="fill:#1c1c1c;stroke:#bcba40;stroke-miterlimit:10;stroke-width:0.313058615304675px"/><line x1="86.86" y1="59.05" x2="86.86" y2="111.39" style="fill:#1c1c1c;stroke:#bcba40;stroke-miterlimit:10;stroke-width:0.558207577380029px"/><path d="M132,95.16v4.65a6.59,6.59,0,0,1-6.57,6.57H99.9a6.59,6.59,0,0,1-6.56-6.57V52.07a6.58,6.58,0,0,1,6.56-6.56h25.54A6.59,6.59,0,0,1,132,52.07V95.16" style="fill:#1c1c1c;stroke:#bcba40;stroke-miterlimit:10;stroke-width:0.515395919612018px"/><path d="M132,97.87H99.71c-2.88,0-5.24,2.07-5.24,4.6h0c0,2.54,2.36,4.61,5.24,4.61h32.61Z" style="fill:#1c1c1c;stroke:#bcba40;stroke-miterlimit:10;stroke-width:0.487673763138895px"/><path d="M95.19,100.33l37-.36" style="fill:#1c1c1c;stroke:#bcba40;stroke-miterlimit:10;stroke-width:0.515395919612018px"/><path d="M94.35,101.77l37.48-.13" style="fill:#1c1c1c;stroke:#bcba40;stroke-miterlimit:10;stroke-width:0.317643935912268px"/><path d="M94.71,104l37.48-.13" style="fill:#1c1c1c;stroke:#bcba40;stroke-miterlimit:10;stroke-width:0.317643935912268px"/><path d="M96.14,106l36.4-.13" style="fill:#1c1c1c;stroke:#bcba40;stroke-miterlimit:10;stroke-width:0.313058615304675px"/><line x1="100.23" y1="45.68" x2="100.23" y2="98.02" style="fill:#1c1c1c;stroke:#bcba40;stroke-miterlimit:10;stroke-width:0.558207577380029px"/></svg>