<svg id="Layer_1" data-name="Layer 1" xmlns="http://www.w3.org/2000/svg" viewBox="0 0 195 180.31"><path d="M113.74,96.45V136A5.64,5.64,0,1,0,125,136V96.45Z" style="fill:#bbb940"/><path d="M69.81,134.53a6.87,6.87,0,1,0,13.74,0V70.28H69.81Z" style="fill:#bbb940"/><path d="M61.08,45.34h3.21a2.14,2.14,0,0,1,2.14,2.14v85.88a10.16,10.16,0,1,0,20.31,0V47.48a2.14,2.14,0,0,1,2.14-2.14h3.21V42.48h-31Z" style="fill:none;stroke:#bcba40;stroke-miterlimit:10;stroke-width:0.625419139862061px"/><path d="M107.16,65.85h2.53a1.68,1.68,0,0,1,1.68,1.68v67.76a8,8,0,0,0,16,0V67.53a1.68,1.68,0,0,1,1.69-1.68h2.53V63.59H107.16Z" style="fill:none;stroke:#bcba40;stroke-miterlimit:10;stroke-width:0.493398985881242px"/></svg>