<svg id="Layer_1" data-name="Layer 1" xmlns="http://www.w3.org/2000/svg" viewBox="0 0 195 179"><path d="M97.54,58.54c13.31-.2,23.64-9.9,23.52-22.35,0-12.93-10.42-22.55-23.64-22.47-13.48,0-23.43,9.82-23.64,22.19C73.73,48.64,84.23,58.38,97.54,58.54ZM79,65.29c.38,6.9,3.45,12.29,9.87,15.44A18.28,18.28,0,0,0,108.92,79a16.59,16.59,0,0,0,6.89-13.73Z" style="fill:none;stroke:#bcba40;stroke-miterlimit:10"/><path d="M47.57,87.92c.21-1.2.38-2.36.68-3.55a24.27,24.27,0,0,1,8.52-13.46,26,26,0,0,1,12.64-5.46h.75c1.26,13.73,8.91,22.11,23,25.54v20.28a13.47,13.47,0,0,1-2.68,8.38,12.44,12.44,0,0,1-11.59,4.47c-5-.92-8.15-3.63-9.66-8.18a2.47,2.47,0,0,1-.3-1.56A3.57,3.57,0,0,1,70,112.94a8,8,0,0,0,2.48-9.54,8.82,8.82,0,0,0-9.07-5A8.62,8.62,0,0,0,56,104.6c-1,3.55.38,6.75,3.53,9a2.24,2.24,0,0,1,.75,1.56,18.91,18.91,0,0,0,4.58,10.18,20.46,20.46,0,0,0,6.68,5.19,25.43,25.43,0,0,0,7.26,2.07,20,20,0,0,0,11.09-1.83A19.62,19.62,0,0,0,98,124a18.05,18.05,0,0,0,3.83-10.1c.2-7.26.2-14.65.29-21.91V91c14.07-3.35,21.54-11.81,22.88-25.66,1.73.44,3.45.71,5.08,1.27a25.29,25.29,0,0,1,13.69,10.54,20.89,20.89,0,0,1,3.45,10c.08,1.08.21,2.19.21,3.27v44.75a10.25,10.25,0,0,1-7.35,9.65,19.82,19.82,0,0,1-5,.84c-25.06.08-50.22.08-75.29,0a11.91,11.91,0,0,1-8.6-3.19,9.59,9.59,0,0,1-3.15-6.19.88.88,0,0,0-.21-.36C47.57,119.93,47.57,103.92,47.57,87.92Z" style="fill:none;stroke:#bcba40;stroke-miterlimit:10"/><path d="M97.54,58.54c-13.31-.08-23.81-9.9-23.64-22.75C74,23.42,83.94,13.6,97.54,13.6c13.19,0,23.64,9.54,23.64,22.47C121.06,48.56,110.73,58.38,97.54,58.54Z" style="fill:none;stroke:#bcba40;stroke-miterlimit:10"/><path d="M79,65.29h36.83A17,17,0,0,1,108.92,79a18.28,18.28,0,0,1-20.07,1.71C82.51,77.58,79.36,72.19,79,65.29Z" style="fill:none;stroke:#bcba40;stroke-miterlimit:10"/></svg>