<svg id="Layer_1" data-name="Layer 1" xmlns="http://www.w3.org/2000/svg" viewBox="0 0 195 179"><g id="Layer_2" data-name="Layer 2"><path d="M128.18,67.13a6.24,6.24,0,0,1-6.28,6.23H71.72a6.27,6.27,0,0,1-6.28-6.23V41.46a6.23,6.23,0,0,1,6.28-6.22H121.9a6.27,6.27,0,0,1,6.28,6.22Z" style="fill:none;stroke:#bcba40;stroke-miterlimit:10;stroke-width:0.550880894892597px"/><path d="M119.65,77.82h7.54a.9.9,0,0,1,.39.05V75H66.1v2.92c.11,0,.28-.05.39-.05H74A3.14,3.14,0,0,1,77.17,81v2.42A3.13,3.13,0,0,1,74,86.52H66.49a.9.9,0,0,1-.39,0v2.92h61.48V86.47c-.11,0-.28,0-.39,0h-7.54a3.13,3.13,0,0,1-3.14-3.14V81A3.1,3.1,0,0,1,119.65,77.82ZM94.86,83.38a3.14,3.14,0,0,1-3.14,3.14H84.17A3.13,3.13,0,0,1,81,83.38V81a3.17,3.17,0,0,1,3.14-3.14h7.55A3.15,3.15,0,0,1,94.86,81Zm17.73,0a3.13,3.13,0,0,1-3.14,3.14h-7.54a3.13,3.13,0,0,1-3.14-3.14V81a3.13,3.13,0,0,1,3.14-3.14h7.54A3.14,3.14,0,0,1,112.59,81Z" style="fill:#bcba40;stroke:#bcba40;stroke-miterlimit:10;stroke-width:0.550880894892597px"/><path d="M119.65,22.07h7.54a.76.76,0,0,1,.39.06V19.21H66.1v2.92c.11,0,.28-.06.39-.06H74a3.14,3.14,0,0,1,3.14,3.14v2.42A3.13,3.13,0,0,1,74,30.77H66.49a.9.9,0,0,1-.39-.05v2.92h61.48V30.72c-.11,0-.28.05-.39.05h-7.54a3.13,3.13,0,0,1-3.14-3.14V25.21A3.1,3.1,0,0,1,119.65,22.07ZM94.86,27.63a3.14,3.14,0,0,1-3.14,3.14H84.17A3.13,3.13,0,0,1,81,27.63V25.21a3.17,3.17,0,0,1,3.14-3.14h7.55a3.15,3.15,0,0,1,3.14,3.14Zm17.73,0a3.13,3.13,0,0,1-3.14,3.14h-7.54a3.13,3.13,0,0,1-3.14-3.14V25.21a3.13,3.13,0,0,1,3.14-3.14h7.54a3.14,3.14,0,0,1,3.14,3.14Z" style="fill:#bcba40;stroke:#bcba40;stroke-miterlimit:10;stroke-width:0.550880894892597px"/><circle cx="122.84" cy="40.74" r="1.54" style="fill:#bcba40"/><path d="M105.71,49.17v1.71a1.42,1.42,0,0,0,1.43,1.43h17.35l-5.95-5.89a1.28,1.28,0,0,0-1.81,0l-1.27,1.27-3.2-3.14a1.35,1.35,0,0,0-1.87,0Z" style="fill:none;stroke:#bcba40;stroke-miterlimit:10;stroke-width:0.550880894892597px"/><path d="M144.38,80.19c0,7-4.19,12.61-9.37,12.61H60c-5.18,0-9.37-5.67-9.37-12.61V28.35c0-7,4.19-12.62,9.37-12.62h75c5.18,0,9.37,5.68,9.37,12.62Z" style="fill:none;stroke:#bcba40;stroke-miterlimit:10;stroke-width:0.550880894892597px"/><path d="M79.54,66.2a.8.8,0,0,1-.83.77h-2a.8.8,0,0,1-.83-.77V50.55a.8.8,0,0,1,.83-.77h2a.8.8,0,0,1,.83.77Z" style="fill:none;stroke:#bcba40;stroke-miterlimit:10;stroke-width:0.550880894892597px"/><path d="M85.33,66.2a.8.8,0,0,1-.83.77h-2a.8.8,0,0,1-.83-.77V50.55a.8.8,0,0,1,.83-.77h2a.8.8,0,0,1,.83.77Z" style="fill:none;stroke:#bcba40;stroke-miterlimit:10;stroke-width:0.550880894892597px"/><path d="M91.05,66.2a.79.79,0,0,1-.82.77h-2a.8.8,0,0,1-.83-.77V50.55a.8.8,0,0,1,.83-.77h2a.79.79,0,0,1,.82.77Z" style="fill:none;stroke:#bcba40;stroke-miterlimit:10;stroke-width:0.550880894892597px"/><path d="M96.78,66.2A.79.79,0,0,1,96,67h-2a.8.8,0,0,1-.83-.77V50.55a.8.8,0,0,1,.83-.77h2a.79.79,0,0,1,.82.77Z" style="fill:none;stroke:#bcba40;stroke-miterlimit:10;stroke-width:0.550880894892597px"/><path d="M102.57,66.2a.8.8,0,0,1-.83.77h-2a.79.79,0,0,1-.82-.77V50.55a.79.79,0,0,1,.82-.77h2a.8.8,0,0,1,.83.77Z" style="fill:none;stroke:#bcba40;stroke-miterlimit:10;stroke-width:0.550880894892597px"/><path d="M76.68,49.39c-1.82,0-2.59-.6-1.66-1.32l12.56-9.91a2.88,2.88,0,0,1,3.36,0l12.56,9.91c.94.72.17,1.32-1.65,1.32Z" style="fill:none;stroke:#bcba40;stroke-miterlimit:10;stroke-width:0.550880894892597px"/><path d="M103.67,67.3c.83,0,1.43.38,1.43.82v2c0,.44-.66.83-1.43.83H74.8c-.82,0-1.43-.39-1.43-.83v-2c0-.44.66-.82,1.43-.82Z" style="fill:none;stroke:#bcba40;stroke-miterlimit:10;stroke-width:0.550880894892597px"/><rect x="83.45" y="69.67" width="11.51" height="0.77" style="fill:#bcba40"/><rect x="84.55" y="68.73" width="9.31" height="0.77" style="fill:#bcba40"/><rect x="86.1" y="67.79" width="6.28" height="0.77" style="fill:#bcba40"/></g></svg>