<svg id="Layer_1" data-name="Layer 1" xmlns="http://www.w3.org/2000/svg" viewBox="0 0 195 179"><ellipse cx="98.72" cy="78.56" rx="50.09" ry="49.45" style="fill:none;stroke:#bcba40;stroke-miterlimit:10;stroke-width:2px;stroke-dasharray:1,3,1,3,1,3"/><line x1="71.75" y1="104.89" x2="126.01" y2="49.34" style="fill:none;stroke:#bcba40;stroke-miterlimit:10;stroke-width:2px;stroke-dasharray:1,3,1,3,1,3"/><path d="M76.68,111.49l3-.5c.76-.13,1.46.64,1.54,1.71h0A1.91,1.91,0,0,1,80,114.86l-3.15.53" style="fill:#444;stroke:#bcba40;stroke-width:0.5px"/><line x1="76.86" y1="115.39" x2="76.81" y2="115.4" style="fill:#444;stroke:#bcba40;stroke-width:0.5px"/><path d="M77.1,115.59l-4.1.68c-.76.13-1.47-.75-1.56-2h0c-.1-1.2.45-2.28,1.21-2.41l4.28-.71Z" style="fill:#444;stroke:#bcba40;stroke-width:0.5px"/><path d="M78.63,114s2.16-.06,2-1" style="fill:#444;stroke:#bcba40;stroke-width:0.5px"/><path d="M90,111.56,88,111.47c-.48,0-.86-.57-.84-1.23h0c0-.65.42-1.17.9-1.15l2,.09" style="fill:#444;stroke:#bcba40;stroke-width:0.5px"/><line x1="90.09" y1="109.18" x2="90.12" y2="109.18" style="fill:#444;stroke:#bcba40;stroke-width:0.5px"/><path d="M90,109l2.58.11c.49,0,.87.64.85,1.38h0c0,.74-.43,1.32-.91,1.3l-2.71-.12Z" style="fill:#444;stroke:#bcba40;stroke-width:0.5px"/><path d="M88.9,109.79s-1.34-.24-1.31.33" style="fill:#444;stroke:#bcba40;stroke-width:0.5px"/><path d="M97.42,109l3,2.23a1.73,1.73,0,0,1,.34,2.4h0a1.73,1.73,0,0,1-2.4.34l-3.1-2.34" style="fill:#444;stroke:#bcba40;stroke-width:0.5px"/><line x1="95.23" y1="111.62" x2="95.18" y2="111.59" style="fill:#444;stroke:#bcba40;stroke-width:0.5px"/><path d="M95.32,112l-4-3a1.82,1.82,0,0,1-.2-2.56h0a1.82,1.82,0,0,1,2.52-.51L97.82,109Z" style="fill:#444;stroke:#bcba40;stroke-width:0.5px"/><path d="M97.63,112.24s1.94,1.79,2.37,1.08" style="fill:#444;stroke:#bcba40;stroke-width:0.5px"/><path d="M98.44,114.37l-3.71.08A1.72,1.72,0,0,1,93,112.77h0A1.7,1.7,0,0,1,94.65,111l3.89-.09" style="fill:#444;stroke:#bcba40;stroke-width:0.5px"/><line x1="98.54" y1="110.94" x2="98.6" y2="110.94" style="fill:#444;stroke:#bcba40;stroke-width:0.5px"/><path d="M98.26,110.74l5-.1a1.83,1.83,0,0,1,1.75,1.89h0a1.83,1.83,0,0,1-1.67,2l-5.27.11Z" style="fill:#444;stroke:#bcba40;stroke-width:0.5px"/><path d="M96.27,111.94s-2.64-.21-2.53.62" style="fill:#444;stroke:#bcba40;stroke-width:0.5px"/><path d="M106,129.8l-10-2.42a4.78,4.78,0,0,1-3.51-5.75h0a4.77,4.77,0,0,1,5.74-3.5l10.5,2.53" style="fill:#444;stroke:#bcba40;stroke-width:0.5px"/><line x1="108.65" y1="120.66" x2="108.82" y2="120.7" style="fill:#444;stroke:#bcba40;stroke-width:0.5px"/><path d="M108.05,119.92l13.62,3.29c2.55.62,4.06,3.46,3.37,6.33h0c-.69,2.86-3.34,4.7-5.88,4.09l-14.25-3.45Z" style="fill:#444;stroke:#bcba40;stroke-width:0.5px"/><path d="M101.84,121.72s-6.94-2.42-7.24-.12" style="fill:#444;stroke:#bcba40;stroke-width:0.5px"/><path d="M95.36,115l-3.71.08a1.72,1.72,0,0,1-1.75-1.68h0a1.72,1.72,0,0,1,1.68-1.75l3.88-.08" style="fill:#444;stroke:#bcba40;stroke-width:0.5px"/><line x1="95.46" y1="111.6" x2="95.52" y2="111.6" style="fill:#444;stroke:#bcba40;stroke-width:0.5px"/><path d="M95.18,111.4l5-.1a1.83,1.83,0,0,1,1.75,1.89h0a1.83,1.83,0,0,1-1.67,2l-5.27.11Z" style="fill:#444;stroke:#bcba40;stroke-width:0.5px"/><path d="M93.19,112.6s-2.64-.21-2.53.62" style="fill:#444;stroke:#bcba40;stroke-width:0.5px"/><path d="M79.08,110.88l-3-.13a1.77,1.77,0,0,1-1.36-2h0c0-1,.68-1.88,1.45-1.85l3.19.14" style="fill:#444;stroke:#bcba40;stroke-width:0.5px"/><line x1="79.31" y1="107.07" x2="79.37" y2="107.08" style="fill:#444;stroke:#bcba40;stroke-width:0.5px"/><path d="M79.1,106.83l4.14.18c.78,0,1.39,1,1.36,2.21h0c0,1.18-.69,2.12-1.46,2.09l-4.34-.19Z" style="fill:#444;stroke:#bcba40;stroke-width:0.5px"/><path d="M77.41,108.05s-2.16-.39-2.11.54" style="fill:#444;stroke:#bcba40;stroke-width:0.5px"/><path d="M84.92,111.16l-3.36,1.57a1.71,1.71,0,0,1-2.27-.83h0a1.71,1.71,0,0,1,.82-2.27L83.63,108" style="fill:#444;stroke:#bcba40;stroke-width:0.5px"/><line x1="83.63" y1="107.99" x2="83.69" y2="107.96" style="fill:#444;stroke:#bcba40;stroke-width:0.5px"/><path d="M83.29,107.91l4.57-2.13a1.84,1.84,0,0,1,2.37,1h0a1.85,1.85,0,0,1-.74,2.47l-4.78,2.23Z" style="fill:#444;stroke:#bcba40;stroke-width:0.5px"/><path d="M82,109.81s-2.49.88-2.06,1.59" style="fill:#444;stroke:#bcba40;stroke-width:0.5px"/><path d="M84.16,112.21,87.5,111c.85-.3,1.89.4,2.32,1.55h0c.42,1.16.08,2.35-.77,2.65l-3.49,1.25" style="fill:#444;stroke:#bcba40;stroke-width:0.5px"/><line x1="85.56" y1="116.46" x2="85.51" y2="116.48" style="fill:#444;stroke:#bcba40;stroke-width:0.5px"/><path d="M85.9,116.63l-4.53,1.62c-.85.3-1.93-.51-2.41-1.81h0c-.48-1.3-.18-2.61.66-2.92l4.74-1.69Z" style="fill:#444;stroke:#bcba40;stroke-width:0.5px"/><path d="M87.19,114.56s2.49-.52,2-1.51" style="fill:#444;stroke:#bcba40;stroke-width:0.5px"/></svg>