<svg id="Layer_1" data-name="Layer 1" xmlns="http://www.w3.org/2000/svg" viewBox="0 0 195 179.44"><path d="M75.76,35.67c-9.6-2.32-21.37,4.71-21.23,12.48" style="fill:none;stroke:#bbb940;stroke-linecap:round;stroke-linejoin:round;stroke-width:0.715390695932342px"/><path d="M57.09,41.94a16,16,0,0,0-15.42,9.81" style="fill:none;stroke:#bbb940;stroke-linecap:round;stroke-linejoin:round;stroke-width:0.715390695932342px"/><path d="M46,51.28s-6.59-2.47-9.89,9.07,1.32,13.86,7.66,12.76" style="fill:none;stroke:#bbb940;stroke-linecap:round;stroke-linejoin:round;stroke-width:0.715390695932342px"/><path d="M35.46,70.07S30.61,78,36.88,85.26a24.46,24.46,0,0,0,14.68,8.1" style="fill:none;stroke:#bbb940;stroke-linecap:round;stroke-linejoin:round;stroke-width:0.715390695932342px"/><path d="M48.59,87.57s.5,11.22,16.83,7.43" style="fill:none;stroke:#bbb940;stroke-linecap:round;stroke-linejoin:round;stroke-width:0.715390695932342px"/><path d="M52.88,57.22s4.79,3.46,10.4-.66c0,0,6.68,5.28,12.12-3" style="fill:none;stroke:#bbb940;stroke-linecap:round;stroke-linejoin:round;stroke-width:0.715390695932342px"/><path d="M72.19,57s-2.81,8,2.06,12.53" style="fill:none;stroke:#bbb940;stroke-linecap:round;stroke-linejoin:round;stroke-width:0.715390695932342px"/><path d="M79,67.37s-6.93.82-9.82,10.06" style="fill:none;stroke:#bbb940;stroke-linecap:round;stroke-linejoin:round;stroke-width:0.715390695932342px"/><path d="M60.14,62.83s1.07,9.9-9.4,6.68" style="fill:none;stroke:#bbb940;stroke-linecap:round;stroke-linejoin:round;stroke-width:0.715390695932342px"/><path d="M58,69.08s3.71,1.17,4,6.7" style="fill:none;stroke:#bbb940;stroke-linecap:round;stroke-linejoin:round;stroke-width:0.715390695932342px"/><path d="M44.47,64.48s-4.29,8.66,3.13,13.44" style="fill:none;stroke:#bbb940;stroke-linecap:round;stroke-linejoin:round;stroke-width:0.715390695932342px"/><path d="M71.38,40.56s2-6,10.54-6.76c21-1.9,24.74,2.8,24.74,2.8,14,.5,17.32,8.74,17.32,8.74a40.56,40.56,0,0,1,17.49,21.78c6,6.24,3.46,18,3.46,18s4.95,16.17-8.08,18.48-15.18-5.28-15.18-5.28" style="fill:none;stroke:#bbb940;stroke-linecap:round;stroke-linejoin:round;stroke-width:0.715390695932342px"/><path d="M91.65,37.53s-8.91,4.27-8.74,10.29,1.56,4.37-1.49,12.7" style="fill:none;stroke:#bbb940;stroke-linecap:round;stroke-linejoin:round;stroke-width:0.715390695932342px"/><path d="M69.21,48.23a11.26,11.26,0,0,1,6.77-1c3.46.74,4.45,1.73,6.93.58" style="fill:none;stroke:#bbb940;stroke-linecap:round;stroke-linejoin:round;stroke-width:0.715390695932342px"/><path d="M41.67,82.87S45,89.55,55.41,87.16" style="fill:none;stroke:#bbb940;stroke-linecap:round;stroke-linejoin:round;stroke-width:0.715390695932342px"/><path d="M56.1,80.48A13.85,13.85,0,0,1,63.28,84c3.13,3,4.45,1.25,4.45,1.25" style="fill:none;stroke:#bbb940;stroke-linecap:round;stroke-linejoin:round;stroke-width:0.715390695932342px"/><path d="M90.89,59.69s-3.7,2.17-3.7,10.38c0,14.35-6.43,4.31-16.16,13.07S67,96.4,67,96.4s6.93,9.78,18.47,7.61a7,7,0,0,0,3.39-1.37" style="fill:none;stroke:#bbb940;stroke-linecap:round;stroke-linejoin:round;stroke-width:0.715390695932342px"/><path d="M87.11,60.52S94.54,62,97,48.35c0,0,.08-4.57,5.69-5.65s6.19-3.71,4-6.1" style="fill:none;stroke:#bbb940;stroke-linecap:round;stroke-linejoin:round;stroke-width:0.715390695932342px"/><path d="M100.19,58.58s.78,8-3.59,13.16" style="fill:none;stroke:#bbb940;stroke-linecap:round;stroke-linejoin:round;stroke-width:0.715390695932342px"/><path d="M99.89,64.16a30.15,30.15,0,0,1,9.74-9.83c6.27-3.71,3.71-6.63,3.71-6.63" style="fill:none;stroke:#bbb940;stroke-linecap:round;stroke-linejoin:round;stroke-width:0.715390695932342px"/><path d="M107.27,55.93s5.08,5,13.16-.85" style="fill:none;stroke:#bbb940;stroke-linecap:round;stroke-linejoin:round;stroke-width:0.715390695932342px"/><path d="M113.86,57.92S111,59.12,111,61.18" style="fill:none;stroke:#bbb940;stroke-linecap:round;stroke-linejoin:round;stroke-width:0.715390695932342px"/><path d="M117.13,63.24s.91,8.58-11.21,11.05" style="fill:none;stroke:#bbb940;stroke-linecap:round;stroke-linejoin:round;stroke-width:0.715390695932342px"/><path d="M107.87,68.77s.45,9.48-13.42,9.81c0,0-7,.79-8.28-1.87" style="fill:none;stroke:#bbb940;stroke-linecap:round;stroke-linejoin:round;stroke-width:0.715390695932342px"/><path d="M84.89,84.11a20.62,20.62,0,0,1-8.42,9.48" style="fill:none;stroke:#bbb940;stroke-linecap:round;stroke-linejoin:round;stroke-width:0.715390695932342px"/><path d="M81.92,98.79s9.73,10.31,23.09-1" style="fill:none;stroke:#bbb940;stroke-linecap:round;stroke-linejoin:round;stroke-width:0.715390695932342px"/><path d="M93.46,94.67s6.68.74,9-1.08c0,0,9.9,3.8,16.58-2.72,0,0,5.91,2.08,11.93-5.77" style="fill:none;stroke:#bbb940;stroke-linecap:round;stroke-linejoin:round;stroke-width:0.715390695932342px"/><path d="M117.14,57s9.56,3.11,12.86-1" style="fill:none;stroke:#bbb940;stroke-linecap:round;stroke-linejoin:round;stroke-width:0.715390695932342px"/><path d="M125.3,58s2.81,2.36.25,7.12" style="fill:none;stroke:#bbb940;stroke-linecap:round;stroke-linejoin:round;stroke-width:0.715390695932342px"/><path d="M126.57,62.21a9.53,9.53,0,0,0,5.25,5.65c4.29,2,.66,5.87.66,5.87" style="fill:none;stroke:#bbb940;stroke-linecap:round;stroke-linejoin:round;stroke-width:0.715390695932342px"/><path d="M139.77,62.83s4.17,6.43-2.1,13.77" style="fill:none;stroke:#bbb940;stroke-linecap:round;stroke-linejoin:round;stroke-width:0.715390695932342px"/><path d="M139,85.28s2.72,6.42-5.85,11.2" style="fill:none;stroke:#bbb940;stroke-linecap:round;stroke-linejoin:round;stroke-width:0.715390695932342px"/><path d="M139,90.05a8.1,8.1,0,0,0,5.89-5" style="fill:none;stroke:#bbb940;stroke-linecap:round;stroke-linejoin:round;stroke-width:0.715390695932342px"/><path d="M129.51,78.69s-1.11,6.93,5,8.88" style="fill:none;stroke:#bbb940;stroke-linecap:round;stroke-linejoin:round;stroke-width:0.715390695932342px"/><path d="M88,90.05s6.53.91,10.4-4.25c0,0,6.52.62,8.45-2.93" style="fill:none;stroke:#bbb940;stroke-linecap:round;stroke-linejoin:round;stroke-width:0.715390695932342px"/><path d="M105.42,84.43s14.11,4.66,20.54-10.7" style="fill:none;stroke:#bbb940;stroke-linecap:round;stroke-linejoin:round;stroke-width:0.715390695932342px"/><path d="M116.65,66.49S116.47,69,120,68.77" style="fill:none;stroke:#bbb940;stroke-linecap:round;stroke-linejoin:round;stroke-width:0.715390695932342px"/><path d="M135.35,103.8s4.05,15.34-17,17.1c0,0-3.93,4.56-8.33,4.28-12.62-.82-6.81-14.51-11.59-16.49s-4-5.6-4-5.6a21.13,21.13,0,0,0,7.66-3.13s10.82,4,21.46,1.17C123.57,101.13,126.87,105.13,135.35,103.8Z" style="fill:none;stroke:#bbb940;stroke-linecap:round;stroke-linejoin:round;stroke-width:0.715390695932342px"/><path d="M86.17,103.89s-3.63,3.15,4.72,14c3.9,5.08,9.67,6.49,10.29,13.69,1.33,15.39,8.12,18.31,8.12,18.31" style="fill:none;stroke:#bbb940;stroke-linecap:round;stroke-linejoin:round;stroke-width:0.715390695932342px"/><path d="M110.29,125.18s-6.1,12.38-1,24.75" style="fill:none;stroke:#bbb940;stroke-linecap:round;stroke-linejoin:round;stroke-width:0.715390695932342px"/><path d="M101.33,100.45a29.89,29.89,0,0,0,23.09,1.44" style="fill:none;stroke:#bbb940;stroke-linecap:round;stroke-linejoin:round;stroke-width:0.715390695932342px"/><path d="M100.25,101.09a25.9,25.9,0,0,0,25.38,1.5" style="fill:none;stroke:#bbb940;stroke-linecap:round;stroke-linejoin:round;stroke-width:0.715390695932342px"/><path d="M99.15,101.6s10.25,9.85,28.3,1.8" style="fill:none;stroke:#bbb940;stroke-linecap:round;stroke-linejoin:round;stroke-width:0.715390695932342px"/><path d="M98.12,102s11.34,12.77,31.39,1.8" style="fill:none;stroke:#bbb940;stroke-linecap:round;stroke-linejoin:round;stroke-width:0.715390695932342px"/><path d="M97,102.42s10.63,15.44,34.38,1.66" style="fill:none;stroke:#bbb940;stroke-linecap:round;stroke-linejoin:round;stroke-width:0.715390695932342px"/><path d="M95.86,102.77s12.46,18.42,37.7,1.24" style="fill:none;stroke:#bbb940;stroke-linecap:round;stroke-linejoin:round;stroke-width:0.715390695932342px"/><path d="M95.1,103s11.53,21.55,40.56,2.17" style="fill:none;stroke:#bbb940;stroke-linecap:round;stroke-linejoin:round;stroke-width:0.715390695932342px"/><path d="M100.25,111.08s12.2,10,35.41-4" style="fill:none;stroke:#bbb940;stroke-linecap:round;stroke-linejoin:round;stroke-width:0.715390695932342px"/><path d="M100.68,113.22s12.15,9.25,34.8-4.2" style="fill:none;stroke:#bbb940;stroke-linecap:round;stroke-linejoin:round;stroke-width:0.715390695932342px"/><path d="M100.91,114.94s12,8.78,34-3.6" style="fill:none;stroke:#bbb940;stroke-linecap:round;stroke-linejoin:round;stroke-width:0.715390695932342px"/><path d="M101.18,116.86s11.1,8,32.38-2.93" style="fill:none;stroke:#bbb940;stroke-linecap:round;stroke-linejoin:round;stroke-width:0.715390695932342px"/><path d="M101.6,118.76s5.57,4.12,16.74,2.14" style="fill:none;stroke:#bbb940;stroke-linecap:round;stroke-linejoin:round;stroke-width:0.715390695932342px"/><path d="M102.51,121.08a16.39,16.39,0,0,0,14,1.53" style="fill:none;stroke:#bbb940;stroke-linecap:round;stroke-linejoin:round;stroke-width:0.715390695932342px"/></svg>